<svg width="72" height="72" viewBox="0 0 72 72" fill="none" xmlns="http://www.w3.org/2000/svg">
<path d="M30 26C30 25.2044 30.3161 24.4413 30.8787 23.8787C31.4413 23.3161 32.2044 23 33 23C33.7956 23 34.5587 23.3161 35.1213 23.8787C35.6839 24.4413 36 25.2044 36 26V39.41L39.63 39.8L54.45 46.37C56.04 47.09 57 48.68 57 50.42V63.5C56.91 65.96 54.96 67.91 52.5 68H33C31.86 68 30.78 67.55 30 66.71L15.3 54.11L17.52 51.8C18.09 51.17 18.9 50.84 19.74 50.84H20.4L30 56V26ZM33 14C36.1826 14 39.2348 15.2643 41.4853 17.5147C43.7357 19.7652 45 22.8174 45 26C45 30.5 42.6 34.31 39 36.38V32.72C40.83 31.07 42 28.67 42 26C42 23.6131 41.0518 21.3239 39.364 19.636C37.6761 17.9482 35.3869 17 33 17C30.6131 17 28.3239 17.9482 26.636 19.636C24.9482 21.3239 24 23.6131 24 26C24 28.67 25.17 31.07 27 32.72V36.38C23.4 34.31 21 30.5 21 26C21 22.8174 22.2643 19.7652 24.5147 17.5147C26.7652 15.2643 29.8174 14 33 14ZM33 8C37.7739 8 42.3523 9.89642 45.7279 13.2721C49.1036 16.6477 51 21.2261 51 26C51 31.1 48.87 35.69 45.48 38.99L42.48 37.64C45.84 34.88 48 30.68 48 26C48 22.0218 46.4196 18.2064 43.6066 15.3934C40.7936 12.5804 36.9782 11 33 11C29.0218 11 25.2064 12.5804 22.3934 15.3934C19.5804 18.2064 18 22.0218 18 26C18 32.15 21.69 37.43 27 39.74V42.98C20.01 40.49 15 33.83 15 26C15 21.2261 16.8964 16.6477 20.2721 13.2721C23.6477 9.89642 28.2261 8 33 8Z" fill="#34495E"/>
</svg>
