<svg width="72" height="72" viewBox="0 0 72 72" fill="none" xmlns="http://www.w3.org/2000/svg">
<path d="M52 48C54.3869 48 56.6761 48.9482 58.364 50.636C60.0518 52.3238 61 54.613 61 57C61 59.3869 60.0518 61.6761 58.364 63.3639C56.6761 65.0518 54.3869 66 52 66C48.07 66 44.74 63.51 43.51 60H40V54H43.51C44.74 50.49 48.07 48 52 48ZM52 54C51.2043 54 50.4413 54.316 49.8787 54.8786C49.3161 55.4412 49 56.2043 49 57C49 57.7956 49.3161 58.5587 49.8787 59.1213C50.4413 59.6839 51.2043 60 52 60C52.7957 60 53.5587 59.6839 54.1213 59.1213C54.6839 58.5587 55 57.7956 55 57C55 56.2043 54.6839 55.4412 54.1213 54.8786C53.5587 54.316 52.7957 54 52 54ZM52 27C53.1378 27 54.229 26.548 55.0335 25.7434C55.838 24.9389 56.29 23.8477 56.29 22.71C56.29 20.34 54.37 18.42 52 18.42C49.63 18.42 47.71 20.34 47.71 22.71C47.71 23.8477 48.162 24.9389 48.9665 25.7434C49.771 26.548 50.8622 27 52 27ZM52 10.71C55.1826 10.71 58.2348 11.9742 60.4853 14.2247C62.7357 16.4751 64 19.5274 64 22.71C64 31.68 52 45 52 45C52 45 40 31.68 40 22.71C40 19.5274 41.2643 16.4751 43.5147 14.2247C45.7652 11.9742 48.8174 10.71 52 10.71ZM24.49 54H28V60H24.49C23.26 63.51 19.93 66 16 66C13.6131 66 11.3239 65.0518 9.63604 63.3639C7.94821 61.6761 7 59.3869 7 57C7 53.07 9.49 49.74 13 48.51V45H19V48.51C21.55 49.41 23.59 51.45 24.49 54ZM16 54C15.2044 54 14.4413 54.316 13.8787 54.8786C13.3161 55.4412 13 56.2043 13 57C13 57.7956 13.3161 58.5587 13.8787 59.1213C14.4413 59.6839 15.2044 60 16 60C16.7956 60 17.5587 59.6839 18.1213 59.1213C18.6839 58.5587 19 57.7956 19 57C19 56.2043 18.6839 55.4412 18.1213 54.8786C17.5587 54.316 16.7956 54 16 54ZM16 12C18.3869 12 20.6761 12.9482 22.364 14.636C24.0518 16.3238 25 18.613 25 21C25 24.93 22.51 28.26 19 29.49V33H13V29.49C9.49 28.26 7 24.93 7 21C7 18.613 7.94821 16.3238 9.63604 14.636C11.3239 12.9482 13.6131 12 16 12ZM16 18C15.2044 18 14.4413 18.316 13.8787 18.8786C13.3161 19.4413 13 20.2043 13 21C13 21.7956 13.3161 22.5587 13.8787 23.1213C14.4413 23.6839 15.2044 24 16 24C16.7956 24 17.5587 23.6839 18.1213 23.1213C18.6839 22.5587 19 21.7956 19 21C19 20.2043 18.6839 19.4413 18.1213 18.8786C17.5587 18.316 16.7956 18 16 18ZM31 60V54H37V60H31ZM19 42H13V36H19V42Z" fill="#34495E"/>
</svg>
