<svg width="60" height="60" viewBox="0 0 60 60" fill="none" xmlns="http://www.w3.org/2000/svg">
<path d="M10 47.8294V24.0568C10 23.3965 10.1476 22.7709 10.4427 22.1801C10.7379 21.5893 11.1459 21.1027 11.6667 20.7204L27.5 8.8341C28.2272 8.27803 29.0583 8 29.9933 8C30.9283 8 31.7639 8.27803 32.5 8.8341L48.3333 20.7204C48.8541 21.1027 49.2621 21.5893 49.5573 22.1801C49.8524 22.7709 50 23.3965 50 24.0568V47.8294C50 48.9763 49.592 49.9582 48.7761 50.7749C47.9601 51.5916 46.9792 52 45.8334 52H37.0833C36.4931 52 35.9983 51.8002 35.5989 51.4005C35.1996 51.0008 35 50.5055 35 49.9147V36.5687C35 35.9779 34.8004 35.4826 34.4011 35.0829C34.0017 34.6832 33.5069 34.4834 32.9167 34.4834H27.0833C26.4931 34.4834 25.9983 34.6832 25.5989 35.0829C25.1996 35.4826 25 35.9779 25 36.5687V49.9147C25 50.5055 24.8004 51.0008 24.4011 51.4005C24.0017 51.8002 23.5069 52 22.9167 52H14.1666C13.0208 52 12.0399 51.5916 11.2239 50.7749C10.408 49.9582 10 48.9763 10 47.8294Z" fill="#34495E"/>
</svg>
