<svg width="60" height="60" viewBox="0 0 60 60" fill="none" xmlns="http://www.w3.org/2000/svg">
<path d="M45.9146 44.4164H37.0968C36.5882 44.4164 36.1653 44.2462 35.8282 43.9056C35.4911 43.565 35.3226 43.1378 35.3226 42.624C35.3226 42.1101 35.4911 41.6829 35.8282 41.3423C36.1653 41.0017 36.5882 40.8315 37.0968 40.8315H45.9146L43.3952 38.2861C43.0403 37.9276 42.8718 37.5093 42.8895 37.0313C42.9073 36.5533 43.0936 36.1351 43.4484 35.7766C43.8032 35.43 44.2172 35.2537 44.6904 35.2478C45.1635 35.2418 45.5775 35.4181 45.9323 35.7766L51.4678 41.3692C51.8226 41.7277 52 42.146 52 42.624C52 43.1019 51.8226 43.5202 51.4678 43.8787L45.9323 49.4713C45.5893 49.8179 45.1782 49.9941 44.6992 50.0001C44.2202 50.0061 43.8032 49.8298 43.4484 49.4713C43.1054 49.1248 42.9398 48.7065 42.9516 48.2166C42.9635 47.7266 43.129 47.3084 43.4484 46.9618L45.9146 44.4164ZM11.5484 44.4164C10.5667 44.4164 9.72987 44.0669 9.03793 43.3678C8.346 42.6687 8.00003 41.8233 8.00003 40.8315V13.5852C8.00003 12.5934 8.346 11.7479 9.03793 11.0489C9.72987 10.3498 10.5667 10.0002 11.5484 10.0002H47.0323C48.014 10.0002 48.8508 10.3498 49.5428 11.0489C50.2347 11.7479 50.5807 12.5934 50.5807 13.5852V31.1518C49.6699 30.6739 48.7207 30.3154 47.7331 30.0763C46.7455 29.8374 45.7312 29.7179 44.6904 29.7179C41.0947 29.7179 38.043 30.9846 35.5355 33.518C33.028 36.0514 31.7742 39.1345 31.7742 42.7674V44.4164H11.5484ZM29.2903 24.8064L13.8548 15.0193C13.3462 14.6966 12.8347 14.6846 12.3202 14.9834C11.8056 15.2821 11.5484 15.7303 11.5484 16.3278C11.5484 16.6026 11.6134 16.8446 11.7436 17.0537C11.8737 17.2629 12.0452 17.4451 12.2581 17.6004L28.35 27.9432C28.6575 28.1345 28.971 28.2301 29.2903 28.2301C29.6097 28.2301 29.9231 28.1345 30.2307 27.9432L46.3226 17.6004C46.5355 17.4451 46.707 17.2629 46.8371 17.0537C46.9673 16.8446 47.0323 16.6026 47.0323 16.3278C47.0323 15.7303 46.7751 15.2821 46.2605 14.9834C45.746 14.6846 45.2345 14.6966 44.7259 15.0193L29.2903 24.8064Z" fill="#34495E"/>
</svg>
