<svg width="72" height="72" viewBox="0 0 72 72" fill="none" xmlns="http://www.w3.org/2000/svg">
<path d="M36 16.5C38.7848 16.5 41.4555 17.6062 43.4246 19.5754C45.3938 21.5445 46.5 24.2152 46.5 27C46.5 29.7848 45.3938 32.4555 43.4246 34.4246C41.4555 36.3938 38.7848 37.5 36 37.5C33.2152 37.5 30.5445 36.3938 28.5754 34.4246C26.6062 32.4555 25.5 29.7848 25.5 27C25.5 24.2152 26.6062 21.5445 28.5754 19.5754C30.5445 17.6062 33.2152 16.5 36 16.5ZM15 24C16.68 24 18.24 24.45 19.59 25.26C19.14 29.55 20.4 33.81 22.98 37.14C21.48 40.02 18.48 42 15 42C12.6131 42 10.3239 41.0518 8.63604 39.364C6.94821 37.6761 6 35.3869 6 33C6 30.6131 6.94821 28.3239 8.63604 26.636C10.3239 24.9482 12.6131 24 15 24ZM57 24C59.3869 24 61.6761 24.9482 63.364 26.636C65.0518 28.3239 66 30.6131 66 33C66 35.3869 65.0518 37.6761 63.364 39.364C61.6761 41.0518 59.3869 42 57 42C53.52 42 50.52 40.02 49.02 37.14C51.6 33.81 52.86 29.55 52.41 25.26C53.76 24.45 55.32 24 57 24ZM16.5 54.75C16.5 48.54 25.23 43.5 36 43.5C46.77 43.5 55.5 48.54 55.5 54.75V60H16.5V54.75ZM0 60V55.5C0 51.33 5.67 47.82 13.35 46.8C11.58 48.84 10.5 51.66 10.5 54.75V60H0ZM72 60H61.5V54.75C61.5 51.66 60.42 48.84 58.65 46.8C66.33 47.82 72 51.33 72 55.5V60Z" fill="#34495E"/>
</svg>
