<svg width="61" height="60" viewBox="0 0 61 60" fill="none" xmlns="http://www.w3.org/2000/svg">
<path d="M48.2596 36.7469L44.7966 36.7469L44.7966 31.8336C44.7966 30.8252 44.3976 29.962 43.5998 29.244C42.8019 28.5259 41.8428 28.1669 40.7225 28.1669L19.9447 28.1669L19.9447 23.2902L23.6114 23.2902C24.7317 23.2902 25.6908 22.9312 26.4887 22.2132C27.2865 21.4951 27.6855 20.6319 27.6855 19.6236L27.6855 11.6669C27.6855 10.6585 27.2865 9.79535 26.4887 9.07731C25.6908 8.35927 24.7317 8.00024 23.6114 8.00024L12.4076 8.00024C11.2873 8.00024 10.3282 8.35927 9.53033 9.07731C8.7325 9.79535 8.33359 10.6585 8.33359 11.6669L8.33359 19.6236C8.33359 20.6319 8.7325 21.4951 9.53033 22.2132C10.3282 22.9312 11.2873 23.2902 12.4076 23.2902L15.8706 23.2902L15.8706 36.7469L12.4076 36.7469C11.2873 36.7469 10.3282 37.106 9.53033 37.824C8.7325 38.542 8.33359 39.4052 8.33359 40.4136L8.33359 48.3336C8.33359 49.3419 8.7325 50.2051 9.53033 50.9232C10.3282 51.6412 11.2873 52.0002 12.4076 52.0002L23.6114 52.0002C24.7317 52.0002 25.6908 51.6412 26.4887 50.9232C27.2865 50.2051 27.6855 49.3419 27.6855 48.3336L27.6855 40.4136C27.6855 39.4052 27.2865 38.542 26.4887 37.824C25.6908 37.106 24.7317 36.7469 23.6114 36.7469L19.9447 36.7469L19.9447 31.8336L40.7225 31.8336L40.7225 36.7469L37.0558 36.7469C35.9354 36.7469 34.9763 37.106 34.1785 37.824C33.3807 38.542 32.9817 39.4052 32.9817 40.4136L32.9817 48.3336C32.9817 49.3419 33.3807 50.2051 34.1785 50.9232C34.9763 51.6412 35.9354 52.0002 37.0558 52.0002L48.2596 52.0002C49.3799 52.0002 50.339 51.6412 51.1369 50.9232C51.9347 50.2051 52.3336 49.3419 52.3336 48.3336L52.3336 40.4136C52.3336 39.4052 51.9347 38.542 51.1368 37.824C50.339 37.106 49.3799 36.7469 48.2596 36.7469Z" fill="#34495E"/>
</svg>
