<svg width="46" height="45" viewBox="0 0 46 45" fill="none" xmlns="http://www.w3.org/2000/svg">
<g clip-path="url(#clip0_302_3491)">
<path d="M44.7399 14.0365L24.1735 0.325594C23.4715 -0.106389 22.7223 -0.110344 22.0139 0.325594L1.44752 14.0365C0.920176 14.388 0.59375 15.0159 0.59375 15.6436V29.3545C0.59375 29.9823 0.920176 30.6101 1.44761 30.9616L22.014 44.6745C22.716 45.1065 23.4652 45.1104 24.1736 44.6745L44.74 30.9616C45.2673 30.6102 45.5938 29.9823 45.5938 29.3545V15.6436C45.5937 15.0159 45.2673 14.388 44.7399 14.0365ZM25.0273 5.54867L40.1697 15.6436L33.4147 20.1637L25.0273 14.5638V5.54867ZM21.1602 5.54867V14.5638L12.7728 20.1637L6.01783 15.6436L21.1602 5.54867ZM4.46094 19.2597L9.30749 22.4991L4.46094 25.7385V19.2597ZM21.1602 39.4495L6.01783 29.3546L12.7728 24.8344L21.1602 30.4344V39.4495ZM23.0938 27.0694L16.2633 22.4991L23.0938 17.9288L29.9242 22.4991L23.0938 27.0694ZM25.0273 39.4495V30.4344L33.4147 24.8344L40.1697 29.3546L25.0273 39.4495ZM41.7266 25.7385L36.88 22.4991L41.7266 19.2597V25.7385Z" fill="#34495E"/>
</g>
<defs>
<clipPath id="clip0_302_3491">
<rect width="45" height="45" fill="white" transform="translate(0.59375)"/>
</clipPath>
</defs>
</svg>
