<svg width="45" height="45" viewBox="0 0 45 45" fill="none" xmlns="http://www.w3.org/2000/svg">
<path d="M41.7857 0H3.20424C1.43638 0 0 1.45647 0 3.24442V41.7556C0 43.5435 1.43638 45 3.20424 45H41.7857C43.5536 45 45 43.5435 45 41.7556V3.24442C45 1.45647 43.5536 0 41.7857 0ZM13.6004 38.5714H6.9308V17.096H13.6105V38.5714H13.6004ZM10.2656 14.1629C8.12612 14.1629 6.39844 12.4252 6.39844 10.2958C6.39844 8.16629 8.12612 6.42857 10.2656 6.42857C12.3951 6.42857 14.1328 8.16629 14.1328 10.2958C14.1328 12.4353 12.4051 14.1629 10.2656 14.1629ZM38.6016 38.5714H31.9319V28.125C31.9319 25.6339 31.8817 22.4297 28.4665 22.4297C24.9911 22.4297 24.4587 25.1417 24.4587 27.9442V38.5714H17.7891V17.096H24.1875V20.029H24.2779C25.1719 18.3415 27.3516 16.5636 30.596 16.5636C37.346 16.5636 38.6016 21.0134 38.6016 26.7991V38.5714Z" fill="#34495E"/>
</svg>
