<svg width="48" height="48" viewBox="0 0 48 48" fill="none" xmlns="http://www.w3.org/2000/svg">
<path d="M33.8716 0C46.9745 0 48 1.02546 48 14.1284V33.8716C48 46.9745 46.9745 48 33.8716 48H14.1284C1.02546 48 0 46.9745 0 33.8716V14.1284C0 1.02546 1.02546 0 14.1284 0H33.8716ZM17.1415 32.892C22.0527 32.892 26.0335 28.9113 26.0335 24C26.0335 19.0887 22.0527 15.108 17.1415 15.108C12.2302 15.108 8.24946 19.0887 8.24946 24C8.24946 28.9113 12.2313 32.892 17.1415 32.892ZM31.3233 32.4622C33.7538 32.4622 35.724 28.6735 35.724 24C35.724 19.3265 33.7538 15.5378 31.3233 15.5378C28.8927 15.5378 26.9225 19.3265 26.9225 24C26.9225 28.6735 28.8927 32.4622 31.3233 32.4622ZM38.16 31.5578C39.0055 31.5578 39.6905 28.1738 39.6905 24C39.6905 19.8262 39.0055 16.4422 38.16 16.4422C37.3145 16.4422 36.6295 19.8262 36.6295 24C36.6295 28.1738 37.3145 31.5578 38.16 31.5578Z" fill="#34495E"/>
</svg>
