<svg width="48" height="48" viewBox="0 0 48 48" fill="none" xmlns="http://www.w3.org/2000/svg">
<rect width="48" height="48" rx="12" fill="#34495E"/>
<path d="M11.4716 21.0739H10.5852C10.5511 20.8845 10.4877 20.7178 10.3949 20.5739C10.3021 20.4299 10.1884 20.3078 10.054 20.2074C9.91951 20.107 9.76894 20.0312 9.60227 19.9801C9.4375 19.929 9.26231 19.9034 9.0767 19.9034C8.74148 19.9034 8.44129 19.9877 8.17614 20.1562C7.91288 20.3248 7.70455 20.572 7.55114 20.8977C7.39962 21.2235 7.32386 21.6212 7.32386 22.0909C7.32386 22.5644 7.39962 22.964 7.55114 23.2898C7.70455 23.6155 7.91383 23.8617 8.17898 24.0284C8.44413 24.1951 8.74242 24.2784 9.07386 24.2784C9.25758 24.2784 9.43182 24.2538 9.59659 24.2045C9.76326 24.1534 9.91383 24.0786 10.0483 23.9801C10.1828 23.8816 10.2964 23.7614 10.3892 23.6193C10.4839 23.4754 10.5492 23.3106 10.5852 23.125L11.4716 23.1278C11.4242 23.4138 11.3324 23.6771 11.196 23.9176C11.0616 24.1562 10.8883 24.3627 10.6761 24.5369C10.4659 24.7093 10.2254 24.8428 9.95455 24.9375C9.68371 25.0322 9.38826 25.0795 9.06818 25.0795C8.56439 25.0795 8.11553 24.9602 7.72159 24.7216C7.32765 24.4811 7.01705 24.1373 6.78977 23.6903C6.56439 23.2434 6.4517 22.7102 6.4517 22.0909C6.4517 21.4697 6.56534 20.9366 6.79261 20.4915C7.01989 20.0445 7.33049 19.7017 7.72443 19.4631C8.11837 19.2225 8.56629 19.1023 9.06818 19.1023C9.37689 19.1023 9.66477 19.1468 9.93182 19.2358C10.2008 19.3229 10.4422 19.4517 10.6562 19.6222C10.8703 19.7907 11.0473 19.9972 11.1875 20.2415C11.3277 20.4839 11.4223 20.7614 11.4716 21.0739ZM14.1919 25.0881C13.7828 25.0881 13.4258 24.9943 13.1209 24.8068C12.816 24.6193 12.5792 24.357 12.4107 24.0199C12.2421 23.6828 12.1578 23.2888 12.1578 22.8381C12.1578 22.3854 12.2421 21.9896 12.4107 21.6506C12.5792 21.3116 12.816 21.0483 13.1209 20.8608C13.4258 20.6733 13.7828 20.5795 14.1919 20.5795C14.601 20.5795 14.958 20.6733 15.2629 20.8608C15.5679 21.0483 15.8046 21.3116 15.9732 21.6506C16.1417 21.9896 16.226 22.3854 16.226 22.8381C16.226 23.2888 16.1417 23.6828 15.9732 24.0199C15.8046 24.357 15.5679 24.6193 15.2629 24.8068C14.958 24.9943 14.601 25.0881 14.1919 25.0881ZM14.1947 24.375C14.4599 24.375 14.6796 24.3049 14.8538 24.1648C15.0281 24.0246 15.1569 23.8381 15.2402 23.6051C15.3254 23.3722 15.368 23.1155 15.368 22.8352C15.368 22.5568 15.3254 22.3011 15.2402 22.0682C15.1569 21.8333 15.0281 21.6449 14.8538 21.5028C14.6796 21.3608 14.4599 21.2898 14.1947 21.2898C13.9277 21.2898 13.7061 21.3608 13.53 21.5028C13.3557 21.6449 13.226 21.8333 13.1408 22.0682C13.0574 22.3011 13.0158 22.5568 13.0158 22.8352C13.0158 23.1155 13.0574 23.3722 13.1408 23.6051C13.226 23.8381 13.3557 24.0246 13.53 24.1648C13.7061 24.3049 13.9277 24.375 14.1947 24.375ZM17.9236 19.1818V25H17.0741V19.1818H17.9236ZM21.7305 23.1903V20.6364H22.5828V25H21.7476V24.2443H21.7021C21.6018 24.4773 21.4408 24.6714 21.2192 24.8267C20.9995 24.9801 20.7258 25.0568 20.3982 25.0568C20.1179 25.0568 19.8697 24.9953 19.6538 24.8722C19.4398 24.7472 19.2713 24.5625 19.1482 24.3182C19.0269 24.0739 18.9663 23.7718 18.9663 23.4119V20.6364H19.8158V23.3097C19.8158 23.607 19.8982 23.8437 20.0629 24.0199C20.2277 24.196 20.4417 24.2841 20.705 24.2841C20.8641 24.2841 21.0222 24.2443 21.1794 24.1648C21.3385 24.0852 21.4701 23.965 21.5743 23.804C21.6804 23.643 21.7324 23.4384 21.7305 23.1903ZM23.6241 25V20.6364H24.4395V21.3466H24.4935C24.5844 21.1061 24.733 20.9186 24.9395 20.7841C25.1459 20.6477 25.3931 20.5795 25.681 20.5795C25.9726 20.5795 26.217 20.6477 26.4139 20.7841C26.6128 20.9205 26.7596 21.108 26.8543 21.3466H26.8997C27.0039 21.1136 27.1696 20.928 27.3969 20.7898C27.6241 20.6496 27.895 20.5795 28.2094 20.5795C28.6052 20.5795 28.9281 20.7036 29.1781 20.9517C29.43 21.1998 29.556 21.5739 29.556 22.0739V25H28.7065V22.1534C28.7065 21.858 28.626 21.6439 28.4651 21.5114C28.3041 21.3788 28.1118 21.3125 27.8884 21.3125C27.6118 21.3125 27.3969 21.3977 27.2435 21.5682C27.0901 21.7367 27.0134 21.9536 27.0134 22.2188V25H26.1668V22.0994C26.1668 21.8627 26.0929 21.6723 25.9452 21.5284C25.7974 21.3845 25.6052 21.3125 25.3685 21.3125C25.2075 21.3125 25.0588 21.3551 24.9224 21.4403C24.788 21.5237 24.6791 21.6402 24.5957 21.7898C24.5143 21.9394 24.4736 22.1127 24.4736 22.3097V25H23.6241ZM30.6626 25V19.1818H31.5121V21.3438H31.5632C31.6125 21.2528 31.6835 21.1477 31.7763 21.0284C31.8691 20.9091 31.9979 20.8049 32.1626 20.7159C32.3274 20.625 32.5452 20.5795 32.8161 20.5795C33.1683 20.5795 33.4827 20.6686 33.7592 20.8466C34.0357 21.0246 34.2526 21.2812 34.4098 21.6165C34.5689 21.9517 34.6484 22.3551 34.6484 22.8267C34.6484 23.2983 34.5698 23.7027 34.4126 24.0398C34.2554 24.375 34.0395 24.6335 33.7649 24.8153C33.4903 24.9953 33.1768 25.0852 32.8246 25.0852C32.5594 25.0852 32.3426 25.0407 32.174 24.9517C32.0073 24.8627 31.8767 24.7585 31.782 24.6392C31.6873 24.5199 31.6143 24.4138 31.5632 24.321H31.4922V25H30.6626ZM31.495 22.8182C31.495 23.125 31.5395 23.3939 31.6286 23.625C31.7176 23.8561 31.8464 24.0369 32.0149 24.1676C32.1835 24.2964 32.3899 24.3608 32.6342 24.3608C32.888 24.3608 33.1001 24.2936 33.2706 24.1591C33.4411 24.0227 33.5698 23.8381 33.657 23.6051C33.746 23.3722 33.7905 23.1098 33.7905 22.8182C33.7905 22.5303 33.7469 22.2718 33.6598 22.0426C33.5746 21.8134 33.4458 21.6326 33.2734 21.5C33.103 21.3674 32.8899 21.3011 32.6342 21.3011C32.388 21.3011 32.1797 21.3646 32.0092 21.4915C31.8407 21.6184 31.7128 21.7955 31.6257 22.0227C31.5386 22.25 31.495 22.5152 31.495 22.8182ZM35.5023 25V20.6364H36.3517V25H35.5023ZM35.9312 19.9631C35.7835 19.9631 35.6566 19.9138 35.5506 19.8153C35.4464 19.715 35.3943 19.5956 35.3943 19.4574C35.3943 19.3172 35.4464 19.1979 35.5506 19.0994C35.6566 18.9991 35.7835 18.9489 35.9312 18.9489C36.079 18.9489 36.2049 18.9991 36.3091 19.0994C36.4152 19.1979 36.4682 19.3172 36.4682 19.4574C36.4682 19.5956 36.4152 19.715 36.3091 19.8153C36.2049 19.9138 36.079 19.9631 35.9312 19.9631ZM38.6643 25.0966C38.3878 25.0966 38.1378 25.0455 37.9143 24.9432C37.6909 24.839 37.5138 24.6884 37.3831 24.4915C37.2543 24.2945 37.1899 24.053 37.1899 23.767C37.1899 23.5208 37.2373 23.3182 37.332 23.1591C37.4267 23 37.5545 22.8741 37.7155 22.7812C37.8765 22.6884 38.0564 22.6184 38.2553 22.571C38.4541 22.5237 38.6568 22.4877 38.8632 22.4631C39.1246 22.4328 39.3367 22.4081 39.4996 22.3892C39.6625 22.3684 39.7808 22.3352 39.8547 22.2898C39.9286 22.2443 39.9655 22.1705 39.9655 22.0682V22.0483C39.9655 21.8002 39.8954 21.608 39.7553 21.4716C39.617 21.3352 39.4106 21.267 39.1359 21.267C38.85 21.267 38.6246 21.3305 38.4598 21.4574C38.2969 21.5824 38.1842 21.7216 38.1217 21.875L37.3234 21.6932C37.4181 21.428 37.5564 21.214 37.7382 21.0511C37.9219 20.8864 38.1331 20.767 38.3717 20.6932C38.6104 20.6174 38.8613 20.5795 39.1246 20.5795C39.2988 20.5795 39.4835 20.6004 39.6786 20.642C39.8755 20.6818 40.0592 20.7557 40.2297 20.8636C40.402 20.9716 40.5431 21.1259 40.653 21.3267C40.7628 21.5256 40.8178 21.7841 40.8178 22.1023V25H39.9882V24.4034H39.9541C39.8992 24.5133 39.8168 24.6212 39.707 24.7273C39.5971 24.8333 39.456 24.9214 39.2837 24.9915C39.1113 25.0616 38.9049 25.0966 38.6643 25.0966ZM38.849 24.4148C39.0839 24.4148 39.2846 24.3684 39.4513 24.2756C39.6198 24.1828 39.7477 24.0616 39.8348 23.9119C39.9238 23.7604 39.9683 23.5985 39.9683 23.4261V22.8636C39.938 22.8939 39.8793 22.9223 39.7922 22.9489C39.707 22.9735 39.6094 22.9953 39.4996 23.0142C39.3897 23.0312 39.2827 23.0473 39.1786 23.0625C39.0744 23.0758 38.9873 23.0871 38.9172 23.0966C38.7524 23.1174 38.6018 23.1525 38.4655 23.2017C38.331 23.2509 38.2231 23.322 38.1416 23.4148C38.0621 23.5057 38.0223 23.6269 38.0223 23.7784C38.0223 23.9886 38.1 24.1477 38.2553 24.2557C38.4106 24.3617 38.6085 24.4148 38.849 24.4148Z" fill="white"/>
<path d="M7.34659 28H7.17045C7.16004 27.9493 7.14181 27.9048 7.11577 27.8665C7.0902 27.8281 7.05895 27.7959 7.02202 27.7699C6.98556 27.7434 6.94508 27.7235 6.90057 27.7102C6.85606 27.697 6.80966 27.6903 6.76136 27.6903C6.6733 27.6903 6.59351 27.7126 6.52202 27.7571C6.45099 27.8016 6.39441 27.8672 6.35227 27.9538C6.31061 28.0405 6.28977 28.1468 6.28977 28.2727C6.28977 28.3987 6.31061 28.505 6.35227 28.5916C6.39441 28.6783 6.45099 28.7438 6.52202 28.7884C6.59351 28.8329 6.6733 28.8551 6.76136 28.8551C6.80966 28.8551 6.85606 28.8485 6.90057 28.8352C6.94508 28.822 6.98556 28.8023 7.02202 28.7763C7.05895 28.7498 7.0902 28.7173 7.11577 28.679C7.14181 28.6402 7.16004 28.5956 7.17045 28.5455H7.34659C7.33333 28.6198 7.30919 28.6863 7.27415 28.745C7.23911 28.8037 7.19555 28.8537 7.14347 28.8949C7.09138 28.9356 7.03291 28.9666 6.96804 28.9879C6.90365 29.0092 6.83475 29.0199 6.76136 29.0199C6.63731 29.0199 6.52699 28.9896 6.4304 28.929C6.33381 28.8684 6.25781 28.7822 6.20241 28.6705C6.14702 28.5587 6.11932 28.4261 6.11932 28.2727C6.11932 28.1193 6.14702 27.9867 6.20241 27.875C6.25781 27.7633 6.33381 27.6771 6.4304 27.6165C6.52699 27.5559 6.63731 27.5256 6.76136 27.5256C6.83475 27.5256 6.90365 27.5362 6.96804 27.5575C7.03291 27.5788 7.09138 27.6101 7.14347 27.6513C7.19555 27.692 7.23911 27.7417 7.27415 27.8004C7.30919 27.8587 7.33333 27.9252 7.34659 28ZM10.0585 28.2727C10.0585 28.4261 10.0308 28.5587 9.97539 28.6705C9.91999 28.7822 9.844 28.8684 9.74741 28.929C9.65082 28.9896 9.54049 29.0199 9.41644 29.0199C9.29239 29.0199 9.18207 28.9896 9.08548 28.929C8.98889 28.8684 8.91289 28.7822 8.85749 28.6705C8.8021 28.5587 8.7744 28.4261 8.7744 28.2727C8.7744 28.1193 8.8021 27.9867 8.85749 27.875C8.91289 27.7633 8.98889 27.6771 9.08548 27.6165C9.18207 27.5559 9.29239 27.5256 9.41644 27.5256C9.54049 27.5256 9.65082 27.5559 9.74741 27.6165C9.844 27.6771 9.91999 27.7633 9.97539 27.875C10.0308 27.9867 10.0585 28.1193 10.0585 28.2727ZM9.88803 28.2727C9.88803 28.1468 9.86696 28.0405 9.82482 27.9538C9.78316 27.8672 9.72657 27.8016 9.65508 27.7571C9.58406 27.7126 9.50451 27.6903 9.41644 27.6903C9.32837 27.6903 9.24859 27.7126 9.1771 27.7571C9.10607 27.8016 9.04949 27.8672 9.00735 27.9538C8.96568 28.0405 8.94485 28.1468 8.94485 28.2727C8.94485 28.3987 8.96568 28.505 9.00735 28.5916C9.04949 28.6783 9.10607 28.7438 9.1771 28.7884C9.24859 28.8329 9.32837 28.8551 9.41644 28.8551C9.50451 28.8551 9.58406 28.8329 9.65508 28.7884C9.72657 28.7438 9.78316 28.6783 9.82482 28.5916C9.86696 28.505 9.88803 28.3987 9.88803 28.2727ZM11.5547 29V27.5455H11.7308V28.8438H12.4069V29H11.5547ZM13.8797 29V27.5455H14.0558V28.8438H14.7319V29H13.8797ZM16.2047 29V27.5455H17.0825V27.7017H16.3808V28.1932H17.037V28.3494H16.3808V28.8438H17.0939V29H16.2047ZM19.5943 28C19.5787 27.9522 19.5581 27.9093 19.5325 27.8714C19.5074 27.8331 19.4773 27.8004 19.4423 27.7734C19.4077 27.7464 19.3684 27.7259 19.3244 27.7116C19.2804 27.6974 19.2321 27.6903 19.1795 27.6903C19.0933 27.6903 19.015 27.7126 18.9444 27.7571C18.8739 27.8016 18.8178 27.8672 18.7761 27.9538C18.7344 28.0405 18.7136 28.1468 18.7136 28.2727C18.7136 28.3987 18.7347 28.505 18.7768 28.5916C18.819 28.6783 18.876 28.7438 18.948 28.7884C19.0199 28.8329 19.1009 28.8551 19.1909 28.8551C19.2742 28.8551 19.3476 28.8374 19.411 28.8018C19.475 28.7659 19.5247 28.7152 19.5602 28.6499C19.5962 28.584 19.6142 28.5066 19.6142 28.4176L19.6681 28.429H19.2306V28.2727H19.7846V28.429C19.7846 28.5488 19.7591 28.6529 19.7079 28.7415C19.6573 28.83 19.5872 28.8987 19.4977 28.9474C19.4087 28.9957 19.3064 29.0199 19.1909 29.0199C19.0621 29.0199 18.9489 28.9896 18.8514 28.929C18.7543 28.8684 18.6786 28.7822 18.6241 28.6705C18.5701 28.5587 18.5431 28.4261 18.5431 28.2727C18.5431 28.1577 18.5585 28.0542 18.5893 27.9624C18.6206 27.87 18.6646 27.7914 18.7214 27.7266C18.7782 27.6617 18.8455 27.612 18.9231 27.5774C19.0008 27.5429 19.0862 27.5256 19.1795 27.5256C19.2562 27.5256 19.3277 27.5372 19.394 27.5604C19.4608 27.5831 19.5202 27.6155 19.5723 27.6577C19.6248 27.6993 19.6686 27.7493 19.7037 27.8075C19.7387 27.8653 19.7628 27.9295 19.7761 28H19.5943ZM21.2863 29V27.5455H22.1641V27.7017H21.4624V28.1932H22.1187V28.3494H21.4624V28.8438H22.1755V29H21.2863ZM26.6146 28H26.4384C26.428 27.9493 26.4098 27.9048 26.3837 27.8665C26.3582 27.8281 26.3269 27.7959 26.29 27.7699C26.2535 27.7434 26.213 27.7235 26.1685 27.7102C26.124 27.697 26.0776 27.6903 26.0293 27.6903C25.9413 27.6903 25.8615 27.7126 25.79 27.7571C25.719 27.8016 25.6624 27.8672 25.6202 27.9538C25.5786 28.0405 25.5577 28.1468 25.5577 28.2727C25.5577 28.3987 25.5786 28.505 25.6202 28.5916C25.6624 28.6783 25.719 28.7438 25.79 28.7884C25.8615 28.8329 25.9413 28.8551 26.0293 28.8551C26.0776 28.8551 26.124 28.8485 26.1685 28.8352C26.213 28.822 26.2535 28.8023 26.29 28.7763C26.3269 28.7498 26.3582 28.7173 26.3837 28.679C26.4098 28.6402 26.428 28.5956 26.4384 28.5455H26.6146C26.6013 28.6198 26.5772 28.6863 26.5421 28.745C26.5071 28.8037 26.4635 28.8537 26.4114 28.8949C26.3594 28.9356 26.3009 28.9666 26.236 28.9879C26.1716 29.0092 26.1027 29.0199 26.0293 29.0199C25.9053 29.0199 25.795 28.9896 25.6984 28.929C25.6018 28.8684 25.5258 28.7822 25.4704 28.6705C25.415 28.5587 25.3873 28.4261 25.3873 28.2727C25.3873 28.1193 25.415 27.9867 25.4704 27.875C25.5258 27.7633 25.6018 27.6771 25.6984 27.6165C25.795 27.5559 25.9053 27.5256 26.0293 27.5256C26.1027 27.5256 26.1716 27.5362 26.236 27.5575C26.3009 27.5788 26.3594 27.6101 26.4114 27.6513C26.4635 27.692 26.5071 27.7417 26.5421 27.8004C26.5772 27.8587 26.6013 27.9252 26.6146 28ZM28.0992 29V27.5455H28.2753V28.1932H29.0509V27.5455H29.227V29H29.0509V28.3494H28.2753V29H28.0992ZM30.9558 27.5455V29H30.7797V27.5455H30.9558ZM33.6794 28H33.5033C33.4929 27.9493 33.4746 27.9048 33.4486 27.8665C33.423 27.8281 33.3918 27.7959 33.3548 27.7699C33.3184 27.7434 33.2779 27.7235 33.2334 27.7102C33.1889 27.697 33.1425 27.6903 33.0942 27.6903C33.0061 27.6903 32.9263 27.7126 32.8548 27.7571C32.7838 27.8016 32.7272 27.8672 32.6851 27.9538C32.6434 28.0405 32.6226 28.1468 32.6226 28.2727C32.6226 28.3987 32.6434 28.505 32.6851 28.5916C32.7272 28.6783 32.7838 28.7438 32.8548 28.7884C32.9263 28.8329 33.0061 28.8551 33.0942 28.8551C33.1425 28.8551 33.1889 28.8485 33.2334 28.8352C33.2779 28.822 33.3184 28.8023 33.3548 28.7763C33.3918 28.7498 33.423 28.7173 33.4486 28.679C33.4746 28.6402 33.4929 28.5956 33.5033 28.5455H33.6794C33.6661 28.6198 33.642 28.6863 33.607 28.745C33.5719 28.8037 33.5284 28.8537 33.4763 28.8949C33.4242 28.9356 33.3657 28.9666 33.3009 28.9879C33.2365 29.0092 33.1676 29.0199 33.0942 29.0199C32.9701 29.0199 32.8598 28.9896 32.7632 28.929C32.6666 28.8684 32.5906 28.7822 32.5352 28.6705C32.4798 28.5587 32.4521 28.4261 32.4521 28.2727C32.4521 28.1193 32.4798 27.9867 32.5352 27.875C32.5906 27.7633 32.6666 27.6771 32.7632 27.6165C32.8598 27.5559 32.9701 27.5256 33.0942 27.5256C33.1676 27.5256 33.2365 27.5362 33.3009 27.5575C33.3657 27.5788 33.4242 27.6101 33.4763 27.6513C33.5284 27.692 33.5719 27.7417 33.607 27.8004C33.642 27.8587 33.6661 27.9252 33.6794 28ZM35.2237 29H35.039L35.5731 27.5455H35.7549L36.289 29H36.1044L35.6697 27.7756H35.6583L35.2237 29ZM35.2919 28.4318H36.0362V28.5881H35.2919V28.4318ZM38.6415 28C38.6259 27.9522 38.6053 27.9093 38.5798 27.8714C38.5547 27.8331 38.5246 27.8004 38.4896 27.7734C38.455 27.7464 38.4157 27.7259 38.3717 27.7116C38.3276 27.6974 38.2793 27.6903 38.2268 27.6903C38.1406 27.6903 38.0622 27.7126 37.9917 27.7571C37.9211 27.8016 37.865 27.8672 37.8234 27.9538C37.7817 28.0405 37.7609 28.1468 37.7609 28.2727C37.7609 28.3987 37.7819 28.505 37.8241 28.5916C37.8662 28.6783 37.9233 28.7438 37.9952 28.7884C38.0672 28.8329 38.1482 28.8551 38.2381 28.8551C38.3215 28.8551 38.3949 28.8374 38.4583 28.8018C38.5222 28.7659 38.5719 28.7152 38.6075 28.6499C38.6434 28.584 38.6614 28.5066 38.6614 28.4176L38.7154 28.429H38.2779V28.2727H38.8319V28.429C38.8319 28.5488 38.8063 28.6529 38.7552 28.7415C38.7045 28.83 38.6344 28.8987 38.545 28.9474C38.4559 28.9957 38.3537 29.0199 38.2381 29.0199C38.1094 29.0199 37.9962 28.9896 37.8987 28.929C37.8016 28.8684 37.7258 28.7822 37.6714 28.6705C37.6174 28.5587 37.5904 28.4261 37.5904 28.2727C37.5904 28.1577 37.6058 28.0542 37.6366 27.9624C37.6678 27.87 37.7119 27.7914 37.7687 27.7266C37.8255 27.6617 37.8927 27.612 37.9704 27.5774C38.048 27.5429 38.1335 27.5256 38.2268 27.5256C38.3035 27.5256 38.375 27.5372 38.4413 27.5604C38.508 27.5831 38.5674 27.6155 38.6195 27.6577C38.6721 27.6993 38.7159 27.7493 38.7509 27.8075C38.786 27.8653 38.8101 27.9295 38.8234 28H38.6415ZM41.5608 28.2727C41.5608 28.4261 41.5331 28.5587 41.4777 28.6705C41.4223 28.7822 41.3463 28.8684 41.2498 28.929C41.1532 28.9896 41.0428 29.0199 40.9188 29.0199C40.7947 29.0199 40.6844 28.9896 40.5878 28.929C40.4912 28.8684 40.4152 28.7822 40.3598 28.6705C40.3044 28.5587 40.2767 28.4261 40.2767 28.2727C40.2767 28.1193 40.3044 27.9867 40.3598 27.875C40.4152 27.7633 40.4912 27.6771 40.5878 27.6165C40.6844 27.5559 40.7947 27.5256 40.9188 27.5256C41.0428 27.5256 41.1532 27.5559 41.2498 27.6165C41.3463 27.6771 41.4223 27.7633 41.4777 27.875C41.5331 27.9867 41.5608 28.1193 41.5608 28.2727ZM41.3904 28.2727C41.3904 28.1468 41.3693 28.0405 41.3272 27.9538C41.2855 27.8672 41.2289 27.8016 41.1574 27.7571C41.0864 27.7126 41.0069 27.6903 40.9188 27.6903C40.8307 27.6903 40.7509 27.7126 40.6794 27.7571C40.6084 27.8016 40.5518 27.8672 40.5097 27.9538C40.468 28.0405 40.4472 28.1468 40.4472 28.2727C40.4472 28.3987 40.468 28.505 40.5097 28.5916C40.5518 28.6783 40.6084 28.7438 40.6794 28.7884C40.7509 28.8329 40.8307 28.8551 40.9188 28.8551C41.0069 28.8551 41.0864 28.8329 41.1574 28.7884C41.2289 28.7438 41.2855 28.6783 41.3272 28.5916C41.3693 28.505 41.3904 28.3987 41.3904 28.2727Z" fill="white"/>
</svg>
