<svg width="63" height="48" viewBox="0 0 63 48" fill="none" xmlns="http://www.w3.org/2000/svg">
<g clip-path="url(#clip0_331_10037)">
<path d="M58.4747 45.7592C57.657 45.8328 56.2943 45.2387 55.3745 44.588C54.5001 43.9769 53.3077 43.3714 52.3425 43.428C52.1948 43.4393 52.1494 43.626 52.2743 43.7053C53.3304 44.3899 53.9891 45.4933 54.8464 46.2176C55.6811 46.9249 57.9864 47.4398 58.6223 45.9743C58.6677 45.8724 58.5996 45.7479 58.4803 45.7592H58.4747Z" fill="#34495E"/>
<path d="M54.4717 47.338C52.9443 46.71 52.9727 45.3802 51.9847 44.837C51.8768 44.7805 51.786 44.8653 51.8087 44.9615C51.8882 45.3802 51.7349 46.0762 52.0699 46.8571C52.4446 47.7341 53.5632 48.068 54.483 47.5474C54.5682 47.5021 54.5625 47.3777 54.4773 47.3437L54.4717 47.338Z" fill="#34495E"/>
<path d="M9.83147 5.59047C9.89393 5.48296 9.82012 5.3415 9.6952 5.35282C7.6341 5.56784 6.42469 5.08688 5.18689 4.44182C3.88096 3.76282 2.33088 3.06684 0.826213 3.72887C0.701298 3.78545 0.69562 3.9552 0.814857 4.01744C2.36494 4.78698 2.83621 6.03748 4.73833 6.79005C6.12376 7.33891 8.76402 7.42379 9.83147 5.59047Z" fill="#34495E"/>
<path d="M8.48582 8.07455C7.46378 8.66302 5.32887 8.87238 3.99454 7.8765C3.89802 7.80295 3.74471 7.86519 3.73904 7.98967C3.71632 8.80448 4.52827 9.99274 6.02158 10.0889C7.55463 10.1851 8.52556 9.30242 8.71294 8.22732C8.73565 8.10284 8.5937 8.01231 8.48014 8.08021L8.48582 8.07455Z" fill="#34495E"/>
<path d="M22.6239 45.8556C21.0966 46.3139 18.7118 46.727 16.787 45.7141C12.7954 43.6149 14.2433 37.6453 15.8047 33.973C17.9567 28.9144 22.1754 24.2859 24.9406 24.2859C26.9789 24.2859 26.3998 26.6115 25.7582 27.5111C25.6276 27.6979 25.7241 27.9525 25.9456 27.9864C26.9278 28.1449 28.7561 27.811 29.3921 26.2154C30.0961 24.45 28.4495 23.0014 25.5084 22.9335C20.455 22.8147 15.2937 27.2056 12.4774 33.0111C9.45106 39.2466 9.63275 47.5418 17.0084 47.9775C19.6373 48.1359 21.6587 47.1627 22.8681 46.3365C23.2315 46.0763 23.0328 45.6858 22.6183 45.8443L22.6239 45.8556Z" fill="#34495E"/>
<path d="M62.7104 41.7134C60.8878 42.6584 58.2305 41.1702 55.8855 41.6851C59.0708 40.4742 60.7231 37.6168 61.1376 35.393C61.518 33.373 60.8424 31.2964 58.9175 30.7475C57.5208 30.3458 55.9707 31.302 55.0565 32.4167L55.4426 31.5114C55.6527 31.0021 55.4029 30.5551 54.8748 30.5551H52.4787C52.1324 30.5551 51.9734 30.8833 52.1721 31.2398C52.3765 31.6132 52.297 32.1564 52.0983 32.6374C51.8485 33.2428 50.764 35.7835 49.4296 38.9069C48.8732 40.1517 47.8057 41.5324 46.9995 41.3343C45.5913 40.9892 47.3913 37.4074 48.1464 35.5571C49.6624 31.8509 48.2997 30.6513 46.9427 30.4816C45.7446 30.3344 44.3819 30.9229 43.2577 32.479C43.1839 31.1379 42.2584 30.4816 41.401 30.4816C40.6572 30.4816 39.3569 30.8776 38.3746 32.0885L38.6188 31.5227C38.8289 31.0134 38.5791 30.5664 38.051 30.5664H35.6549C35.3085 30.5664 35.1496 30.8946 35.3483 31.2511C35.5584 31.6359 35.4562 32.2074 35.2518 32.7053C35.2518 32.7053 34.8941 33.5427 34.5363 34.3802C32.5377 39.054 30.8173 41.2438 29.8463 41.2438C28.4098 41.2438 28.8868 39.4897 29.3524 38.3807C29.8918 37.1075 31.033 34.4933 31.8904 32.4394C32.038 32.0885 32.2197 31.5906 32.5661 31.3416C32.9749 31.0417 32.8046 30.5721 32.4468 30.5721H30.6526C30.0735 30.5721 29.5397 30.9229 29.3126 31.4605L29.0344 32.1395C29.0344 32.1395 28.6426 30.159 26.0705 30.5834C23.8731 30.9455 20.3585 33.6955 19.6544 38.6296C19.3762 40.5931 19.8247 42.7715 21.6757 43.343C23.4757 43.9032 25.2074 42.9583 26.0705 41.7247C26.2011 42.8621 27.2856 43.4166 27.984 43.4732C29.6249 43.5977 30.9024 42.2962 31.5043 41.3909L31.033 42.483C30.8229 42.9922 31.0728 43.4392 31.6008 43.4392H34.0424C34.3887 43.4392 34.5477 43.1111 34.349 42.7546C34.1446 42.3811 34.2297 41.8436 34.4228 41.357L37.364 34.4651C37.364 34.4651 38.1873 32.694 39.5102 32.694C40.22 32.694 40.7026 33.5767 39.8396 35.5684L36.8813 42.4886C36.6713 42.9979 36.9211 43.4449 37.4491 43.4449H39.8907C40.237 43.4449 40.396 43.1167 40.1973 42.7602C39.9929 42.3868 40.0667 41.8436 40.2711 41.3626C41.0092 39.6085 42.6445 35.8004 42.9284 35.1158C43.2918 34.2727 44.098 32.694 45.0576 32.694C45.7674 32.694 46.1535 33.5541 45.3472 35.5684C44.1605 38.5447 41.9404 42.5622 44.5977 43.3883C45.5346 43.6825 46.8291 43.4449 48.0499 42.1435C47.942 42.3981 46.6191 45.448 46.4146 45.9346C46.267 46.2854 46.0853 46.7833 45.739 47.0323C45.3302 47.3322 45.5005 47.8018 45.8582 47.8018H47.5673C48.1464 47.8018 48.6802 47.451 48.9073 46.9135L53.9891 34.9856C54.7953 33.2881 55.8798 33.1467 56.652 33.3164C57.5662 33.5201 58.31 34.4707 58.0829 35.7778C57.6173 38.4542 55.3234 40.859 52.5525 41.9624C52.3311 42.0473 52.3765 42.3698 52.6093 42.3924C55.1587 42.6584 56.124 44.0221 59.1163 44.1805C61.1206 44.2823 62.6309 43.3544 63.0057 41.9511C63.0511 41.787 62.8751 41.6512 62.7275 41.7304L62.7104 41.7134ZM28.1373 34.25C27.5695 35.6533 26.1386 38.8729 25.8093 39.6821C25.4289 40.3894 24.3955 41.0061 23.3394 40.6214C21.2442 39.8631 22.5388 35.8174 24.7418 33.6502C26.9563 31.4774 28.5802 33.1523 28.1373 34.2444V34.25Z" fill="#34495E"/>
<path d="M12.4036 0.746911C8.90029 0.780861 5.36859 0.882712 3.49486 0.0169806C3.34723 -0.0509199 3.19393 0.0848811 3.24503 0.237657C4.32385 3.64966 8.37792 4.5267 12.1197 4.16457C18.0589 3.58741 19.5522 4.54368 20.4039 6.40528C21.6019 9.03643 20.6423 12.9803 19.2626 15.8152C17.4172 19.6176 14.107 23.3804 7.87258 23.4426H6.02156C7.13444 23.1767 7.82148 22.4128 8.34385 21.1736C8.44605 20.936 13.9594 7.68408 13.9764 7.64447C14.1411 7.25404 14.3511 6.71084 14.7259 6.41094C15.0666 6.13934 14.936 5.68667 14.5385 5.68667H12.625C11.9721 5.68667 11.3816 6.08276 11.1317 6.68254C11.1317 6.68254 5.35156 20.4663 4.39198 22.7297C4.08537 23.454 3.83554 24.0651 2.9952 24.3254C2.65452 24.4329 2.46147 24.6196 2.46147 24.812C2.46147 25.0553 2.70562 25.1967 2.91571 25.1967H8.46309C16.0829 25.1967 20.9035 21.9205 23.2542 15.4134C24.9406 10.7396 24.3671 7.13521 22.6694 4.67382C20.4493 1.46552 17.474 0.695985 12.4036 0.746911Z" fill="#34495E"/>
<path d="M61.2228 7.80281H57.9807C57.8671 7.80281 57.7649 7.88203 57.7422 7.99519C57.3448 9.91904 55.6925 11.1809 53.8471 11.6675C53.779 11.6731 53.7165 11.6845 53.6654 11.6901L56.8224 4.26632C57.0325 3.75707 56.7826 3.31006 56.2546 3.31006H53.8585C53.5121 3.31006 53.3531 3.63824 53.5519 3.99472C53.7676 4.39081 53.6597 4.97362 53.444 5.47722C52.6093 7.43501 50.4914 12.42 50.4914 12.42C49.0606 15.7924 45.3699 18.9894 43.1214 18.5481C38.7324 17.6823 43.1498 8.8779 45.8639 8.8779C47.5446 8.8779 46.4147 11.6845 44.9327 13.116C44.7908 13.2575 44.8248 13.4782 44.9952 13.5857C46.1592 14.2986 48.6802 13.2009 48.947 10.8074C49.072 9.70968 48.6575 7.79149 45.6709 7.79149C42.6842 7.79149 39.709 10.3434 38.352 15.1134C37.9602 16.4884 36.7394 18.9045 35.3199 18.616C34.4171 18.4292 34.4455 17.1504 35.019 15.7189C35.6379 14.1911 36.887 11.1809 37.4492 9.86246C37.5968 9.51164 37.7785 9.0137 38.1248 8.76473C38.5336 8.46484 38.3633 7.99519 38.0056 7.99519H36.2965C35.7174 7.99519 35.1836 8.34601 34.9565 8.88356C34.9565 8.88356 33.0487 13.2348 32.0835 15.5774C31.4475 17.1391 30.488 18.6612 29.1934 18.6103C27.7058 18.5481 27.9215 16.8732 28.5234 15.4586C29.0685 14.1798 30.7491 10.2472 30.9195 9.86246C31.0671 9.51164 31.2488 9.0137 31.5952 8.76473C32.004 8.46484 31.8336 7.99519 31.4759 7.99519H29.7669C29.1877 7.99519 28.654 8.34601 28.4269 8.88356L25.5708 15.5887C24.2081 18.7687 25.7128 20.8397 27.7682 20.9359C29.6476 21.0208 30.7151 20.1664 31.4986 18.8706C31.7087 20.1267 32.7194 20.8737 33.8777 20.9359C35.9786 21.0547 37.3583 19.4138 38.1078 17.9879C38.5904 19.7872 39.8509 20.7605 41.3442 20.9359C44.2116 21.2697 46.8462 19.6005 48.5325 16.992C48.5325 16.992 47.7036 18.9328 47.2948 19.9004C47.079 20.4097 47.3345 20.8567 47.8625 20.8567H50.2587C50.605 20.8567 50.764 20.5285 50.5653 20.172C50.3609 19.7986 50.4801 19.2101 50.6788 18.7291C50.9911 17.9822 52.0756 15.3907 52.3765 14.6834C52.8762 13.5178 53.6484 12.8727 54.5512 12.8727C55.0395 12.8727 56.5271 13.0538 55.471 15.9339C54.5342 18.4915 53.5859 23.7651 58.293 24.3366H33.4916C32.9068 24.3366 32.373 24.6874 32.1459 25.2193L31.6065 26.3396C31.5214 26.5207 31.6519 26.7301 31.8507 26.7301C33.8607 26.7301 53.2793 26.7301 57.322 26.7301C59.4059 26.7301 60.7118 25.9153 61.2171 24.6761C61.2909 24.5007 61.1887 24.3026 61.007 24.2404C58.1283 23.3407 56.141 22.0563 58.5428 15.1926C59.3604 12.8557 57.8955 11.5769 56.6634 11.792C56.652 11.792 56.6464 11.792 56.635 11.792C58.452 11.3506 61.1433 10.0096 61.4499 8.08007C61.4726 7.93861 61.3648 7.80847 61.2171 7.80847L61.2228 7.80281Z" fill="#34495E"/>
</g>
<defs>
<clipPath id="clip0_331_10037">
<rect width="62.2703" height="48" fill="white" transform="translate(0.729706)"/>
</clipPath>
</defs>
</svg>
