<svg width="42" height="48" viewBox="0 0 42 48" fill="none" xmlns="http://www.w3.org/2000/svg">
<path d="M36.0773 13.7817C34.8527 12.5518 33.5946 11.3109 32.3811 10.103C31.791 9.53191 31.201 8.93891 30.6221 8.3569C29.9429 7.68703 29.2527 7.00618 28.5624 6.33631C26.9147 4.72203 25.2002 3.04187 23.597 1.35072C23.0515 0.779684 22.1719 0 20.9361 0C19.7338 0 18.8654 0.724776 18.2308 1.35072C16.5608 3.05285 14.824 4.75498 13.1429 6.39121C10.8606 8.63143 8.4892 10.9375 6.24029 13.2986C2.47726 17.2299 0.361941 22.1716 0.295142 27.2231C0.284008 32.9773 2.81125 38.4351 7.42041 42.6301C10.8272 45.7159 15.1803 47.5827 19.7894 47.9451H19.8451H19.9008L22.0272 48H22.1274C27.4491 47.8353 32.4145 45.7159 36.1107 42.0261C38.4153 39.72 40.1298 36.9087 41.1096 33.8119C43.3028 26.7509 41.3768 19.0419 36.0773 13.7817ZM24.7103 45.8916L24.3207 45.9465C24.1759 45.9684 24.0312 46.0014 23.8865 46.0124C23.7751 46.0233 23.6638 46.0343 23.5525 46.0453C23.4411 46.0563 23.3075 46.0673 23.1851 46.0782C23.1405 46.0892 23.096 46.0892 23.0515 46.0892C23.0292 46.0892 22.9958 46.1002 22.9735 46.1002C22.6729 46.1222 22.3723 46.1441 22.0717 46.1551L21.0141 46.1332L19.9564 46.1112C16.3159 45.8367 12.8312 44.5189 9.94765 42.3116C9.52459 41.9931 9.11266 41.6527 8.71186 41.2903C8.50033 41.1036 8.29994 40.906 8.11067 40.7083C7.58741 40.1922 7.09754 39.6651 6.64108 39.116C6.60768 39.083 6.58542 39.0501 6.56315 39.0172C6.28482 38.6877 6.02876 38.3473 5.77269 37.9959C5.70589 37.897 5.65023 37.8092 5.58343 37.7213C5.39416 37.4468 5.21603 37.1723 5.0379 36.8868C5.02676 36.8648 5.01563 36.8538 5.01563 36.8318C4.98223 36.7769 4.94883 36.711 4.91543 36.6561C3.00052 30.9458 4.59257 20.4365 21.1588 1.89979C20.1568 3.32738 -5.87267 40.906 25.7123 45.6939C25.4006 45.7598 25.0777 45.8257 24.7549 45.8806L24.7103 45.8916ZM38.1481 36.1071C36.6897 38.9842 34.4742 41.4221 31.7465 43.1791C-1.7979 40.3349 20.4797 3.42622 21.1365 1.92176C20.7469 3.60192 5.93969 37.9959 38.1704 36.0741C38.1704 36.0851 38.1593 36.0961 38.1481 36.1071ZM38.4153 35.558C38.3708 35.4592 38.3151 35.3603 38.2706 35.2615C37.2797 33.186 36.0885 30.7261 34.797 28.1016C34.63 28.1126 34.4519 28.1235 34.2849 28.1235C33.7728 28.1235 33.2718 28.1126 32.7708 28.0686C32.5147 28.0467 32.2698 28.0247 32.0137 27.9918C31.7576 27.9588 31.5127 27.9369 31.2678 27.8929L30.5219 27.7612L29.7871 27.5854C29.5421 27.5305 29.2972 27.4537 29.0634 27.3878C28.8185 27.3219 28.5735 27.245 28.3397 27.1572C27.861 26.9924 27.4046 26.8058 26.9481 26.5971C26.4916 26.3885 26.0463 26.1579 25.6121 25.9053C25.3894 25.7845 25.1779 25.6527 24.9775 25.499C24.766 25.3672 24.5656 25.2135 24.3652 25.0597C24.8773 25.1036 25.356 25.1915 25.8459 25.2684L27.2932 25.499C27.7608 25.5758 28.2395 25.6527 28.7071 25.7186C29.1747 25.7845 29.6423 25.8504 30.1211 25.9163C31.0563 26.0371 31.9914 26.1469 32.9266 26.2347C33.2606 26.2677 33.5835 26.3006 33.9064 26.3116C33.127 24.7522 32.3254 23.1599 31.5127 21.5676C31.1008 20.766 30.6889 19.9643 30.2881 19.1627L29.7982 19.0199C29.4085 18.8991 29.0077 18.7783 28.6292 18.6356C27.8499 18.361 27.0928 18.0535 26.3469 17.7241C25.601 17.3946 24.8662 17.0323 24.1537 16.6369C23.43 16.2416 22.7286 15.8133 22.0495 15.3301C22.8733 15.4729 23.6749 15.6706 24.4543 15.8792C25.2447 16.0879 26.024 16.3185 26.7922 16.5601C27.5604 16.8016 28.3286 17.0542 29.0857 17.3178L29.3863 17.4166C27.5938 13.9245 25.8459 10.6301 24.4209 7.98353C23.43 6.14962 22.6061 4.6232 22.0272 3.54701C21.5596 2.67948 21.2367 2.08648 21.1477 1.89979C21.2813 2.08648 21.6375 2.6685 22.1719 3.47014C22.8399 4.49142 23.7974 5.95195 24.933 7.69801C26.692 10.3994 28.8741 13.8147 31.1342 17.4056C31.3791 16.9554 31.6463 16.5051 31.9135 16.0549C32.1584 15.6706 32.3922 15.2752 32.6483 14.9019C32.9044 14.5285 33.1716 14.1441 33.461 13.7817C33.372 14.243 33.2606 14.6822 33.127 15.1105C32.9934 15.5388 32.8598 15.989 32.7262 16.4173C32.4813 17.175 32.203 17.9108 31.9024 18.6356C32.3143 19.2944 32.7262 19.9643 33.1493 20.6342C34.0622 22.1167 34.9752 23.5882 35.8658 25.0377C35.9994 24.7632 36.1441 24.4997 36.2889 24.2251C36.7565 23.3466 37.2686 22.49 37.8364 21.6664C37.7139 22.6548 37.5469 23.6321 37.3131 24.6095C37.1573 25.2684 36.9903 25.9272 36.801 26.5752C37.8475 28.3102 38.8384 29.9684 39.7513 31.5058C39.4618 32.9115 39.0165 34.2622 38.4153 35.558Z" fill="#34495E"/>
</svg>
