<svg width="48" height="48" viewBox="0 0 48 48" fill="none" xmlns="http://www.w3.org/2000/svg">
<g clip-path="url(#clip0_336_18)">
<path d="M48 0H0V48H48V0Z" fill="#34495E"/>
<path d="M39.0703 22.1588C39.0703 23.1319 37.9528 24 36.9534 24C36.3094 24 35.7834 23.5791 35.7834 23.3297C35.7834 23.1853 35.8359 22.6856 36.0338 22.6856C36.4022 22.6856 36.7303 23.4356 37.4541 23.4356C37.9013 23.4356 38.3222 23.1328 38.3222 22.6856C38.3222 22.0416 37.2047 21.436 37.2047 20.4235C37.2047 19.3585 38.3484 18.0825 39.3881 18.0825C39.9141 18.0825 40.1381 18.3853 40.1381 18.6347C40.1381 18.8578 39.9413 19.1081 39.6647 19.1081C39.2438 19.1081 38.9944 18.8053 38.5997 18.8053C38.1525 18.8053 37.9031 19.1081 37.9031 19.621C37.9003 20.4235 39.0703 21.12 39.0703 22.1588Z" fill="white"/>
<path d="M18.0825 22.4616C17.4909 23.1581 16.6884 24.0263 15.8728 24.0263C15.5438 24.0263 15.4519 23.8556 15.4519 23.6053C15.4519 22.8816 16.9247 20.4488 16.9247 19.5291C16.9247 19.2525 16.8197 19.0819 16.5038 19.0819C15.5831 19.0819 13.7156 21.4491 13.0453 23.685C12.9928 23.8294 12.8747 23.8819 12.5456 23.8819C12.1772 23.8819 12.1247 23.8294 12.1247 23.7113C12.1247 23.4881 13.4663 20.2266 14.0841 18.4641C14.61 16.9519 15.0572 15.8072 15.0572 15.5053C15.0572 15.3347 14.9784 15.255 14.6888 15.2025C14.5838 15.1763 14.3597 15.1763 14.2941 15.1763L14.2678 15.15V14.9269C14.2678 14.9006 14.2678 14.9006 14.2941 14.9006H16.0303C16.1747 14.9006 16.2272 14.9269 16.2272 15.045C16.2272 15.15 15.8325 16.3603 15.0038 18.5034C14.4122 20.0419 14.1094 20.5941 14.2538 20.5941C14.3981 20.5941 15.8447 18.135 17.0681 18.135C17.5678 18.135 17.8838 18.4641 17.8838 19.1738C17.8838 20.3175 16.7138 22.6322 16.7138 22.8825C16.7138 22.9875 16.7663 23.0531 16.9106 23.0531C17.1338 23.0531 17.6344 22.5272 17.8838 22.2375C17.91 22.2113 17.91 22.2375 17.9363 22.2375L18.0806 22.4081C18.1088 22.4353 18.1088 22.4353 18.0825 22.4616Z" fill="white"/>
<path d="M11.9409 22.6847C11.7966 22.9613 10.8234 24.0263 9.65251 24.0263C8.48157 24.0263 8.08782 23.1581 8.06157 22.3828C7.95657 20.0944 10.6519 18.135 12.1913 18.135C12.9675 18.135 13.2825 18.6347 13.2825 19.0031C13.2825 19.2263 13.0856 19.4241 12.9141 19.4241C12.4406 19.4241 12.2963 18.4772 11.6906 18.4772C10.7963 18.4772 9.00751 21.015 9.07407 22.3828C9.10032 23.1328 9.62626 23.4478 10.0734 23.4478C10.5994 23.4478 11.0728 23.0794 11.3625 22.8563C11.5331 22.7513 11.7309 22.5534 11.7572 22.5272C11.7572 22.5272 11.7834 22.5272 11.8097 22.5272L11.9147 22.6716C11.9409 22.6584 11.9409 22.6584 11.9409 22.6847Z" fill="white"/>
<path d="M24.6966 19.7522L24.8016 19.8966C24.8016 19.9228 24.8278 19.9228 24.8541 19.8966C24.8541 19.8703 24.8803 19.8441 24.9066 19.8441C25.1034 19.5938 25.5769 18.976 25.8272 18.976C25.9716 18.976 26.0241 19.1203 26.0241 19.3444C26.0241 20.1863 24.6562 23.5528 24.6562 23.776C24.6562 23.881 24.7088 23.9466 24.8006 23.9466H25.3003C25.4053 23.9466 25.4447 23.8941 25.4972 23.7235C25.4972 23.7235 25.7475 23.1319 25.8919 22.8291C26.9569 20.686 27.4828 19.6725 27.9038 19.2525C28.7981 18.3844 28.68 19.2263 29.1272 19.2525C29.43 19.2788 29.6006 18.9497 29.6006 18.6085C29.6006 18.2138 29.3241 18.1088 29.1272 18.1088C28.2853 18.1088 27.7331 18.8588 26.6681 20.6728C26.5894 20.8172 26.5238 20.896 26.4975 20.896C26.4713 20.896 26.4187 20.8697 26.4187 20.791C26.4187 20.6466 26.8922 18.8972 26.8922 18.555C26.8922 18.2522 26.7478 18.1341 26.4712 18.1341C25.9716 18.1341 24.9591 19.2253 24.6562 19.725C24.6703 19.726 24.6703 19.726 24.6966 19.7522Z" fill="white"/>
<path d="M19.8178 23.1844C19.5675 23.1844 19.3969 23.0794 19.3969 22.5929C19.3969 20.9757 20.7385 18.5166 22.1063 18.5166C22.606 18.5166 22.8028 18.885 22.8028 19.2666C22.7766 20.0157 20.9363 23.1844 19.8178 23.1844ZM23.9738 18.2532L23.671 18.0563C23.6447 18.03 23.5922 18.0038 23.5266 18.03C23.356 18.0825 23.3297 18.3591 23.1319 18.3591C22.9341 18.3591 22.711 18.2541 22.3163 18.2541C19.726 18.2541 18.4106 21.7388 18.4106 22.8835C18.4106 23.6335 18.8316 24.001 19.305 24.001C19.8966 24.001 20.5941 23.6982 21.5147 22.3575C21.7378 22.0285 21.765 21.9366 21.8175 21.9366C21.87 21.9366 21.8963 21.9891 21.8963 22.0416C21.8963 22.1466 21.5016 22.8835 21.5016 23.4619C21.5016 23.8303 21.646 23.9878 21.9488 23.9878C22.6725 23.9878 23.5397 22.8966 23.8688 22.4232V22.3969L23.7244 22.2263C23.6981 22.2 23.6981 22.2 23.6719 22.2263C23.3953 22.5291 22.9219 23.1994 22.6331 23.1994C22.5281 23.1994 22.4625 23.1469 22.4625 22.9491C22.4625 22.4757 24.0535 18.6488 24.0797 18.3722C24.0263 18.3319 24.0263 18.2794 23.9738 18.2532Z" fill="white"/>
<path d="M33.495 20.1994C33.6656 19.8703 34.5862 18.4106 35.3625 18.4106C35.6653 18.4106 35.8622 18.661 35.8622 18.9628C35.8622 19.7522 34.8234 20.1994 33.495 20.1994ZM35.4412 22.6322L35.3362 22.4878C35.3362 22.4878 35.31 22.4878 35.2837 22.4878C35.0072 22.6847 34.3106 23.3035 33.6403 23.3035C33.0225 23.3035 32.6672 22.8825 32.6672 22.3041C32.6672 21.5278 33.0356 20.9363 33.3112 20.5153C33.5081 20.5416 33.6403 20.5416 33.9815 20.5416C34.8759 20.5416 36.7172 20.1469 36.7172 19.0294C36.7172 18.556 36.2962 18.1088 35.5734 18.1088C33.9562 18.1088 31.5891 20.3447 31.5891 22.4353C31.5891 23.3822 32.2069 24 33.1012 24C34.1662 24 35.1919 23.0269 35.4684 22.6585C35.4412 22.6585 35.4412 22.6585 35.4412 22.6322Z" fill="white"/>
<path d="M31.1147 22.4615C30.6413 23.0531 29.8913 24 29.221 24C28.7475 24 28.5244 23.7497 28.5507 23.25C28.5769 22.5262 30.1153 18.7528 30.2203 18.4762C30.8119 16.964 31.2853 15.8193 31.3116 15.5175C31.3116 15.3468 31.2328 15.2672 30.9432 15.2147C30.8382 15.1884 30.6141 15.1884 30.5485 15.1884L30.5222 15.1622V14.9259C30.5222 14.8997 30.5485 14.8997 30.5485 14.8997H32.2847C32.4291 14.8997 32.4816 14.9259 32.4816 15.044C32.4816 15.149 31.9819 16.3331 31.14 18.5287C30.4163 20.4487 29.6278 22.5787 29.6016 22.9603C29.6016 23.1309 29.6541 23.1834 29.7985 23.1834C30.0488 23.1834 30.3507 22.8543 30.8897 22.2628C30.8897 22.2365 30.916 22.2628 30.9422 22.2628L31.0866 22.4334C31.1147 22.4353 31.141 22.4353 31.1147 22.4615Z" fill="white"/>
<path d="M10.7437 27.4585C10.5994 26.9851 10.3491 26.4197 9.65249 26.4197C9.12655 26.4197 8.81061 26.8144 8.81061 27.2879C8.81061 27.7351 9.13968 28.0379 9.75749 28.3266L9.98061 28.4054C10.6247 28.6819 11.2041 29.1291 11.2041 29.9701C11.2041 30.9432 10.4541 31.6135 9.3628 31.6135C9.05999 31.6135 8.74499 31.561 8.54718 31.4691C8.32405 31.3904 8.17874 31.3247 8.07374 31.2985C8.02124 31.0754 7.90311 30.5485 7.82343 30.0488L8.07374 29.9701C8.24436 30.391 8.69155 31.2854 9.49405 31.2854C10.02 31.2854 10.3622 30.8644 10.3622 30.3647C10.3622 29.9176 10.1391 29.5885 9.49405 29.2735L9.27093 29.1291C8.74499 28.8526 8.04749 28.4326 8.04749 27.6169C8.04749 26.7488 8.69155 26.0522 9.78374 26.0522C10.0069 26.0522 10.2834 26.0785 10.5075 26.1572C10.6519 26.2097 10.7578 26.2097 10.8366 26.2622C10.8628 26.5388 10.9153 26.9063 11.0072 27.3535L10.7437 27.4585Z" fill="white"/>
<path d="M16.3594 27.63C16.1091 26.7094 15.5831 26.4337 14.8209 26.4337C13.4794 26.4337 12.9009 27.5512 12.9009 28.7484C12.9009 30.2606 13.6509 31.3125 14.8209 31.3125C15.6891 31.3125 16.11 30.8653 16.5178 29.9972L16.7409 30.0497C16.6622 30.4444 16.4644 31.0884 16.32 31.3912C16.0969 31.4437 15.3731 31.6415 14.7816 31.6415C12.6647 31.6415 11.7966 30.2475 11.7966 28.9584C11.7966 27.2615 13.1119 26.1178 14.9269 26.1178C15.6234 26.1178 16.1503 26.2884 16.3734 26.3409C16.4259 26.7881 16.4522 27.1565 16.5178 27.63H16.3594Z" fill="white"/>
<path d="M19.4231 26.236V26.4591C18.8053 26.5116 18.7528 26.5641 18.7528 27.4322V28.5235H21.2119V27.4322C21.2119 26.5641 21.1594 26.4853 20.5416 26.4591V26.236H22.8563V26.4591C22.2122 26.5116 22.1325 26.5641 22.1325 27.4322V30.2728C22.1325 31.141 22.185 31.2197 22.8291 31.2722V31.4953H20.4881V31.2722C21.1585 31.2197 21.2381 31.1672 21.2381 30.2728V28.905H18.7791V30.2728C18.7791 31.141 18.8316 31.2197 19.4756 31.2722V31.4953H17.161V31.2722C17.805 31.2197 17.8847 31.1672 17.8847 30.2728V27.4322C17.8847 26.5641 17.8322 26.4853 17.1347 26.4591V26.236H19.4231Z" fill="white"/>
<path d="M27.2878 26.2884L28.7081 30.1678H28.7344C29.0372 29.1684 29.431 27.6562 29.55 27.1303C29.6944 26.6306 29.6025 26.5124 29.2734 26.4862C29.2209 26.4862 28.9969 26.4599 28.9969 26.4599V26.2368H30.8644V26.4599C30.3384 26.5124 30.2728 26.5387 29.9963 27.3018C29.8913 27.6309 29.2997 29.3399 28.6284 31.6021H28.26L26.8922 27.8015H26.866L25.6163 31.6021H25.2478L23.9063 27.2756C23.6831 26.579 23.5378 26.5256 23.0906 26.4993V26.2762H25.3135V26.4993C25.3135 26.4993 25.1166 26.4993 25.0631 26.5256C24.7866 26.5518 24.6685 26.6043 24.7866 27.0515L25.7334 30.2081H25.7597L26.9831 26.3287H27.2859" fill="white"/>
<path d="M32.5612 26.2097L30.9178 30.4444C30.6412 31.1681 30.5494 31.1944 30.0497 31.2862V31.5094H31.8647V31.2862L31.6416 31.26C31.2731 31.2337 31.2206 31.1156 31.365 30.6684C31.47 30.3394 31.6153 29.8922 31.7334 29.6297H33.2456C33.4162 30.0506 33.6141 30.5503 33.6928 30.7997C33.7978 31.1025 33.7716 31.1944 33.4697 31.2469L33.2466 31.2731V31.4962H35.3897V31.2731C34.9162 31.2206 34.7981 31.1681 34.5216 30.4312C34.2187 29.6156 33.8512 28.6162 33.4828 27.6169L32.9306 26.144L32.5612 26.2097ZM32.43 27.4584L33.1003 29.2472H31.8112L32.43 27.4584Z" fill="white"/>
<path d="M37.4794 28.8262C38.3213 28.8262 38.8997 29.2209 38.8997 30.0496C38.8997 30.8915 38.3475 31.1934 37.8084 31.1934C37.2825 31.2196 37.1906 31.049 37.1906 30.2728V28.8262H37.4794ZM35.6644 26.2359V26.459C36.2559 26.5115 36.3084 26.564 36.3084 27.4321V30.2728C36.3084 31.1409 36.2559 31.2196 35.6119 31.2721V31.4953H37.6238C38.2153 31.4953 38.7938 31.4165 39.1884 31.1662C39.6356 30.8896 39.9122 30.5221 39.9122 29.9428C39.9122 29.1271 39.2681 28.6931 38.4656 28.575V28.5487C38.9391 28.47 39.6094 28.0753 39.6094 27.3787C39.6094 26.9578 39.4388 26.655 39.1622 26.4581C38.8856 26.2612 38.5444 26.1815 37.9125 26.1815H35.6766V26.234H35.6644V26.2359ZM37.23 26.9325C37.23 26.7356 37.23 26.6034 37.2825 26.564C37.335 26.5378 37.4531 26.5378 37.6509 26.5378C38.1506 26.5378 38.6897 26.7881 38.6897 27.5109C38.6897 28.1812 38.2425 28.5103 37.5459 28.5103H37.2169V26.9193H37.23V26.9325Z" fill="white"/>
</g>
<defs>
<clipPath id="clip0_336_18">
<rect width="48" height="48" fill="white"/>
</clipPath>
</defs>
</svg>
