<svg width="48" height="48" viewBox="0 0 48 48" fill="none" xmlns="http://www.w3.org/2000/svg">
<path fill-rule="evenodd" clip-rule="evenodd" d="M47.9897 8.82918L45.7362 0.506011C45.6556 0.211004 45.345 0.00100002 44.987 0.00100002L3.01034 0C2.65115 0 2.33938 0.209004 2.25996 0.50401L0.00998022 8.82818C-0.0611465 9.09319 0.261295 9.31019 0.551729 9.19219C2.2564 8.50218 4.13415 8.14017 6.02967 8.14017H19.1371L19.1348 42.5479C19.136 44.2719 18.6262 45.991 17.6743 47.523C17.5392 47.74 17.7229 48 18.0133 48H30.0041C30.2946 48 30.4771 47.74 30.342 47.522C29.3818 45.984 28.8673 44.2559 28.8673 42.5219V8.13817H41.9546C43.8549 8.13817 45.7374 8.50118 47.4491 9.19319C47.7396 9.31119 48.062 9.09419 47.9897 8.82918" fill="#34495E"/>
</svg>
