<svg width="48" height="48" viewBox="0 0 48 48" fill="none" xmlns="http://www.w3.org/2000/svg">
<rect width="48" height="48" rx="12" fill="#34495E"/>
<path d="M12.2927 25.122C12.2927 25.6341 12.2927 26.2927 11.5854 26.7317C11.0732 27.0488 10.2439 27.1219 9.29268 27.1219C8.53659 27.1219 7.70732 27.0976 7.19512 26.7561C6.58537 26.3659 6.56098 25.8293 6.56098 25.2927V19.8293C6.07317 19.3415 5.12195 19 4 19V25.4878C4 26.2927 4.17073 27.2683 5.09756 28C6.21951 28.878 8.02439 28.9756 9.31707 28.9756C10.7561 28.9756 12.439 28.8293 13.5122 28.0976C14.6341 27.3659 14.7805 26.4146 14.7805 25.4634V19C13.6829 19 12.7317 19.3415 12.2927 19.8293V25.122ZM26.7317 19.8293L22.8049 25.7805L18.878 19.8293C18.3659 19.3415 17.2927 19 16.0488 19H15.2683L21.9512 28.9756H23.7073L30.4146 19H29.5854C28.3171 19 27.2439 19.3415 26.7317 19.8293ZM43.878 19C42.7561 19 41.7805 19.3415 41.3415 19.8293L37.4634 24.0976L33.6098 19.8537C33.1707 19.3415 32.1951 19 31.0488 19H30.9268V28.9756H33.3902V22.8049L37.439 27.4146L41.4878 22.8049V29H44V19H43.878Z" fill="white"/>
</svg>
