<svg width="48" height="48" viewBox="0 0 48 48" fill="none" xmlns="http://www.w3.org/2000/svg">
<path d="M24.0022 1.04451e-07C19.2554 -0.000442657 14.615 1.40676 10.668 4.04364C6.72088 6.68052 3.64439 10.4287 1.82754 14.814C0.0106979 19.1994 -0.464901 24.0251 0.460891 28.6808C1.38668 33.3365 3.67228 37.6131 7.02865 40.9698C10.385 44.3264 14.6614 46.6124 19.317 47.5387C23.9726 48.4649 28.7983 47.9897 33.1839 46.1733C37.5694 44.3569 41.3179 41.2807 43.9551 37.3339C46.5924 33.3871 48 28.7468 48 24C48.0003 20.8484 47.3798 17.7276 46.1739 14.8158C44.9681 11.904 43.2004 9.25821 40.972 7.02957C38.7436 4.80094 36.098 3.03307 33.1863 1.82693C30.2746 0.620795 27.1539 9.07384e-08 24.0022 1.04451e-07ZM24.0022 37.0309C20.8622 37.0309 17.7928 36.0997 15.1819 34.3553C12.5711 32.6108 10.5362 30.1313 9.33461 27.2303C8.13299 24.3293 7.81859 21.1371 8.43117 18.0575C9.04375 14.9778 10.5558 12.1489 12.7761 9.92862C14.9964 7.7083 17.8253 6.19625 20.905 5.58367C23.9846 4.97108 27.1768 5.28548 30.0778 6.48711C32.9788 7.68874 35.4583 9.72362 37.2028 12.3344C38.9473 14.9453 39.8784 18.0147 39.8784 21.1547C39.8778 25.3652 38.2049 29.403 35.2277 32.3802C32.2505 35.3574 28.2127 37.0303 24.0022 37.0309Z" fill="#34495E"/>
</svg>
