<svg width="448" height="278" viewBox="0 0 448 278" fill="none" xmlns="http://www.w3.org/2000/svg">
<path opacity="0.09" d="M401.942 205.005C414.363 207.215 426.915 209.883 438.351 218.483C443.871 222.668 449.918 232.197 447.42 241.843C446.5 245.557 444.397 248.003 442.294 249.743C436.773 254.157 430.53 254.393 424.484 254.51C389.85 255.203 355.216 255.903 320.581 256.603C230.874 258.342 141.168 260.089 51.4611 261.946C33.3864 262.292 13.5403 261.599 0 240.561C1.51276 234.754 5.52197 232.779 9.00601 231.497C62.2386 212.558 118.297 235.682 171.133 213.833C164.432 210.119 157.726 206.515 151.025 202.794C163.119 190.016 177.706 187.459 191.771 185.948C218.65 182.927 245.53 182.227 272.409 181.534C283.647 181.181 295.411 180.716 306.254 186.877C314.207 191.409 320.319 195.594 328.928 196.287C353.441 198.151 377.692 200.708 401.942 205.005Z" fill="black"/>
<path d="M243.698 205.093C243.698 191.035 250.078 179.637 257.953 179.637H242.831C234.964 179.637 228.584 191.035 228.584 205.093C228.584 219.15 234.964 230.539 242.831 230.539H257.953C250.078 230.566 243.698 219.177 243.698 205.093Z" fill="#263238"/>
<path d="M257.952 230.573C265.825 230.573 272.208 219.176 272.208 205.117C272.208 191.059 265.825 179.662 257.952 179.662C250.08 179.662 243.697 191.059 243.697 205.117C243.697 219.176 250.08 230.573 257.952 230.573Z" fill="#263238"/>
<path d="M259.094 224.965C264.675 224.965 269.199 216.08 269.199 205.12C269.199 194.16 264.675 185.275 259.094 185.275C253.513 185.275 248.989 194.16 248.989 205.12C248.989 216.08 253.513 224.965 259.094 224.965Z" fill="#040404"/>
<path d="M258.174 222.294C263.515 222.294 267.845 214.604 267.845 205.117C267.845 195.631 263.515 187.941 258.174 187.941C252.833 187.941 248.502 195.631 248.502 205.117C248.502 214.604 252.833 222.294 258.174 222.294Z" fill="#263238"/>
<path d="M256.05 217.656C259.95 217.656 263.111 212.042 263.111 205.118C263.111 198.193 259.95 192.58 256.05 192.58C252.15 192.58 248.989 198.193 248.989 205.118C248.989 212.042 252.15 217.656 256.05 217.656Z" fill="black"/>
<path d="M180.947 205.093C180.947 191.035 187.327 179.637 195.203 179.637H180.08C172.214 179.637 165.834 191.035 165.834 205.093C165.834 219.15 172.214 230.539 180.08 230.539H195.203C187.327 230.566 180.947 219.177 180.947 205.093Z" fill="#0B2532"/>
<path d="M195.203 230.573C203.075 230.573 209.458 219.176 209.458 205.117C209.458 191.059 203.075 179.662 195.203 179.662C187.33 179.662 180.947 191.059 180.947 205.117C180.947 219.176 187.33 230.573 195.203 230.573Z" fill="#263238"/>
<path d="M196.343 224.965C201.924 224.965 206.448 216.08 206.448 205.12C206.448 194.16 201.924 185.275 196.343 185.275C190.762 185.275 186.238 194.16 186.238 205.12C186.238 216.08 190.762 224.965 196.343 224.965Z" fill="#040404"/>
<path d="M195.424 222.294C200.766 222.294 205.096 214.604 205.096 205.117C205.096 195.631 200.766 187.941 195.424 187.941C190.083 187.941 185.753 195.631 185.753 205.117C185.753 214.604 190.083 222.294 195.424 222.294Z" fill="#263238"/>
<path d="M193.299 217.656C197.199 217.656 200.361 212.042 200.361 205.118C200.361 198.193 197.199 192.58 193.299 192.58C189.4 192.58 186.238 198.193 186.238 205.118C186.238 212.042 189.4 217.656 193.299 217.656Z" fill="black"/>
<path d="M325.646 205.093C325.646 191.035 332.026 179.637 339.901 179.637H324.779C316.913 179.637 310.533 191.035 310.533 205.093C310.533 219.15 316.913 230.539 324.779 230.539H339.901C332.026 230.566 325.646 219.177 325.646 205.093Z" fill="#0B2532"/>
<path d="M339.901 230.573C347.774 230.573 354.157 219.176 354.157 205.117C354.157 191.059 347.774 179.662 339.901 179.662C332.029 179.662 325.646 191.059 325.646 205.117C325.646 219.176 332.029 230.573 339.901 230.573Z" fill="#263238"/>
<path d="M341.043 224.965C346.624 224.965 351.148 216.08 351.148 205.12C351.148 194.16 346.624 185.275 341.043 185.275C335.462 185.275 330.938 194.16 330.938 205.12C330.938 216.08 335.462 224.965 341.043 224.965Z" fill="#040404"/>
<path d="M340.122 222.294C345.463 222.294 349.793 214.604 349.793 205.117C349.793 195.631 345.463 187.941 340.122 187.941C334.78 187.941 330.45 195.631 330.45 205.117C330.45 214.604 334.78 222.294 340.122 222.294Z" fill="#263238"/>
<path d="M337.999 217.656C341.898 217.656 345.06 212.042 345.06 205.118C345.06 198.193 341.898 192.58 337.999 192.58C334.099 192.58 330.938 198.193 330.938 205.118C330.938 212.042 334.099 217.656 337.999 217.656Z" fill="black"/>
<path d="M63.0363 205.093C63.0363 191.035 69.4161 179.637 77.2914 179.637H62.1691C54.3027 179.637 47.9229 191.035 47.9229 205.093C47.9229 219.15 54.3027 230.539 62.1691 230.539H77.2914C69.4161 230.566 63.0363 219.177 63.0363 205.093Z" fill="#0B2532"/>
<path d="M76.2927 230.573C84.1656 230.573 90.5478 219.176 90.5478 205.117C90.5478 191.059 84.1656 179.662 76.2927 179.662C68.4199 179.662 62.0376 191.059 62.0376 205.117C62.0376 219.176 68.4199 230.573 76.2927 230.573Z" fill="#263238"/>
<path d="M77.4337 224.965C83.0146 224.965 87.5388 216.08 87.5388 205.12C87.5388 194.16 83.0146 185.275 77.4337 185.275C71.8528 185.275 67.3286 194.16 67.3286 205.12C67.3286 216.08 71.8528 224.965 77.4337 224.965Z" fill="#040404"/>
<path d="M76.5128 222.294C81.8543 222.294 86.1844 214.604 86.1844 205.117C86.1844 195.631 81.8543 187.941 76.5128 187.941C71.1714 187.941 66.8413 195.631 66.8413 205.117C66.8413 214.604 71.1714 222.294 76.5128 222.294Z" fill="#263238"/>
<path d="M74.3898 217.656C78.2896 217.656 81.451 212.042 81.451 205.118C81.451 198.193 78.2896 192.58 74.3898 192.58C70.49 192.58 67.3286 198.193 67.3286 205.118C67.3286 212.042 70.49 217.656 74.3898 217.656Z" fill="black"/>
<path d="M424 185.234L116.264 185.049V17H424V185.234Z" fill="#43B02A"/>
<path opacity="0.3" d="M424 17H201.078V185.234H424V17Z" fill="#263238"/>
<path opacity="0.2" d="M201.062 17H116.177V188.509H201.062V17Z" fill="white"/>
<path opacity="0.1" d="M116.837 24.7261H423.14" stroke="white" stroke-width="0.615555" stroke-linecap="round" stroke-linejoin="round"/>
<path opacity="0.1" d="M116.837 32.1665H423.14" stroke="white" stroke-width="0.615555" stroke-linecap="round" stroke-linejoin="round"/>
<path opacity="0.1" d="M116.837 39.3186H423.14" stroke="white" stroke-width="0.615555" stroke-linecap="round" stroke-linejoin="round"/>
<path opacity="0.1" d="M116.837 46.4712H423.14" stroke="white" stroke-width="0.615555" stroke-linecap="round" stroke-linejoin="round"/>
<path opacity="0.1" d="M116.837 53.9094H423.14" stroke="white" stroke-width="0.615555" stroke-linecap="round" stroke-linejoin="round"/>
<path opacity="0.1" d="M116.837 61.062H423.14" stroke="white" stroke-width="0.615555" stroke-linecap="round" stroke-linejoin="round"/>
<path opacity="0.1" d="M116.837 68.5007H423.14" stroke="white" stroke-width="0.615555" stroke-linecap="round" stroke-linejoin="round"/>
<path opacity="0.1" d="M116.837 75.6536H423.14" stroke="white" stroke-width="0.615555" stroke-linecap="round" stroke-linejoin="round"/>
<path opacity="0.1" d="M116.837 82.8079H423.14" stroke="white" stroke-width="0.615555" stroke-linecap="round" stroke-linejoin="round"/>
<path opacity="0.1" d="M116.837 90.2456H423.14" stroke="white" stroke-width="0.615555" stroke-linecap="round" stroke-linejoin="round"/>
<path opacity="0.1" d="M116.837 97.3979H423.14" stroke="white" stroke-width="0.615555" stroke-linecap="round" stroke-linejoin="round"/>
<path opacity="0.1" d="M116.837 104.838H423.14" stroke="white" stroke-width="0.615555" stroke-linecap="round" stroke-linejoin="round"/>
<path opacity="0.1" d="M116.837 111.99H423.14" stroke="white" stroke-width="0.615555" stroke-linecap="round" stroke-linejoin="round"/>
<path opacity="0.1" d="M116.837 119.144H423.14" stroke="white" stroke-width="0.615555" stroke-linecap="round" stroke-linejoin="round"/>
<path opacity="0.1" d="M116.837 126.583H423.14" stroke="white" stroke-width="0.615555" stroke-linecap="round" stroke-linejoin="round"/>
<path opacity="0.1" d="M116.837 133.735H423.14" stroke="white" stroke-width="0.615555" stroke-linecap="round" stroke-linejoin="round"/>
<path opacity="0.1" d="M116.837 141.174H423.14" stroke="white" stroke-width="0.615555" stroke-linecap="round" stroke-linejoin="round"/>
<path opacity="0.1" d="M116.837 148.328H423.14" stroke="white" stroke-width="0.615555" stroke-linecap="round" stroke-linejoin="round"/>
<path opacity="0.1" d="M116.837 155.48H423.14" stroke="white" stroke-width="0.615555" stroke-linecap="round" stroke-linejoin="round"/>
<path opacity="0.1" d="M116.837 162.92H423.14" stroke="white" stroke-width="0.615555" stroke-linecap="round" stroke-linejoin="round"/>
<path opacity="0.1" d="M116.837 170.073H423.14" stroke="white" stroke-width="0.615555" stroke-linecap="round" stroke-linejoin="round"/>
<path opacity="0.1" d="M116.837 177.511H423.14" stroke="white" stroke-width="0.615555" stroke-linecap="round" stroke-linejoin="round"/>
<path d="M60.0931 137.28H53.5097C52.2178 137.324 51.156 135.946 51.1294 134.196C51.1118 134.014 51.1118 133.831 51.1294 133.649L52.8992 113.795C53.1204 111.754 54.3857 110.261 55.9077 110.163H62.553C63.836 110.163 64.8979 111.515 64.9244 113.265C64.9244 113.441 64.9244 113.618 64.9244 113.795L63.1547 133.649C62.8892 135.663 61.5796 137.227 60.0931 137.28Z" fill="#263238"/>
<g filter="url(#filter0_d_331_10442)">
<path d="M66.6772 71.7031L53.9795 140.082L192.221 194.157L191.257 59.3951L160.853 58.5115H77.5699C72.5616 58.4673 68.1461 63.8394 66.6772 71.7031Z" fill="#43B02A"/>
</g>
<path d="M169.533 82.702C164.375 82.4723 159.747 86.6958 158.234 92.9956L147.775 136.75H127.644L126.547 194.473H192.761" fill="#43B02A"/>
<g style="mix-blend-mode:hard-light">
<path d="M191.335 59.3459L201.078 59.3459V185.093L192.195 184.95L191.335 59.3459Z" fill="url(#paint0_linear_331_10442)"/>
</g>
<path d="M68.6589 133.076C66.6326 133.076 64.9956 130.478 64.9956 127.279C64.9947 126.722 65.048 126.166 65.1549 125.618L72.7558 85.469C73.3929 82.138 75.3396 79.8584 77.5429 79.8672H150.261C151.048 79.8672 151.694 80.8745 151.694 82.1291C151.696 82.3516 151.675 82.5736 151.632 82.7918C150.04 91.062 144.863 118.461 142.881 128.94C142.421 131.397 140.987 133.076 139.342 133.076H68.6589Z" fill="#263238"/>
<path d="M135.573 150.87C135.571 151.574 135.521 152.277 135.422 152.973L135.042 155.562L134.82 157.091L133.192 168.259L130.538 186.416L129.803 191.461H26.9028V186.416L26.9736 168.259L27.071 157.4V152.982C26.1861 147.151 29.0088 141.496 33.3092 140.321C33.8138 140.183 34.3347 140.115 34.8577 140.117H127.644C132.024 140.082 135.573 144.924 135.573 150.87Z" fill="#43B02A"/>
<path d="M187.876 85.3008V128.339C187.876 130.946 186.54 133.066 184.886 133.075H159.738C158.083 133.075 156.747 130.955 156.747 128.339C156.747 127.913 156.782 127.487 156.853 127.067L164.605 83.0653C164.976 80.9536 166.215 79.5311 167.595 79.6106L184.992 80.5648C186.602 80.662 187.876 82.7561 187.876 85.3008Z" fill="#263238"/>
<path opacity="0.1" d="M111.08 79.8672H97.1874L81.2334 133.076H95.1346L111.08 79.8672Z" fill="white"/>
<path opacity="0.1" d="M121.892 79.8672H115.255L99.3101 133.076H105.938L121.892 79.8672Z" fill="white"/>
<path d="M162.233 168.258V186.416H26.9199L26.9907 168.258H162.233Z" fill="black"/>
<path d="M143.386 168.258H130.874L108.372 181.459V186.416H162.234V168.258H143.386Z" fill="white"/>
<path d="M50.2449 181.459V186.416H26.9199L26.9907 168.258H27.7517L50.2449 181.459Z" fill="white"/>
<path d="M135.227 156.199C135.225 156.367 135.188 156.532 135.118 156.685C135.047 156.837 134.946 156.973 134.82 157.083C134.603 157.284 134.319 157.394 134.023 157.392H27.0703V154.989H134.05C134.254 154.99 134.454 155.042 134.632 155.141C134.81 155.24 134.96 155.382 135.068 155.555C135.179 155.751 135.235 155.974 135.227 156.199Z" fill="white"/>
<path d="M45.9358 154.997V157.4H27.0352L27.044 154.997H45.9358Z" fill="#263238"/>
<path d="M135.227 156.199C135.225 156.367 135.188 156.532 135.118 156.685C135.048 156.837 134.946 156.973 134.82 157.083C134.604 157.284 134.319 157.394 134.024 157.392H108.08V154.989H134.024C134.227 154.99 134.428 155.042 134.606 155.141C134.784 155.24 134.933 155.382 135.041 155.555C135.162 155.748 135.227 155.971 135.227 156.199Z" fill="#263238"/>
<path d="M384.315 189.562V190.039C384.315 191.211 383.849 192.335 383.019 193.163C382.19 193.992 381.064 194.457 379.891 194.457H28.4243C27.2509 194.457 26.1256 193.992 25.2958 193.163C24.4661 192.335 24 191.211 24 190.039V189.562C24 188.391 24.4661 187.267 25.2958 186.438C26.1256 185.61 27.2509 185.145 28.4243 185.145H379.891C381.064 185.145 382.19 185.61 383.019 186.438C383.849 187.267 384.315 188.391 384.315 189.562Z" fill="#263238"/>
<path d="M106.363 188.775H53.9795V191.328H106.363V188.775Z" fill="black"/>
<path d="M40.0431 190.048C40.0431 190.336 39.9577 190.617 39.7976 190.857C39.6376 191.096 39.4101 191.283 39.1438 191.394C38.8775 191.504 38.5844 191.534 38.3015 191.478C38.0185 191.423 37.7583 191.285 37.5538 191.082C37.3493 190.879 37.2095 190.62 37.1522 190.338C37.0949 190.055 37.1225 189.762 37.2317 189.496C37.3408 189.229 37.5266 189.001 37.7655 188.84C38.0044 188.679 38.2858 188.592 38.5742 188.59C38.7667 188.589 38.9575 188.626 39.1357 188.698C39.3138 188.771 39.4758 188.878 39.6123 189.014C39.7488 189.149 39.8572 189.31 39.9311 189.488C40.005 189.665 40.0431 189.856 40.0431 190.048Z" fill="white"/>
<path d="M118.875 190.048C118.875 190.336 118.789 190.618 118.629 190.858C118.469 191.097 118.241 191.284 117.974 191.395C117.707 191.505 117.413 191.534 117.13 191.478C116.847 191.421 116.587 191.283 116.383 191.079C116.179 190.875 116.039 190.615 115.983 190.332C115.927 190.049 115.956 189.756 116.066 189.49C116.177 189.223 116.364 188.996 116.604 188.836C116.844 188.675 117.126 188.59 117.415 188.59C117.607 188.59 117.797 188.628 117.974 188.701C118.151 188.774 118.312 188.881 118.447 189.017C118.583 189.152 118.691 189.313 118.764 189.49C118.837 189.667 118.875 189.856 118.875 190.048Z" fill="white"/>
<path opacity="0.5" d="M384.316 189.562V190.039C384.316 191.211 383.85 192.335 383.02 193.163C382.191 193.992 381.065 194.457 379.892 194.457H201.062V185.145H379.892C381.065 185.145 382.191 185.61 383.02 186.438C383.85 187.267 384.316 188.391 384.316 189.562Z" fill="black"/>
<path d="M392.634 204.52C392.634 190.463 399.013 179.065 406.88 179.065H391.766C383.891 179.065 377.511 190.463 377.511 204.52C377.511 218.578 383.891 229.967 391.766 229.967H406.862C399.013 229.993 392.634 218.604 392.634 204.52Z" fill="black"/>
<path opacity="0.3" d="M192.282 194.476L191.334 59.3473L172.674 58.5125C168.037 58.2827 162.684 63.6637 161.33 69.9016L147.862 140.083H142.615C136.722 140.083 132.687 144.369 132.696 148.919L132.775 194.493H192.282" fill="#263238"/>
<path d="M252.95 98.6248C252.205 97.877 251.439 97.1225 250.7 96.3881C250.34 96.0409 249.981 95.6804 249.629 95.3265C249.215 94.9192 248.795 94.5053 248.375 94.098C247.371 93.1166 246.327 92.095 245.351 91.0668C245.019 90.7196 244.483 90.2456 243.731 90.2456C242.999 90.2456 242.47 90.6863 242.084 91.0668C241.067 92.1017 240.009 93.1366 238.986 94.1314C237.596 95.4934 236.152 96.8955 234.783 98.331C232.492 100.721 231.204 103.726 231.163 106.797C231.156 110.296 232.695 113.614 235.502 116.164C237.576 118.04 240.226 119.175 243.033 119.396H243.067H243.101L244.395 119.429H244.456C247.697 119.329 250.72 118.04 252.971 115.797C254.374 114.395 255.418 112.686 256.014 110.803C257.35 106.51 256.177 101.823 252.95 98.6248ZM246.029 118.147L245.792 118.181C245.704 118.194 245.616 118.214 245.527 118.221C245.46 118.227 245.392 118.234 245.324 118.241C245.256 118.247 245.175 118.254 245.1 118.261C245.073 118.267 245.046 118.267 245.019 118.267C245.005 118.267 244.985 118.274 244.972 118.274C244.789 118.287 244.605 118.301 244.422 118.307L243.778 118.294L243.134 118.281C240.918 118.114 238.796 117.313 237.04 115.971C236.783 115.777 236.532 115.57 236.288 115.35C236.159 115.236 236.037 115.116 235.922 114.996C235.603 114.682 235.305 114.362 235.027 114.028C235.007 114.008 234.993 113.988 234.98 113.968C234.81 113.767 234.654 113.56 234.498 113.347C234.458 113.287 234.424 113.233 234.383 113.18C234.268 113.013 234.159 112.846 234.051 112.672C234.044 112.659 234.037 112.652 234.037 112.639C234.017 112.606 233.997 112.566 233.976 112.532C232.81 109.06 233.78 102.671 243.867 91.4007C243.257 92.2686 227.408 115.116 246.639 118.027C246.449 118.067 246.253 118.107 246.056 118.141L246.029 118.147ZM254.211 112.198C253.323 113.948 251.974 115.43 250.313 116.498C229.889 114.769 243.453 92.3287 243.853 91.414C243.616 92.4355 234.6 113.347 254.225 112.178C254.225 112.185 254.218 112.192 254.211 112.198ZM254.374 111.865C254.347 111.804 254.313 111.744 254.286 111.684C253.682 110.422 252.957 108.927 252.171 107.331C252.069 107.338 251.961 107.344 251.859 107.344C251.547 107.344 251.242 107.338 250.937 107.311C250.781 107.298 250.632 107.284 250.476 107.264C250.32 107.244 250.171 107.231 250.022 107.204L249.568 107.124L249.12 107.017C248.971 106.984 248.822 106.937 248.68 106.897C248.53 106.857 248.381 106.81 248.239 106.757C247.947 106.657 247.67 106.543 247.392 106.416C247.114 106.29 246.843 106.149 246.578 105.996C246.443 105.922 246.314 105.842 246.192 105.749C246.063 105.669 245.941 105.575 245.819 105.482C246.131 105.508 246.422 105.562 246.72 105.609L247.602 105.749C247.886 105.795 248.178 105.842 248.463 105.882C248.747 105.922 249.032 105.962 249.324 106.002C249.893 106.076 250.462 106.143 251.032 106.196C251.235 106.216 251.432 106.236 251.628 106.243C251.154 105.295 250.666 104.327 250.171 103.358C249.92 102.871 249.669 102.384 249.425 101.896L249.127 101.81C248.89 101.736 248.646 101.663 248.415 101.576C247.941 101.409 247.48 101.222 247.026 101.022C246.571 100.821 246.124 100.601 245.69 100.361C245.249 100.12 244.822 99.8599 244.409 99.5662C244.911 99.653 245.399 99.7731 245.873 99.9C246.354 100.027 246.829 100.167 247.297 100.314C247.764 100.461 248.232 100.614 248.693 100.775L248.876 100.835C247.785 98.7116 246.72 96.7086 245.853 95.0995C245.249 93.9845 244.748 93.0565 244.395 92.4022C244.111 91.8747 243.914 91.5142 243.86 91.4007C243.941 91.5142 244.158 91.868 244.483 92.3554C244.89 92.9763 245.473 93.8643 246.165 94.9259C247.236 96.5684 248.564 98.6448 249.94 100.828C250.09 100.554 250.252 100.281 250.415 100.007C250.564 99.7731 250.706 99.5328 250.862 99.3058C251.018 99.0788 251.181 98.8451 251.357 98.6248C251.303 98.9052 251.235 99.1723 251.154 99.4326C251.072 99.693 250.991 99.9668 250.91 100.227C250.761 100.688 250.591 101.135 250.408 101.576C250.659 101.976 250.91 102.384 251.167 102.791C251.723 103.692 252.279 104.587 252.821 105.468C252.903 105.301 252.991 105.141 253.079 104.974C253.364 104.44 253.676 103.919 254.021 103.419C253.947 104.019 253.845 104.614 253.703 105.208C253.608 105.609 253.506 106.009 253.391 106.403C254.028 107.458 254.631 108.466 255.187 109.401C255.011 110.255 254.74 111.077 254.374 111.865Z" fill="white"/>
<path d="M274.697 116.926V108.647H266.82V116.926H260.163V95.2803H266.82V102.938H274.697V95.2803H281.347V116.926H274.697Z" fill="white"/>
<path d="M290.769 116.926V108.326L282.533 95.2803H290.017L294.098 102.578L298.118 95.2803H305.601L297.426 108.326V116.926H290.769Z" fill="white"/>
<path d="M306.781 116.926V95.2803H313.438V111.211H321.776V116.926H306.781Z" fill="white"/>
<path d="M331.097 95.2803H324.44V116.926H331.097V95.2803Z" fill="white"/>
<path d="M341.313 95.2803H334.656V116.926H341.313V95.2803Z" fill="white"/>
<path d="M343.685 106.117C343.685 99.46 348.925 94.9199 355.71 94.9199C362.496 94.9199 367.736 99.46 367.736 106.117C367.736 112.773 362.496 117.313 355.71 117.313C348.918 117.313 343.685 112.773 343.685 106.117ZM360.977 106.117C360.977 103.099 358.903 100.695 355.703 100.695C352.504 100.695 350.43 103.099 350.43 106.117C350.43 109.134 352.504 111.538 355.703 111.538C358.903 111.538 360.977 109.134 360.977 106.117Z" fill="white"/>
<path d="M384.866 116.926L376.759 105.956V116.926H370.109V95.2803H376.962L384.602 105.536V95.2803H391.258V116.926H384.866Z" fill="white"/>
<path d="M73.8573 203.261H97.6394V207.552H73.8573L72.5679 205.55L73.8573 203.261Z" fill="#263238"/>
<rect x="121.421" y="203.261" width="25.7879" height="4.2917" fill="#263238"/>
<rect x="97.6397" y="201.829" width="23.7822" height="6.86671" rx="0.398653" fill="#263238"/>
<path d="M191.192 203.261H214.974V207.552H191.192L189.902 205.55L191.192 203.261Z" fill="#263238"/>
<rect x="238.756" y="203.261" width="25.7879" height="4.2917" fill="#263238"/>
<rect x="214.974" y="201.829" width="23.7822" height="6.86671" rx="0.398653" fill="#263238"/>
<path d="M260.533 203.261H284.315V207.552H260.533L259.244 205.55L260.533 203.261Z" fill="#263238"/>
<rect x="308.097" y="203.261" width="25.7879" height="4.2917" fill="#263238"/>
<rect x="284.315" y="201.829" width="23.7822" height="6.86671" rx="0.398653" fill="#263238"/>
<path d="M338.47 203.261H362.252V207.552H338.47L337.18 205.55L338.47 203.261Z" fill="#263238"/>
<rect x="386.034" y="203.261" width="25.7879" height="4.2917" fill="#263238"/>
<rect x="362.252" y="201.829" width="23.7822" height="6.86671" rx="0.398653" fill="#263238"/>
<g style="mix-blend-mode:hard-light">
<path d="M116.264 53.0522H201.078V59.3467H191.336L183.026 59.047L171.851 58.4475L170.275 58.5974L116.264 58.4475V53.0522Z" fill="url(#paint1_linear_331_10442)"/>
</g>
<path d="M161.207 207.381C161.207 193.324 167.587 181.926 175.462 181.926H160.34C152.473 181.926 146.093 193.324 146.093 207.381C146.093 221.439 152.473 232.828 160.34 232.828H175.462C167.587 232.854 161.207 221.465 161.207 207.381Z" fill="black"/>
<path opacity="0.7" d="M162.207 207.381C162.207 193.324 168.587 181.926 176.462 181.926H161.34C153.473 181.926 147.093 193.324 147.093 207.381C147.093 221.439 153.473 232.828 161.34 232.828H176.462C168.587 232.854 162.207 221.465 162.207 207.381Z" fill="#0B2532"/>
<path d="M175.462 232.863C183.335 232.863 189.717 221.466 189.717 207.408C189.717 193.349 183.335 181.952 175.462 181.952C167.589 181.952 161.207 193.349 161.207 207.408C161.207 221.466 167.589 232.863 175.462 232.863Z" fill="#263238"/>
<path d="M176.603 227.253C182.184 227.253 186.708 218.368 186.708 207.408C186.708 196.448 182.184 187.563 176.603 187.563C171.022 187.563 166.498 196.448 166.498 207.408C166.498 218.368 171.022 227.253 176.603 227.253Z" fill="white"/>
<path d="M175.684 224.586C181.025 224.586 185.355 216.896 185.355 207.409C185.355 197.923 181.025 190.233 175.684 190.233C170.342 190.233 166.012 197.923 166.012 207.409C166.012 216.896 170.342 224.586 175.684 224.586Z" fill="#263238"/>
<path d="M173.559 219.946C177.459 219.946 180.62 214.333 180.62 207.408C180.62 200.484 177.459 194.871 173.559 194.871C169.659 194.871 166.498 200.484 166.498 207.408C166.498 214.333 169.659 219.946 173.559 219.946Z" fill="black"/>
<path d="M233.391 207.667C233.391 193.609 239.771 182.211 247.638 182.211H232.524C224.649 182.211 218.269 193.609 218.269 207.667C218.269 221.725 224.649 233.114 232.524 233.114H247.62C239.771 233.14 233.391 221.751 233.391 207.667Z" fill="#0B2532"/>
<path d="M247.637 233.149C255.51 233.149 261.893 221.753 261.893 207.694C261.893 193.635 255.51 182.238 247.637 182.238C239.765 182.238 233.382 193.635 233.382 207.694C233.382 221.753 239.765 233.149 247.637 233.149Z" fill="#263238"/>
<path d="M248.788 227.537C254.369 227.537 258.893 218.652 258.893 207.692C258.893 196.732 254.369 187.847 248.788 187.847C243.207 187.847 238.683 196.732 238.683 207.692C238.683 218.652 243.207 227.537 248.788 227.537Z" fill="white"/>
<path d="M247.859 224.87C253.2 224.87 257.531 217.18 257.531 207.694C257.531 198.208 253.2 190.517 247.859 190.517C242.518 190.517 238.188 198.208 238.188 207.694C238.188 217.18 242.518 224.87 247.859 224.87Z" fill="#263238"/>
<path d="M245.735 220.231C249.634 220.231 252.796 214.618 252.796 207.693C252.796 200.769 249.634 195.155 245.735 195.155C241.835 195.155 238.673 200.769 238.673 207.693C238.673 214.618 241.835 220.231 245.735 220.231Z" fill="black"/>
<path d="M310.469 207.667C310.469 193.609 316.849 182.211 324.715 182.211H309.602C301.727 182.211 295.347 193.609 295.347 207.667C295.347 221.725 301.727 233.114 309.602 233.114H324.698C316.849 233.14 310.469 221.751 310.469 207.667Z" fill="#0B2532"/>
<path d="M324.715 233.149C332.588 233.149 338.97 221.753 338.97 207.694C338.97 193.635 332.588 182.238 324.715 182.238C316.842 182.238 310.46 193.635 310.46 207.694C310.46 221.753 316.842 233.149 324.715 233.149Z" fill="#263238"/>
<path d="M325.866 227.537C331.447 227.537 335.971 218.652 335.971 207.692C335.971 196.732 331.447 187.847 325.866 187.847C320.285 187.847 315.761 196.732 315.761 207.692C315.761 218.652 320.285 227.537 325.866 227.537Z" fill="white"/>
<path d="M324.937 224.87C330.278 224.87 334.608 217.18 334.608 207.694C334.608 198.208 330.278 190.517 324.937 190.517C319.595 190.517 315.265 198.208 315.265 207.694C315.265 217.18 319.595 224.87 324.937 224.87Z" fill="#263238"/>
<path d="M322.812 220.231C326.712 220.231 329.873 214.618 329.873 207.693C329.873 200.769 326.712 195.155 322.812 195.155C318.912 195.155 315.751 200.769 315.751 207.693C315.751 214.618 318.912 220.231 322.812 220.231Z" fill="black"/>
<path d="M389.416 204.396C389.416 190.339 395.796 178.941 403.662 178.941H388.549C380.674 178.941 374.294 190.339 374.294 204.396C374.294 218.454 380.674 229.843 388.549 229.843H403.645C395.796 229.869 389.416 218.48 389.416 204.396Z" fill="#0B2532"/>
<path d="M403.664 229.879C411.537 229.879 417.919 218.482 417.919 204.423C417.919 190.365 411.537 178.968 403.664 178.968C395.791 178.968 389.409 190.365 389.409 204.423C389.409 218.482 395.791 229.879 403.664 229.879Z" fill="#263238"/>
<path d="M404.813 224.268C410.394 224.268 414.918 215.383 414.918 204.423C414.918 193.463 410.394 184.578 404.813 184.578C399.232 184.578 394.708 193.463 394.708 204.423C394.708 215.383 399.232 224.268 404.813 224.268Z" fill="white"/>
<path d="M403.884 221.6C409.225 221.6 413.555 213.91 413.555 204.424C413.555 194.937 409.225 187.247 403.884 187.247C398.542 187.247 394.212 194.937 394.212 204.424C394.212 213.91 398.542 221.6 403.884 221.6Z" fill="#263238"/>
<path d="M401.761 216.961C405.661 216.961 408.822 211.347 408.822 204.423C408.822 197.498 405.661 191.885 401.761 191.885C397.861 191.885 394.7 197.498 394.7 204.423C394.7 211.347 397.861 216.961 401.761 216.961Z" fill="black"/>
<defs>
<filter id="filter0_d_331_10442" x="53.5808" y="58.5112" width="139.039" height="136.443" filterUnits="userSpaceOnUse" color-interpolation-filters="sRGB">
<feFlood flood-opacity="0" result="BackgroundImageFix"/>
<feColorMatrix in="SourceAlpha" type="matrix" values="0 0 0 0 0 0 0 0 0 0 0 0 0 0 0 0 0 0 127 0" result="hardAlpha"/>
<feOffset dy="0.398653"/>
<feGaussianBlur stdDeviation="0.199327"/>
<feComposite in2="hardAlpha" operator="out"/>
<feColorMatrix type="matrix" values="0 0 0 0 0 0 0 0 0 0 0 0 0 0 0 0 0 0 0.25 0"/>
<feBlend mode="normal" in2="BackgroundImageFix" result="effect1_dropShadow_331_10442"/>
<feBlend mode="normal" in="SourceGraphic" in2="effect1_dropShadow_331_10442" result="shape"/>
</filter>
<linearGradient id="paint0_linear_331_10442" x1="77.8687" y1="122.291" x2="259.244" y2="122.291" gradientUnits="userSpaceOnUse">
<stop stop-color="#263238"/>
<stop offset="1" stop-color="#263238" stop-opacity="0"/>
</linearGradient>
<linearGradient id="paint1_linear_331_10442" x1="136.035" y1="215.278" x2="154.606" y2="-13.6165" gradientUnits="userSpaceOnUse">
<stop stop-color="#263238"/>
<stop offset="1" stop-color="#263238" stop-opacity="0"/>
</linearGradient>
</defs>
</svg>
