<svg width="448" height="278" viewBox="0 0 448 278" fill="none" xmlns="http://www.w3.org/2000/svg">
<mask id="mask0_331_10902" style="mask-type:luminance" maskUnits="userSpaceOnUse" x="221" y="36" width="227" height="118">
<path d="M448 36.1533H221.4V153.665H448V36.1533Z" fill="white"/>
</mask>
<g mask="url(#mask0_331_10902)">
<path d="M302.893 82.5692H276.152C274.267 82.5692 272.739 84.0606 272.739 85.9002V148.406C272.739 150.245 274.267 151.737 276.152 151.737H302.893C304.778 151.737 306.306 150.245 306.306 148.406V85.9002C306.306 84.0606 304.778 82.5692 302.893 82.5692Z" fill="#E0F0F5"/>
<path d="M348.889 61.637H321.533C319.818 61.637 318.428 62.9937 318.428 64.6676V149.616C318.428 151.29 319.818 152.647 321.533 152.647H348.889C350.604 152.647 351.994 151.29 351.994 149.616V64.6676C351.994 62.9937 350.604 61.637 348.889 61.637Z" fill="#E0F0F5"/>
<path d="M393.278 37.0643H366.649C364.733 37.0643 363.18 38.5801 363.18 40.4499V148.351C363.18 150.221 364.733 151.737 366.649 151.737H393.278C395.194 151.737 396.746 150.221 396.746 148.351V40.4499C396.746 38.5801 395.194 37.0643 393.278 37.0643Z" fill="#E0F0F5"/>
<path d="M289.055 140.815C294.977 140.815 299.777 136.129 299.777 130.349C299.777 124.568 294.977 119.883 289.055 119.883C283.133 119.883 278.332 124.568 278.332 130.349C278.332 136.129 283.133 140.815 289.055 140.815Z" fill="#A3CAD3"/>
<path d="M289.988 135.355C295.909 135.355 300.71 130.669 300.71 124.888C300.71 119.108 295.909 114.422 289.988 114.422C284.066 114.422 279.265 119.108 279.265 124.888C279.265 130.669 284.066 135.355 289.988 135.355Z" fill="white"/>
<path d="M289.056 137.175C286.751 137.175 284.497 136.507 282.581 135.257C280.664 134.007 279.17 132.231 278.288 130.152C277.406 128.073 277.175 125.786 277.625 123.579C278.074 121.372 279.184 119.345 280.814 117.754C282.444 116.163 284.521 115.08 286.782 114.641C289.043 114.202 291.386 114.427 293.516 115.288C295.646 116.149 297.466 117.607 298.747 119.478C300.027 121.349 300.711 123.548 300.711 125.798C300.706 128.814 299.476 131.705 297.292 133.837C295.107 135.97 292.145 137.17 289.056 137.175ZM289.056 116.242C287.119 116.242 285.227 116.803 283.617 117.853C282.007 118.903 280.752 120.395 280.011 122.142C279.27 123.888 279.076 125.809 279.454 127.663C279.831 129.516 280.764 131.219 282.133 132.556C283.502 133.892 285.247 134.802 287.146 135.171C289.045 135.54 291.013 135.35 292.802 134.627C294.591 133.904 296.12 132.679 297.196 131.107C298.272 129.536 298.846 127.688 298.846 125.798C298.844 123.265 297.811 120.836 295.976 119.044C294.14 117.252 291.652 116.245 289.056 116.242Z" fill="#183154"/>
<path d="M380.427 79.8395C386.349 79.8395 391.15 75.1537 391.15 69.3734C391.15 63.5931 386.349 58.9072 380.427 58.9072C374.504 58.9072 369.704 63.5931 369.704 69.3734C369.704 75.1537 374.504 79.8395 380.427 79.8395Z" fill="#BDDFE9"/>
<path d="M381.361 75.2882C387.282 75.2882 392.083 70.6024 392.083 64.8221C392.083 59.0418 387.282 54.356 381.361 54.356C375.439 54.356 370.639 59.0418 370.639 64.8221C370.639 70.6024 375.439 75.2882 381.361 75.2882Z" fill="#8FDAFF"/>
<path d="M391.15 65.1865C391.155 67.5242 390.357 69.7959 388.884 71.6391C387.411 73.4825 385.349 74.791 383.025 75.3557C380.701 75.9203 378.25 75.7088 376.064 74.7547C373.878 73.8006 372.082 72.159 370.964 70.0919C372.509 70.9012 374.235 71.3234 375.99 71.3205C377.843 71.3298 379.668 70.8691 381.285 69.9838C382.902 69.0984 384.256 67.8186 385.215 66.2695C386.173 64.7204 386.703 62.9551 386.753 61.1461C386.804 59.3371 386.371 57.5464 385.5 55.9491C387.212 56.8422 388.644 58.1742 389.639 59.8018C390.634 61.4294 391.157 63.291 391.15 65.1865Z" fill="#38609B"/>
<path d="M380.419 76.1981C378.279 76.199 376.18 75.6252 374.352 74.5397C372.524 73.4541 371.037 71.8986 370.053 70.0434C369.071 68.188 368.63 66.1047 368.778 64.0209C368.926 61.9373 369.66 59.9338 370.897 58.2296C372.135 56.5254 373.829 55.1864 375.794 54.359C377.759 53.5314 379.919 53.2476 382.038 53.5383C384.157 53.8289 386.153 54.6831 387.808 56.007C389.463 57.3311 390.713 59.0739 391.421 61.045C392.033 62.7611 392.217 64.5952 391.955 66.3944C391.694 68.1937 390.997 69.9059 389.92 71.3884C388.844 72.871 387.419 74.081 385.767 74.9176C384.114 75.7543 382.281 76.1933 380.419 76.1981ZM380.419 55.2658C378.338 55.2646 376.311 55.9098 374.632 57.1081C372.951 58.3064 371.706 59.9956 371.075 61.9309C370.443 63.8663 370.46 65.9474 371.122 67.873C371.783 69.7986 373.057 71.4686 374.755 72.6411C376.454 73.8136 378.491 74.4279 380.572 74.3949C382.653 74.3619 384.668 73.6835 386.328 72.4576C387.986 71.2319 389.203 69.5224 389.8 67.577C390.398 65.6316 390.345 63.551 389.65 61.6366C388.971 59.7756 387.72 58.1647 386.068 57.0242C384.415 55.8839 382.443 55.2697 380.419 55.2658Z" fill="#183154"/>
<path d="M345.411 80.7476C345.201 80.7443 344.999 80.6722 344.836 80.5427C344.674 80.4132 344.561 80.234 344.515 80.034C344.47 79.834 344.495 79.6251 344.587 79.4407C344.678 79.2564 344.831 79.1076 345.02 79.0183L369.262 67.7605C369.482 67.6764 369.725 67.6765 369.945 67.7609C370.164 67.8452 370.342 68.0075 370.444 68.2152C370.546 68.4228 370.563 68.6603 370.492 68.8799C370.422 69.0995 370.269 69.2849 370.064 69.3986L345.822 80.6566C345.694 80.719 345.554 80.7503 345.411 80.7476Z" fill="#183154"/>
<path d="M272.272 52.9182L280.766 69.7278L294.183 70.738L284.86 77.1086L290.454 101.681L274.137 93.5906L274.128 88.1208L256.888 94.4005L258.519 85.5089L259.685 73.4682L263.769 69.7278L272.272 52.9182Z" fill="#BDDFE9"/>
<path d="M330.64 62.8202H348.673C348.673 63.3512 348.457 63.8604 348.072 64.236C347.688 64.6114 347.166 64.8224 346.622 64.8224H332.701C332.157 64.8224 331.635 64.6114 331.25 64.236C330.866 63.8604 330.65 63.3512 330.65 62.8202H330.64Z" fill="white"/>
<path d="M302.967 152.647H276.216C275.047 152.647 273.925 152.193 273.098 151.386C272.271 150.578 271.806 149.484 271.806 148.342V86.4552C271.806 85.3136 272.271 84.2186 273.098 83.4113C273.925 82.604 275.047 82.1504 276.216 82.1504H302.967C304.136 82.1504 305.258 82.604 306.085 83.4113C306.912 84.2186 307.377 85.3136 307.377 86.4552V148.342C307.377 149.484 306.912 150.578 306.085 151.386C305.258 152.193 304.136 152.647 302.967 152.647ZM276.216 83.9433C275.541 83.9433 274.894 84.2051 274.416 84.671C273.939 85.137 273.671 85.769 273.671 86.4279V148.315C273.667 148.643 273.73 148.969 273.857 149.274C273.983 149.578 274.17 149.855 274.406 150.089C274.643 150.323 274.925 150.508 275.236 150.635C275.546 150.761 275.88 150.826 276.216 150.826H302.967C303.641 150.824 304.287 150.562 304.764 150.096C305.241 149.631 305.51 149 305.512 148.342V86.4552C305.512 85.7963 305.244 85.1643 304.767 84.6983C304.289 84.2324 303.642 83.9706 302.967 83.9706L276.216 83.9433Z" fill="#183154"/>
<path d="M348.076 152.646H321.326C320.156 152.646 319.035 152.193 318.207 151.386C317.381 150.578 316.916 149.483 316.916 148.342V65.6228C316.916 64.4812 317.381 63.3862 318.207 62.5789C319.035 61.7716 320.156 61.318 321.326 61.318H348.076C349.246 61.318 350.368 61.7716 351.195 62.5789C352.022 63.3862 352.487 64.4812 352.487 65.6228V148.342C352.487 149.483 352.022 150.578 351.195 151.386C350.368 152.193 349.246 152.646 348.076 152.646ZM321.326 63.1382C320.651 63.1382 320.003 63.4 319.526 63.8659C319.049 64.3319 318.781 64.9639 318.781 65.6228V148.342C318.781 149.001 319.049 149.633 319.526 150.099C320.003 150.564 320.651 150.826 321.326 150.826H348.076C348.751 150.824 349.397 150.561 349.874 150.096C350.35 149.63 350.619 149 350.622 148.342V65.6228C350.622 64.9639 350.354 64.3319 349.876 63.8659C349.399 63.4 348.752 63.1382 348.076 63.1382H321.326Z" fill="#183154"/>
<path d="M363.449 62.5463C363.202 62.5463 362.966 62.4505 362.79 62.2797C362.616 62.1091 362.517 61.8776 362.517 61.6363V58.1505C362.517 57.9091 362.616 57.6777 362.79 57.507C362.966 57.3363 363.202 57.2405 363.449 57.2405C363.697 57.2405 363.934 57.3363 364.109 57.507C364.283 57.6777 364.382 57.9091 364.382 58.1505V61.6363C364.382 61.8776 364.283 62.1091 364.109 62.2797C363.934 62.4505 363.697 62.5463 363.449 62.5463Z" fill="#183154"/>
<path d="M363.449 66.6341C363.202 66.6341 362.966 66.5382 362.79 66.3676C362.616 66.1969 362.517 65.9654 362.517 65.7241V64.9686C362.517 64.7273 362.616 64.4958 362.79 64.3251C362.966 64.1545 363.202 64.0585 363.449 64.0585C363.697 64.0585 363.934 64.1545 364.109 64.3251C364.283 64.4958 364.382 64.7273 364.382 64.9686V65.7241C364.382 65.9654 364.283 66.1969 364.109 66.3676C363.934 66.5382 363.697 66.6341 363.449 66.6341Z" fill="#183154"/>
<path d="M393.678 152.646H366.928C365.758 152.646 364.637 152.192 363.81 151.385C362.983 150.577 362.517 149.483 362.517 148.341V68.7891C362.517 68.5477 362.616 68.3163 362.79 68.1455C362.966 67.9749 363.202 67.8789 363.449 67.8789C363.697 67.8789 363.934 67.9749 364.109 68.1455C364.283 68.3163 364.382 68.5477 364.382 68.7891V148.341C364.385 148.999 364.654 149.63 365.13 150.095C365.608 150.56 366.254 150.823 366.928 150.825H393.678C394.353 150.825 395.001 150.564 395.479 150.098C395.955 149.632 396.224 149 396.224 148.341V146.402C396.224 146.161 396.321 145.929 396.496 145.759C396.672 145.588 396.909 145.492 397.157 145.492C397.402 145.492 397.64 145.588 397.815 145.759C397.991 145.929 398.088 146.161 398.088 146.402V148.341C398.088 149.483 397.623 150.577 396.796 151.385C395.969 152.192 394.848 152.646 393.678 152.646Z" fill="#183154"/>
<path d="M397.157 125.716C396.909 125.716 396.672 125.62 396.496 125.45C396.321 125.279 396.224 125.047 396.224 124.806V40.4581C396.224 39.7991 395.955 39.1672 395.479 38.7012C395.001 38.2353 394.353 37.9735 393.678 37.9735H366.928C366.254 37.9759 365.608 38.2385 365.13 38.7039C364.654 39.1693 364.385 39.7999 364.382 40.4581V54.8195C364.382 55.0609 364.283 55.2923 364.109 55.4629C363.934 55.6337 363.697 55.7295 363.449 55.7295C363.202 55.7295 362.966 55.6337 362.79 55.4629C362.616 55.2923 362.517 55.0609 362.517 54.8195V40.4581C362.517 39.3164 362.983 38.2215 363.81 37.4142C364.637 36.6069 365.758 36.1533 366.928 36.1533H393.678C394.848 36.1533 395.969 36.6069 396.796 37.4142C397.623 38.2215 398.088 39.3164 398.088 40.4581V124.806C398.088 125.047 397.991 125.279 397.815 125.45C397.64 125.62 397.402 125.716 397.157 125.716Z" fill="#183154"/>
<path d="M377.541 57.8872C377.417 57.9029 377.292 57.8699 377.193 57.7957C377.094 57.7215 377.029 57.612 377.014 57.4913C376.998 57.3707 377.032 57.2486 377.107 57.1522C377.183 57.0558 377.296 56.9927 377.419 56.9772L377.689 56.9134C377.749 56.8985 377.811 56.8956 377.872 56.9046C377.932 56.9136 377.99 56.9344 378.043 56.9658C378.095 56.9973 378.14 57.0387 378.176 57.0875C378.211 57.1363 378.236 57.1916 378.249 57.2501C378.277 57.3672 378.256 57.4902 378.193 57.5926C378.128 57.6949 378.024 57.7682 377.904 57.7962L377.661 57.8599L377.541 57.8872Z" fill="white"/>
<path d="M372.586 64.2396C372.525 64.2372 372.465 64.223 372.41 64.1981C372.354 64.173 372.303 64.1374 372.262 64.0935C372.221 64.0495 372.189 63.9981 372.168 63.9418C372.147 63.8857 372.137 63.8261 372.14 63.7662C372.14 63.5843 372.373 59.3251 376.083 57.4958C376.194 57.4417 376.321 57.4325 376.438 57.47C376.554 57.5075 376.652 57.5887 376.708 57.6959C376.737 57.7489 376.754 57.8069 376.759 57.8666C376.765 57.9264 376.758 57.9864 376.738 58.0433C376.718 58.1003 376.688 58.1528 376.647 58.1979C376.608 58.2429 376.558 58.2796 376.503 58.3057C373.268 59.9075 373.071 63.7662 373.071 63.7662C373.074 63.8291 373.064 63.8917 373.04 63.9504C373.016 64.009 372.981 64.0622 372.935 64.1066C372.89 64.151 372.835 64.1859 372.776 64.2087C372.715 64.2316 372.651 64.2421 372.586 64.2396Z" fill="white"/>
<path d="M334.698 97.8492C340.62 97.8492 345.42 93.1633 345.42 87.383C345.42 81.6027 340.62 76.9169 334.698 76.9169C328.776 76.9169 323.975 81.6027 323.975 87.383C323.975 93.1633 328.776 97.8492 334.698 97.8492Z" fill="#BDDFE9"/>
<path d="M334.698 93.4987C340.62 93.4987 345.42 88.8128 345.42 83.0326C345.42 77.2523 340.62 72.5664 334.698 72.5664C328.776 72.5664 323.975 77.2523 323.975 83.0326C323.975 88.8128 328.776 93.4987 334.698 93.4987Z" fill="white"/>
<path d="M298.36 121.704C298.154 121.703 297.954 121.636 297.791 121.513C297.693 121.44 297.611 121.348 297.55 121.244C297.488 121.14 297.448 121.025 297.433 120.905C297.417 120.786 297.426 120.665 297.459 120.549C297.491 120.433 297.547 120.324 297.623 120.229L324.215 86.7924C324.371 86.6181 324.59 86.5086 324.826 86.4862C325.062 86.4637 325.298 86.5301 325.486 86.6716C325.674 86.8132 325.8 87.0194 325.837 87.2481C325.875 87.4769 325.821 87.711 325.688 87.9027L299.096 121.385C299.006 121.489 298.893 121.571 298.765 121.626C298.638 121.681 298.499 121.708 298.36 121.704Z" fill="#183154"/>
<path d="M339.899 74.0957C340.93 76.0626 341.296 78.2983 340.944 80.4812C340.592 82.664 339.54 84.6817 337.94 86.2443C336.339 87.8068 334.272 88.8337 332.035 89.1774C329.799 89.5209 327.508 89.1636 325.493 88.1567C326.258 89.6336 327.37 90.9126 328.739 91.8887C330.108 92.8648 331.694 93.5101 333.368 93.7719C335.042 94.0336 336.756 93.904 338.369 93.3941C339.981 92.8841 341.447 92.0081 342.646 90.8381C343.845 89.6681 344.742 88.2373 345.265 86.663C345.787 85.0889 345.92 83.4162 345.652 81.7823C345.383 80.1484 344.722 78.5999 343.722 77.2637C342.722 75.9275 341.412 74.8419 339.899 74.0957Z" fill="#BDDFE9"/>
<path d="M271.338 44.7271L279.832 61.5366L298.843 64.2304L285.091 77.3177L288.335 95.7927L271.338 87.0739L254.34 95.7927L257.585 77.3177L243.832 64.2304L262.834 61.5366L271.338 44.7271Z" fill="#8FDAFF"/>
<path d="M285.093 77.6906L288.338 96.2202L271.34 87.4468L254.343 96.2202L256.068 86.3821C262.584 85.4694 268.859 83.3371 274.548 80.1023C281.635 76.0581 287.624 70.412 292.011 63.6387L298.846 64.6126L285.093 77.6906Z" fill="#38609B"/>
<path d="M275.824 55.2647C275.65 55.2658 275.479 55.2196 275.331 55.1312C275.182 55.0427 275.062 54.9156 274.984 54.7641L273.893 52.5889C273.792 52.374 273.781 52.1291 273.861 51.9061C273.942 51.683 274.109 51.4995 274.326 51.3941C274.543 51.2888 274.793 51.2701 275.024 51.3419C275.255 51.4138 275.448 51.5705 275.562 51.7789L276.663 53.9541C276.717 54.0617 276.749 54.1785 276.756 54.2981C276.764 54.4177 276.747 54.5375 276.708 54.6508C276.668 54.7641 276.605 54.8686 276.524 54.9583C276.443 55.048 276.344 55.1212 276.234 55.1736C276.106 55.234 275.966 55.2652 275.824 55.2647Z" fill="#183154"/>
<path d="M289.577 98.2131L271.34 88.8572L253.102 98.2131L256.58 78.3911L241.83 64.3665L262.221 61.4724L271.34 43.4342L273.932 48.5672C274.033 48.7821 274.044 49.027 273.964 49.25C273.883 49.473 273.717 49.6567 273.5 49.762C273.283 49.8673 273.032 49.886 272.801 49.8141C272.571 49.7423 272.377 49.5856 272.263 49.3771L271.33 47.5569L263.461 63.1287L245.839 65.6224L258.585 77.754L255.573 94.8912L271.34 86.8004L287.097 94.8912L284.086 77.754L296.841 65.6224L279.209 63.1287L278.351 61.4269C278.241 61.2108 278.224 60.961 278.303 60.7323C278.381 60.5036 278.55 60.3148 278.771 60.2074C278.881 60.1545 279.001 60.1235 279.123 60.1159C279.246 60.1083 279.369 60.1245 279.485 60.1634C279.601 60.2023 279.708 60.2632 279.8 60.3425C279.892 60.422 279.967 60.5182 280.02 60.626L280.449 61.4633L300.85 64.3665L286.09 78.3911L289.577 98.2131Z" fill="#183154"/>
<path d="M277.764 59.1064C277.592 59.1058 277.423 59.0588 277.277 58.9704C277.13 58.8821 277.011 58.7559 276.934 58.6059L276.589 57.9233C276.533 57.815 276.499 57.6971 276.489 57.5761C276.48 57.4551 276.494 57.3335 276.533 57.2182C276.571 57.1029 276.633 56.996 276.714 56.9039C276.795 56.8116 276.893 56.7359 277.004 56.681C277.115 56.6259 277.236 56.5928 277.36 56.5835C277.483 56.5741 277.608 56.5886 277.726 56.6261C277.844 56.6637 277.954 56.7237 278.048 56.8026C278.143 56.8815 278.22 56.9778 278.277 57.0859L278.622 57.7685C278.732 57.9845 278.749 58.2344 278.67 58.463C278.592 58.6916 278.423 58.8806 278.202 58.988C278.068 59.0621 277.918 59.1028 277.764 59.1064Z" fill="#183154"/>
<g opacity="0.15">
<path opacity="0.15" d="M269.839 75.5257C273.114 75.5257 275.769 72.9342 275.769 69.7374C275.769 66.5407 273.114 63.9492 269.839 63.9492C266.564 63.9492 263.909 66.5407 263.909 69.7374C263.909 72.9342 266.564 75.5257 269.839 75.5257Z" fill="white"/>
<path opacity="0.15" d="M263.014 81.1768C264.652 81.1768 265.979 79.8812 265.979 78.2827C265.979 76.6843 264.652 75.3887 263.014 75.3887C261.377 75.3887 260.049 76.6843 260.049 78.2827C260.049 79.8812 261.377 81.1768 263.014 81.1768Z" fill="white"/>
</g>
<path d="M271.628 57.6771C271.999 57.6771 272.355 57.5334 272.617 57.2773C272.879 57.0213 273.027 56.6741 273.027 56.3121C273.027 55.95 272.879 55.6027 272.617 55.3467C272.355 55.0908 271.999 54.9469 271.628 54.9469C271.257 54.9469 270.901 55.0908 270.639 55.3467C270.377 55.6027 270.23 55.95 270.23 56.3121C270.23 56.6741 270.377 57.0213 270.639 57.2773C270.901 57.5334 271.257 57.6771 271.628 57.6771Z" fill="#FDFEFF"/>
<path d="M267.03 67.0966C267.559 64.9502 268.451 62.9048 269.669 61.0444C270.387 59.9249 268.569 58.8965 267.86 60.0159C266.547 62.0258 265.582 64.2338 265.007 66.5505C264.708 67.8338 266.722 68.3707 267.03 67.0966Z" fill="#FDFEFF"/>
<path d="M334.697 94.3998C332.391 94.4016 330.136 93.7356 328.218 92.4862C326.3 91.2369 324.805 89.4603 323.922 87.3812C323.038 85.3021 322.807 83.0139 323.256 80.8063C323.705 78.5987 324.816 76.5708 326.446 74.9793C328.077 73.3877 330.154 72.3041 332.416 71.8653C334.678 71.4267 337.022 71.6528 339.152 72.515C341.282 73.3771 343.102 74.8366 344.382 76.7088C345.662 78.581 346.344 80.7817 346.343 83.0325C346.335 86.0451 345.106 88.9321 342.923 91.0624C340.741 93.1926 337.783 94.3924 334.697 94.3998ZM334.697 73.4675C332.761 73.4657 330.867 74.0243 329.256 75.0729C327.645 76.1214 326.389 77.6127 325.646 79.3581C324.903 81.1035 324.708 83.0248 325.084 84.8788C325.46 86.7329 326.39 88.4364 327.758 89.7742C329.126 91.1119 330.87 92.0236 332.768 92.3941C334.667 92.7647 336.636 92.5772 338.425 91.8556C340.215 91.134 341.745 89.9106 342.823 88.34C343.9 86.7696 344.476 84.9225 344.478 83.0325C344.478 80.4989 343.448 78.0688 341.614 76.2755C339.78 74.4822 337.293 73.4723 334.697 73.4675Z" fill="#183154"/>
<path d="M397.213 141.971C396.966 141.971 396.728 141.875 396.554 141.704C396.379 141.534 396.28 141.302 396.28 141.061V135.418C396.28 135.177 396.379 134.945 396.554 134.775C396.728 134.604 396.966 134.508 397.213 134.508C397.46 134.508 397.698 134.604 397.872 134.775C398.047 134.945 398.146 135.177 398.146 135.418V141.061C398.146 141.302 398.047 141.534 397.872 141.704C397.698 141.875 397.46 141.971 397.213 141.971Z" fill="#183154"/>
<path d="M397.213 131.978C396.966 131.978 396.728 131.882 396.554 131.711C396.379 131.541 396.28 131.309 396.28 131.068V129.985C396.28 129.744 396.379 129.512 396.554 129.341C396.728 129.171 396.966 129.075 397.213 129.075C397.46 129.075 397.698 129.171 397.872 129.341C398.047 129.512 398.146 129.744 398.146 129.985V131.068C398.146 131.309 398.047 131.541 397.872 131.711C397.698 131.882 397.46 131.978 397.213 131.978Z" fill="#183154"/>
</g>
<g opacity="0.5">
<path fill-rule="evenodd" clip-rule="evenodd" d="M161.797 25.4356C161.797 18.0801 167.909 12.0597 175.375 12.0597V25.4356L166.096 35.1717C163.456 32.7912 161.797 29.2993 161.797 25.4356Z" fill="#F2F2F2"/>
<path fill-rule="evenodd" clip-rule="evenodd" d="M175.013 25.2655H188.725C188.725 28.7132 187.279 31.9436 184.993 34.2911C182.479 36.8585 178.899 38.4724 175.013 38.4724C171.433 38.4724 168.157 37.0797 165.642 34.8781L175.013 25.2655Z" fill="#AFB9C5"/>
<path fill-rule="evenodd" clip-rule="evenodd" d="M189.441 25.7628C189.441 18.5003 183.33 12.5559 175.863 12.5559V25.7628H189.441ZM169.074 12.5559L174.505 24.4421L162.285 19.1594C163.493 16.0782 166.207 13.7313 169.074 12.5559Z" fill="#079BDB"/>
</g>
<path d="M97.4476 13.7806H13.0278C10.4194 13.7806 8.30496 15.8373 8.30496 18.3743V182.599C8.30496 185.136 10.4194 187.193 13.0278 187.193H97.4476C100.056 187.193 102.17 185.136 102.17 182.599V18.3743C102.17 15.8373 100.056 13.7806 97.4476 13.7806Z" fill="#D9D9D9"/>
<path fill-rule="evenodd" clip-rule="evenodd" d="M54.9392 176.284C59.8297 176.284 63.7944 172.427 63.7944 167.67C63.7944 162.914 59.8297 159.057 54.9392 159.057C50.0488 159.057 46.084 162.914 46.084 167.67C46.084 172.427 50.0488 176.284 54.9392 176.284Z" fill="white"/>
<path fill-rule="evenodd" clip-rule="evenodd" d="M47.2647 25.2651C47.917 25.2651 48.4454 24.751 48.4454 24.1167C48.4454 23.4824 47.917 22.9683 47.2647 22.9683C46.6123 22.9683 46.084 23.4824 46.084 24.1167C46.084 24.751 46.6123 25.2651 47.2647 25.2651Z" fill="white"/>
<path d="M62.616 22.9683H52.5801C51.928 22.9683 51.3994 23.4824 51.3994 24.1167C51.3994 24.7509 51.928 25.2651 52.5801 25.2651H62.616C63.2681 25.2651 63.7967 24.7509 63.7967 24.1167C63.7967 23.4824 63.2681 22.9683 62.616 22.9683Z" fill="white"/>
<path d="M91.5413 29.8577H18.9284C17.6243 29.8577 16.567 30.886 16.567 32.1545V58.5683C16.567 59.8368 17.6243 60.8651 18.9284 60.8651H91.5413C92.8455 60.8651 93.9027 59.8368 93.9027 58.5683V32.1545C93.9027 30.886 92.8455 29.8577 91.5413 29.8577Z" fill="white"/>
<mask id="mask1_331_10902" style="mask-type:luminance" maskUnits="userSpaceOnUse" x="39" y="39" width="44" height="13">
<path d="M82.6883 39.1621H39.5928V51.5651H82.6883V39.1621Z" fill="white"/>
</mask>
<g mask="url(#mask1_331_10902)">
<path d="M80.9172 39.1621H41.3639C40.3858 39.1621 39.5928 39.9334 39.5928 40.8847V42.0906C39.5928 43.042 40.3858 43.8132 41.3639 43.8132H80.9172C81.8954 43.8132 82.6883 43.042 82.6883 42.0906V40.8847C82.6883 39.9334 81.8954 39.1621 80.9172 39.1621Z" fill="#BCC4CC"/>
<path d="M66.7488 46.9121H41.3639C40.3857 46.9121 39.5928 47.6834 39.5928 48.6347V49.8406C39.5928 50.792 40.3857 51.5632 41.3639 51.5632H66.7488C67.727 51.5632 68.5199 50.792 68.5199 49.8406V48.6347C68.5199 47.6834 67.727 46.9121 66.7488 46.9121Z" fill="#BCC4CC"/>
</g>
<path fill-rule="evenodd" clip-rule="evenodd" d="M28.9661 52.2519C32.8783 52.2519 36.0502 49.1667 36.0502 45.3614C36.0502 41.5561 32.8783 38.4708 28.9661 38.4708C25.0538 38.4708 21.8819 41.5561 21.8819 45.3614C21.8819 49.1667 25.0538 52.2519 28.9661 52.2519Z" fill="#079BDB"/>
<path d="M91.5414 65.4592H18.9285C17.6243 65.4592 16.5671 66.4876 16.5671 67.7561V87.2793C16.5671 88.5478 17.6243 89.5762 18.9285 89.5762H91.5414C92.8455 89.5762 93.9028 88.5478 93.9028 87.2793V67.7561C93.9028 66.4876 92.8455 65.4592 91.5414 65.4592Z" fill="white"/>
<mask id="mask2_331_10902" style="mask-type:luminance" maskUnits="userSpaceOnUse" x="39" y="72" width="44" height="11">
<path d="M82.6883 72.6956H39.5929V82.3423H82.6883V72.6956Z" fill="white"/>
</mask>
<g mask="url(#mask2_331_10902)">
<path d="M80.9173 72.6956H41.3639C40.3858 72.6956 39.5929 73.4668 39.5929 74.4182V74.5905C39.5929 75.5418 40.3858 76.3131 41.3639 76.3131H80.9173C81.8954 76.3131 82.6883 75.5418 82.6883 74.5905V74.4182C82.6883 73.4668 81.8954 72.6956 80.9173 72.6956Z" fill="#BCC4CC"/>
<path d="M66.7489 78.7241H41.3639C40.3858 78.7241 39.5928 79.4954 39.5928 80.4468V80.619C39.5928 81.5704 40.3858 82.3417 41.3639 82.3417H66.7489C67.727 82.3417 68.5199 81.5704 68.5199 80.619V80.4468C68.5199 79.4954 67.727 78.7241 66.7489 78.7241Z" fill="#BCC4CC"/>
</g>
<path fill-rule="evenodd" clip-rule="evenodd" d="M28.9661 84.4096C32.8783 84.4096 36.0503 81.3244 36.0503 77.5191C36.0503 73.7138 32.8783 70.6285 28.9661 70.6285C25.0538 70.6285 21.8819 73.7138 21.8819 77.5191C21.8819 81.3244 25.0538 84.4096 28.9661 84.4096Z" fill="#079BDB"/>
<path d="M91.5414 94.1709H18.9285C17.6243 94.1709 16.5671 95.1992 16.5671 96.4677V115.991C16.5671 117.259 17.6243 118.288 18.9285 118.288H91.5414C92.8455 118.288 93.9028 117.259 93.9028 115.991V96.4677C93.9028 95.1992 92.8455 94.1709 91.5414 94.1709Z" fill="white"/>
<mask id="mask3_331_10902" style="mask-type:luminance" maskUnits="userSpaceOnUse" x="39" y="101" width="44" height="11">
<path d="M82.6883 101.405H39.5929V111.052H82.6883V101.405Z" fill="white"/>
</mask>
<g mask="url(#mask3_331_10902)">
<path d="M80.9173 101.405H41.3639C40.3858 101.405 39.5929 102.176 39.5929 103.128V103.3C39.5929 104.251 40.3858 105.023 41.3639 105.023H80.9173C81.8954 105.023 82.6883 104.251 82.6883 103.3V103.128C82.6883 102.176 81.8954 101.405 80.9173 101.405Z" fill="#BCC4CC"/>
<path d="M66.7489 107.436H41.3639C40.3858 107.436 39.5928 108.207 39.5928 109.158V109.33C39.5928 110.282 40.3858 111.053 41.3639 111.053H66.7489C67.727 111.053 68.5199 110.282 68.5199 109.33V109.158C68.5199 108.207 67.727 107.436 66.7489 107.436Z" fill="#BCC4CC"/>
</g>
<path fill-rule="evenodd" clip-rule="evenodd" d="M28.9661 113.119C32.8783 113.119 36.0503 110.034 36.0503 106.229C36.0503 102.424 32.8783 99.3384 28.9661 99.3384C25.0538 99.3384 21.8819 102.424 21.8819 106.229C21.8819 110.034 25.0538 113.119 28.9661 113.119Z" fill="#AFB9C5"/>
<path d="M91.5414 122.881H18.9285C17.6243 122.881 16.5671 123.909 16.5671 125.178V144.701C16.5671 145.97 17.6243 146.998 18.9285 146.998H91.5414C92.8455 146.998 93.9028 145.97 93.9028 144.701V125.178C93.9028 123.909 92.8455 122.881 91.5414 122.881Z" fill="white"/>
<mask id="mask4_331_10902" style="mask-type:luminance" maskUnits="userSpaceOnUse" x="39" y="130" width="44" height="10">
<path d="M82.6883 130.116H39.5929V139.762H82.6883V130.116Z" fill="white"/>
</mask>
<g mask="url(#mask4_331_10902)">
<path d="M80.9173 130.116H41.3639C40.3858 130.116 39.5929 130.887 39.5929 131.838V132.011C39.5929 132.962 40.3858 133.733 41.3639 133.733H80.9173C81.8954 133.733 82.6883 132.962 82.6883 132.011V131.838C82.6883 130.887 81.8954 130.116 80.9173 130.116Z" fill="#BCC4CC"/>
<path d="M66.7489 136.145H41.3639C40.3858 136.145 39.5928 136.917 39.5928 137.868V138.04C39.5928 138.992 40.3858 139.763 41.3639 139.763H66.7489C67.727 139.763 68.5199 138.992 68.5199 138.04V137.868C68.5199 136.917 67.727 136.145 66.7489 136.145Z" fill="#BCC4CC"/>
</g>
<path fill-rule="evenodd" clip-rule="evenodd" d="M28.9661 141.83C32.8783 141.83 36.0503 138.745 36.0503 134.939C36.0503 131.134 32.8783 128.049 28.9661 128.049C25.0538 128.049 21.8819 131.134 21.8819 134.939C21.8819 138.745 25.0538 141.83 28.9661 141.83Z" fill="#079BDB"/>
<path d="M136.411 28.7119H51.991C49.3827 28.7119 47.2682 30.7686 47.2682 33.3056V197.53C47.2682 200.067 49.3827 202.124 51.991 202.124H136.411C139.019 202.124 141.134 200.067 141.134 197.53V33.3056C141.134 30.7686 139.019 28.7119 136.411 28.7119Z" fill="#BCC4CC"/>
<path fill-rule="evenodd" clip-rule="evenodd" d="M93.9045 191.212C98.795 191.212 102.76 187.356 102.76 182.599C102.76 177.842 98.795 173.986 93.9045 173.986C89.0141 173.986 85.0493 177.842 85.0493 182.599C85.0493 187.356 89.0141 191.212 93.9045 191.212Z" fill="white"/>
<path fill-rule="evenodd" clip-rule="evenodd" d="M86.23 40.1936C86.8824 40.1936 87.4107 39.6797 87.4107 39.0452C87.4107 38.4106 86.8824 37.8967 86.23 37.8967C85.5777 37.8967 85.0493 38.4106 85.0493 39.0452C85.0493 39.6797 85.5777 40.1936 86.23 40.1936Z" fill="white"/>
<path d="M101.578 37.8967H91.5419C90.8898 37.8967 90.3612 38.4109 90.3612 39.0452C90.3612 39.6794 90.8898 40.1936 91.5419 40.1936H101.578C102.23 40.1936 102.758 39.6794 102.758 39.0452C102.758 38.4109 102.23 37.8967 101.578 37.8967Z" fill="white"/>
<path d="M130.507 44.7893H57.894C56.5899 44.7893 55.5327 45.8176 55.5327 47.0862V73.4999C55.5327 74.7684 56.5899 75.7968 57.894 75.7968H130.507C131.811 75.7968 132.868 74.7684 132.868 73.4999V47.0862C132.868 45.8176 131.811 44.7893 130.507 44.7893Z" fill="white"/>
<mask id="mask5_331_10902" style="mask-type:luminance" maskUnits="userSpaceOnUse" x="60" y="54" width="44" height="13">
<path d="M103.941 54.0907H60.8452V66.4937H103.941V54.0907Z" fill="white"/>
</mask>
<g mask="url(#mask5_331_10902)">
<path d="M102.17 54.0907H62.6162C61.6381 54.0907 60.8452 54.8619 60.8452 55.8133V57.0192C60.8452 57.9706 61.6381 58.7418 62.6162 58.7418H102.17C103.148 58.7418 103.941 57.9706 103.941 57.0192V55.8133C103.941 54.8619 103.148 54.0907 102.17 54.0907Z" fill="#BCC4CC"/>
<path d="M88.0011 61.8441H62.6161C61.638 61.8441 60.8451 62.6154 60.8451 63.5668V64.7726C60.8451 65.724 61.638 66.4952 62.6161 66.4952H88.0011C88.9793 66.4952 89.7722 65.724 89.7722 64.7726V63.5668C89.7722 62.6154 88.9793 61.8441 88.0011 61.8441Z" fill="#BCC4CC"/>
</g>
<path fill-rule="evenodd" clip-rule="evenodd" d="M124.601 64.3106C126.884 64.3106 128.734 62.511 128.734 60.2911C128.734 58.0712 126.884 56.2716 124.601 56.2716C122.319 56.2716 120.469 58.0712 120.469 60.2911C120.469 62.511 122.319 64.3106 124.601 64.3106Z" fill="#BCC4CC"/>
<path fill-rule="evenodd" clip-rule="evenodd" d="M124.605 62.0151C125.583 62.0151 126.376 61.2439 126.376 60.2925C126.376 59.341 125.583 58.5698 124.605 58.5698C123.627 58.5698 122.834 59.341 122.834 60.2925C122.834 61.2439 123.627 62.0151 124.605 62.0151Z" fill="#F2F2F2"/>
<path d="M130.507 80.3888H57.894C56.5899 80.3888 55.5327 81.4171 55.5327 82.6856V102.209C55.5327 103.477 56.5899 104.506 57.894 104.506H130.507C131.811 104.506 132.868 103.477 132.868 102.209V82.6856C132.868 81.4171 131.811 80.3888 130.507 80.3888Z" fill="white"/>
<mask id="mask6_331_10902" style="mask-type:luminance" maskUnits="userSpaceOnUse" x="78" y="87" width="44" height="11">
<path d="M121.651 87.6248H78.556V97.2715H121.651V87.6248Z" fill="white"/>
</mask>
<g mask="url(#mask6_331_10902)">
<path d="M119.88 87.6248H80.327C79.3489 87.6248 78.556 88.396 78.556 89.3474V89.5196C78.556 90.471 79.3489 91.2423 80.327 91.2423H119.88C120.859 91.2423 121.651 90.471 121.651 89.5196V89.3474C121.651 88.396 120.859 87.6248 119.88 87.6248Z" fill="#BCC4CC"/>
<path d="M105.712 93.6544H80.327C79.3489 93.6544 78.556 94.4257 78.556 95.3771V95.5493C78.556 96.5007 79.3489 97.2719 80.327 97.2719H105.712C106.69 97.2719 107.483 96.5007 107.483 95.5493V95.3771C107.483 94.4257 106.69 93.6544 105.712 93.6544Z" fill="#BCC4CC"/>
</g>
<path fill-rule="evenodd" clip-rule="evenodd" d="M67.9293 99.3384C71.8416 99.3384 75.0135 96.2531 75.0135 92.4478C75.0135 88.6425 71.8416 85.5573 67.9293 85.5573C64.0171 85.5573 60.8452 88.6425 60.8452 92.4478C60.8452 96.2531 64.0171 99.3384 67.9293 99.3384Z" fill="#079BDB"/>
<path d="M130.507 109.099H57.894C56.5899 109.099 55.5327 110.128 55.5327 111.396V130.92C55.5327 132.188 56.5899 133.216 57.894 133.216H130.507C131.811 133.216 132.868 132.188 132.868 130.92V111.396C132.868 110.128 131.811 109.099 130.507 109.099Z" fill="white"/>
<mask id="mask7_331_10902" style="mask-type:luminance" maskUnits="userSpaceOnUse" x="60" y="116" width="44" height="10">
<path d="M103.941 116.335H60.8452V125.982H103.941V116.335Z" fill="white"/>
</mask>
<g mask="url(#mask7_331_10902)">
<path d="M102.17 116.335H62.6162C61.6381 116.335 60.8452 117.106 60.8452 118.057V118.23C60.8452 119.181 61.6381 119.952 62.6162 119.952H102.17C103.148 119.952 103.941 119.181 103.941 118.23V118.057C103.941 117.106 103.148 116.335 102.17 116.335Z" fill="#BCC4CC"/>
<path d="M88.0011 122.364H62.6161C61.638 122.364 60.8451 123.135 60.8451 124.087V124.259C60.8451 125.21 61.638 125.982 62.6161 125.982H88.0011C88.9793 125.982 89.7722 125.21 89.7722 124.259V124.087C89.7722 123.135 88.9793 122.364 88.0011 122.364Z" fill="#AFB9C5"/>
</g>
<path fill-rule="evenodd" clip-rule="evenodd" d="M124.601 125.178C126.884 125.178 128.734 123.379 128.734 121.159C128.734 118.939 126.884 117.139 124.601 117.139C122.319 117.139 120.469 118.939 120.469 121.159C120.469 123.379 122.319 125.178 124.601 125.178Z" fill="#BCC4CC"/>
<path fill-rule="evenodd" clip-rule="evenodd" d="M124.605 122.882C125.583 122.882 126.376 122.111 126.376 121.16C126.376 120.208 125.583 119.437 124.605 119.437C123.627 119.437 122.834 120.208 122.834 121.16C122.834 122.111 123.627 122.882 124.605 122.882Z" fill="#F2F2F2"/>
<path d="M130.507 137.811H57.894C56.5899 137.811 55.5327 138.839 55.5327 140.107V159.631C55.5327 160.899 56.5899 161.927 57.894 161.927H130.507C131.811 161.927 132.868 160.899 132.868 159.631V140.107C132.868 138.839 131.811 137.811 130.507 137.811Z" fill="white"/>
<mask id="mask8_331_10902" style="mask-type:luminance" maskUnits="userSpaceOnUse" x="78" y="145" width="44" height="10">
<path d="M121.651 145.047H78.556V154.693H121.651V145.047Z" fill="white"/>
</mask>
<g mask="url(#mask8_331_10902)">
<path d="M119.88 145.047H80.327C79.3489 145.047 78.556 145.818 78.556 146.769V146.941C78.556 147.893 79.3489 148.664 80.327 148.664H119.88C120.859 148.664 121.651 147.893 121.651 146.941V146.769C121.651 145.818 120.859 145.047 119.88 145.047Z" fill="#BCC4CC"/>
<path d="M105.712 151.075H80.327C79.3489 151.075 78.556 151.847 78.556 152.798V152.97C78.556 153.922 79.3489 154.693 80.327 154.693H105.712C106.69 154.693 107.483 153.922 107.483 152.97V152.798C107.483 151.847 106.69 151.075 105.712 151.075Z" fill="#BCC4CC"/>
</g>
<path fill-rule="evenodd" clip-rule="evenodd" d="M67.9293 156.759C71.8416 156.759 75.0135 153.674 75.0135 149.869C75.0135 146.064 71.8416 142.978 67.9293 142.978C64.0171 142.978 60.8452 146.064 60.8452 149.869C60.8452 153.674 64.0171 156.759 67.9293 156.759Z" fill="#079BDB"/>
<path d="M279.277 43.0664H90.956C88.3477 43.0664 86.2332 45.1231 86.2332 47.6601V237.15C86.2332 239.687 88.3477 241.744 90.956 241.744H279.277C281.886 241.744 284 239.687 284 237.15V47.6601C284 45.1231 281.886 43.0664 279.277 43.0664Z" fill="#D9D9D9"/>
<path d="M269.829 67.7574H237.95C235.342 67.7574 233.227 69.8141 233.227 72.3511V109.675C233.227 112.212 235.342 114.269 237.95 114.269H269.829C272.437 114.269 274.552 112.212 274.552 109.675V72.3511C274.552 69.8141 272.437 67.7574 269.829 67.7574Z" fill="#FEFEFE"/>
<path fill-rule="evenodd" clip-rule="evenodd" d="M253.89 94.745C259.107 94.745 263.335 90.632 263.335 85.5576C263.335 80.4833 259.107 76.3702 253.89 76.3702C248.673 76.3702 244.444 80.4833 244.444 85.5576C244.444 90.632 248.673 94.745 253.89 94.745Z" fill="#BCC4CC"/>
<path d="M266.878 97.0417H240.903C239.925 97.0417 239.132 97.813 239.132 98.7644C239.132 99.7158 239.925 100.487 240.903 100.487H266.878C267.857 100.487 268.649 99.7158 268.649 98.7644C268.649 97.813 267.857 97.0417 266.878 97.0417Z" fill="#BCC4CC"/>
<path d="M262.155 102.784H245.625C244.647 102.784 243.854 103.555 243.854 104.507C243.854 105.458 244.647 106.229 245.625 106.229H262.155C263.133 106.229 263.926 105.458 263.926 104.507C263.926 103.555 263.133 102.784 262.155 102.784Z" fill="#BCC4CC"/>
<path d="M86.2332 47.6601C86.2332 45.1232 88.3478 43.0664 90.956 43.0664H279.277C281.885 43.0664 284 45.1232 284 47.6601V58.5701H86.2332V47.6601Z" fill="#079BDB"/>
<path fill-rule="evenodd" clip-rule="evenodd" d="M93.9074 53.4014C95.2115 53.4014 96.2688 52.373 96.2688 51.1046C96.2688 49.8362 95.2115 48.8077 93.9074 48.8077C92.6033 48.8077 91.546 49.8362 91.546 51.1046C91.546 52.373 92.6033 53.4014 93.9074 53.4014Z" fill="#F2F2F2"/>
<path fill-rule="evenodd" clip-rule="evenodd" d="M100.991 53.4014C102.295 53.4014 103.353 52.373 103.353 51.1046C103.353 49.8362 102.295 48.8077 100.991 48.8077C99.6873 48.8077 98.63 49.8362 98.63 51.1046C98.63 52.373 99.6873 53.4014 100.991 53.4014Z" fill="#F2F2F2"/>
<path fill-rule="evenodd" clip-rule="evenodd" d="M108.075 53.4014C109.379 53.4014 110.436 52.373 110.436 51.1046C110.436 49.8362 109.379 48.8077 108.075 48.8077C106.77 48.8077 105.713 49.8362 105.713 51.1046C105.713 52.373 106.77 53.4014 108.075 53.4014Z" fill="#F2F2F2"/>
<path d="M269.829 118.862H237.95C235.342 118.862 233.227 120.919 233.227 123.456V225.666C233.227 228.203 235.342 230.259 237.95 230.259H269.829C272.437 230.259 274.552 228.203 274.552 225.666V123.456C274.552 120.919 272.437 118.862 269.829 118.862Z" fill="#FEFEFE"/>
<path d="M261.565 129.199H246.216C244.911 129.199 243.854 130.227 243.854 131.495V141.831C243.854 143.1 244.911 144.128 246.216 144.128H261.565C262.869 144.128 263.926 143.1 263.926 141.831V131.495C263.926 130.227 262.869 129.199 261.565 129.199Z" fill="#BCC4CC"/>
<path d="M261.565 148.721H246.215C244.911 148.721 243.854 149.749 243.854 151.018V160.779C243.854 162.048 244.911 163.076 246.215 163.076H261.565C262.869 163.076 263.926 162.048 263.926 160.779V151.018C263.926 149.749 262.869 148.721 261.565 148.721Z" fill="#AFB9C5"/>
<path d="M261.565 167.67H246.215C244.911 167.67 243.854 168.699 243.854 169.967V179.729C243.854 180.997 244.911 182.026 246.215 182.026H261.565C262.869 182.026 263.926 180.997 263.926 179.729V169.967C263.926 168.699 262.869 167.67 261.565 167.67Z" fill="#BCC4CC"/>
<path d="M261.565 205.568H246.215C244.911 205.568 243.854 206.596 243.854 207.865V217.626C243.854 218.895 244.911 219.923 246.215 219.923H261.565C262.869 219.923 263.926 218.895 263.926 217.626V207.865C263.926 206.596 262.869 205.568 261.565 205.568Z" fill="#BCC4CC"/>
<path d="M261.565 186.62H246.215C244.911 186.62 243.854 187.648 243.854 188.916V198.678C243.854 199.947 244.911 200.975 246.215 200.975H261.565C262.869 200.975 263.926 199.947 263.926 198.678V188.916C263.926 187.648 262.869 186.62 261.565 186.62Z" fill="#079BDB"/>
<path d="M226.141 68.3312H98.0354C96.7312 68.3312 95.674 69.3595 95.674 70.628V93.0223C95.674 94.2908 96.7312 95.3192 98.0354 95.3192H226.141C227.445 95.3192 228.502 94.2908 228.502 93.0223V70.628C228.502 69.3595 227.445 68.3312 226.141 68.3312Z" fill="#FEFEFE"/>
<mask id="mask9_331_10902" style="mask-type:luminance" maskUnits="userSpaceOnUse" x="100" y="76" width="100" height="12">
<path d="M199.577 76.4291H100.989V87.2243H199.577V76.4291Z" fill="white"/>
</mask>
<g mask="url(#mask9_331_10902)">
<path d="M197.806 76.4291H102.76C101.781 76.4291 100.989 77.2003 100.989 78.1517V78.7546C100.989 79.706 101.781 80.4773 102.76 80.4773H197.806C198.784 80.4773 199.577 79.706 199.577 78.7546V78.1517C199.577 77.2003 198.784 76.4291 197.806 76.4291Z" fill="#BCC4CC"/>
<path d="M165.393 83.1757H102.76C101.782 83.1757 100.989 83.9469 100.989 84.8983V85.5012C100.989 86.4526 101.782 87.2239 102.76 87.2239H165.393C166.371 87.2239 167.164 86.4526 167.164 85.5012V84.8983C167.164 83.9469 166.371 83.1757 165.393 83.1757Z" fill="#BCC4CC"/>
</g>
<path fill-rule="evenodd" clip-rule="evenodd" d="M214.311 85.844C216.593 85.844 218.443 84.0444 218.443 81.8245C218.443 79.6046 216.593 77.8051 214.311 77.8051C212.029 77.8051 210.178 79.6046 210.178 81.8245C210.178 84.0444 212.029 85.844 214.311 85.844Z" fill="#BCC4CC"/>
<path fill-rule="evenodd" clip-rule="evenodd" d="M214.309 83.5479C215.288 83.5479 216.08 82.7768 216.08 81.8253C216.08 80.8738 215.288 80.1027 214.309 80.1027C213.331 80.1027 212.538 80.8738 212.538 81.8253C212.538 82.7768 213.331 83.5479 214.309 83.5479Z" fill="#F2F2F2"/>
<path d="M226.141 99.9126H98.0354C96.7313 99.9126 95.674 100.941 95.674 102.209V120.01C95.674 121.279 96.7313 122.307 98.0354 122.307H226.141C227.445 122.307 228.502 121.279 228.502 120.01V102.209C228.502 100.941 227.445 99.9126 226.141 99.9126Z" fill="#FEFEFE"/>
<mask id="mask10_331_10902" style="mask-type:luminance" maskUnits="userSpaceOnUse" x="100" y="106" width="100" height="10">
<path d="M199.577 106.632H100.989V115.589H199.577V106.632Z" fill="white"/>
</mask>
<g mask="url(#mask10_331_10902)">
<path d="M197.85 106.632H102.715C101.762 106.632 100.989 107.384 100.989 108.311C100.989 109.239 101.762 109.991 102.715 109.991H197.85C198.804 109.991 199.577 109.239 199.577 108.311C199.577 107.384 198.804 106.632 197.85 106.632Z" fill="#BCC4CC"/>
<path d="M165.438 112.23H102.715C101.762 112.23 100.989 112.982 100.989 113.91C100.989 114.837 101.762 115.589 102.715 115.589H165.438C166.391 115.589 167.164 114.837 167.164 113.91C167.164 112.982 166.391 112.23 165.438 112.23Z" fill="#BCC4CC"/>
</g>
<path fill-rule="evenodd" clip-rule="evenodd" d="M214.311 115.13C216.593 115.13 218.443 113.331 218.443 111.111C218.443 108.891 216.593 107.091 214.311 107.091C212.029 107.091 210.178 108.891 210.178 111.111C210.178 113.331 212.029 115.13 214.311 115.13Z" fill="#BCC4CC"/>
<path fill-rule="evenodd" clip-rule="evenodd" d="M214.309 112.833C215.288 112.833 216.08 112.061 216.08 111.11C216.08 110.158 215.288 109.387 214.309 109.387C213.331 109.387 212.538 110.158 212.538 111.11C212.538 112.061 213.331 112.833 214.309 112.833Z" fill="#F2F2F2"/>
<path d="M226.141 126.901H98.0354C96.7313 126.901 95.674 127.93 95.674 129.198V146.999C95.674 148.267 96.7313 149.296 98.0354 149.296H226.141C227.445 149.296 228.502 148.267 228.502 146.999V129.198C228.502 127.93 227.445 126.901 226.141 126.901Z" fill="#FEFEFE"/>
<mask id="mask11_331_10902" style="mask-type:luminance" maskUnits="userSpaceOnUse" x="100" y="133" width="100" height="10">
<path d="M199.577 133.619H100.989V142.577H199.577V133.619Z" fill="white"/>
</mask>
<g mask="url(#mask11_331_10902)">
<path d="M197.85 133.619H102.715C101.762 133.619 100.989 134.371 100.989 135.299C100.989 136.226 101.762 136.978 102.715 136.978H197.85C198.804 136.978 199.577 136.226 199.577 135.299C199.577 134.371 198.804 133.619 197.85 133.619Z" fill="#BCC4CC"/>
<path d="M165.438 139.217H102.715C101.762 139.217 100.989 139.969 100.989 140.897C100.989 141.824 101.762 142.576 102.715 142.576H165.438C166.391 142.576 167.164 141.824 167.164 140.897C167.164 139.969 166.391 139.217 165.438 139.217Z" fill="#BCC4CC"/>
</g>
<path fill-rule="evenodd" clip-rule="evenodd" d="M214.311 142.118C216.593 142.118 218.443 140.318 218.443 138.098C218.443 135.879 216.593 134.079 214.311 134.079C212.029 134.079 210.178 135.879 210.178 138.098C210.178 140.318 212.029 142.118 214.311 142.118Z" fill="#BCC4CC"/>
<path fill-rule="evenodd" clip-rule="evenodd" d="M214.309 139.82C215.288 139.82 216.08 139.049 216.08 138.098C216.08 137.146 215.288 136.375 214.309 136.375C213.331 136.375 212.538 137.146 212.538 138.098C212.538 139.049 213.331 139.82 214.309 139.82Z" fill="#AFB9C5"/>
<path d="M226.141 207.864H98.0354C96.7313 207.864 95.674 208.893 95.674 210.161V227.962C95.674 229.23 96.7313 230.259 98.0354 230.259H226.141C227.445 230.259 228.502 229.23 228.502 227.962V210.161C228.502 208.893 227.445 207.864 226.141 207.864Z" fill="#FEFEFE"/>
<mask id="mask12_331_10902" style="mask-type:luminance" maskUnits="userSpaceOnUse" x="100" y="214" width="100" height="10">
<path d="M199.577 214.583H100.989V223.54H199.577V214.583Z" fill="white"/>
</mask>
<g mask="url(#mask12_331_10902)">
<path d="M197.85 214.583H102.715C101.762 214.583 100.989 215.334 100.989 216.262C100.989 217.19 101.762 217.942 102.715 217.942H197.85C198.804 217.942 199.577 217.19 199.577 216.262C199.577 215.334 198.804 214.583 197.85 214.583Z" fill="#BCC4CC"/>
<path d="M165.438 220.181H102.715C101.762 220.181 100.989 220.933 100.989 221.86C100.989 222.788 101.762 223.54 102.715 223.54H165.438C166.391 223.54 167.164 222.788 167.164 221.86C167.164 220.933 166.391 220.181 165.438 220.181Z" fill="#BCC4CC"/>
</g>
<path fill-rule="evenodd" clip-rule="evenodd" d="M214.311 223.082C216.593 223.082 218.443 221.282 218.443 219.062C218.443 216.842 216.593 215.043 214.311 215.043C212.029 215.043 210.178 216.842 210.178 219.062C210.178 221.282 212.029 223.082 214.311 223.082Z" fill="#BCC4CC"/>
<path fill-rule="evenodd" clip-rule="evenodd" d="M214.309 220.785C215.288 220.785 216.08 220.014 216.08 219.063C216.08 218.111 215.288 217.34 214.309 217.34C213.331 217.34 212.538 218.111 212.538 219.063C212.538 220.014 213.331 220.785 214.309 220.785Z" fill="#F2F2F2"/>
<path d="M226.141 180.877H98.0354C96.7313 180.877 95.674 181.905 95.674 183.174V200.975C95.674 202.243 96.7313 203.271 98.0354 203.271H226.141C227.445 203.271 228.502 202.243 228.502 200.975V183.174C228.502 181.905 227.445 180.877 226.141 180.877Z" fill="#FEFEFE"/>
<mask id="mask13_331_10902" style="mask-type:luminance" maskUnits="userSpaceOnUse" x="100" y="187" width="100" height="10">
<path d="M199.577 187.595H100.989V196.553H199.577V187.595Z" fill="white"/>
</mask>
<g mask="url(#mask13_331_10902)">
<path d="M197.85 187.595H102.715C101.762 187.595 100.989 188.347 100.989 189.275C100.989 190.202 101.762 190.954 102.715 190.954H197.85C198.804 190.954 199.577 190.202 199.577 189.275C199.577 188.347 198.804 187.595 197.85 187.595Z" fill="#BCC4CC"/>
<path d="M165.438 193.194H102.715C101.762 193.194 100.989 193.946 100.989 194.873C100.989 195.801 101.762 196.553 102.715 196.553H165.438C166.391 196.553 167.164 195.801 167.164 194.873C167.164 193.946 166.391 193.194 165.438 193.194Z" fill="#BCC4CC"/>
</g>
<path fill-rule="evenodd" clip-rule="evenodd" d="M214.311 196.093C216.593 196.093 218.443 194.294 218.443 192.074C218.443 189.854 216.593 188.054 214.311 188.054C212.029 188.054 210.178 189.854 210.178 192.074C210.178 194.294 212.029 196.093 214.311 196.093Z" fill="#BCC4CC"/>
<path fill-rule="evenodd" clip-rule="evenodd" d="M214.309 193.796C215.288 193.796 216.08 193.025 216.08 192.074C216.08 191.122 215.288 190.351 214.309 190.351C213.331 190.351 212.538 191.122 212.538 192.074C212.538 193.025 213.331 193.796 214.309 193.796Z" fill="#F2F2F2"/>
<path d="M226.141 153.889H98.0354C96.7313 153.889 95.674 154.917 95.674 156.186V173.986C95.674 175.255 96.7313 176.283 98.0354 176.283H226.141C227.445 176.283 228.502 175.255 228.502 173.986V156.186C228.502 154.917 227.445 153.889 226.141 153.889Z" fill="#FEFEFE"/>
<mask id="mask14_331_10902" style="mask-type:luminance" maskUnits="userSpaceOnUse" x="100" y="160" width="100" height="10">
<path d="M199.577 160.608H100.989V169.566H199.577V160.608Z" fill="white"/>
</mask>
<g mask="url(#mask14_331_10902)">
<path d="M197.85 160.608H102.715C101.762 160.608 100.989 161.36 100.989 162.288C100.989 163.215 101.762 163.967 102.715 163.967H197.85C198.804 163.967 199.577 163.215 199.577 162.288C199.577 161.36 198.804 160.608 197.85 160.608Z" fill="#BCC4CC"/>
<path d="M165.438 166.206H102.715C101.762 166.206 100.989 166.958 100.989 167.886C100.989 168.813 101.762 169.565 102.715 169.565H165.438C166.391 169.565 167.164 168.813 167.164 167.886C167.164 166.958 166.391 166.206 165.438 166.206Z" fill="#BCC4CC"/>
</g>
<path fill-rule="evenodd" clip-rule="evenodd" d="M214.311 169.106C216.593 169.106 218.443 167.306 218.443 165.086C218.443 162.866 216.593 161.067 214.311 161.067C212.029 161.067 210.178 162.866 210.178 165.086C210.178 167.306 212.029 169.106 214.311 169.106Z" fill="#BCC4CC"/>
<path fill-rule="evenodd" clip-rule="evenodd" d="M214.309 166.809C215.288 166.809 216.08 166.038 216.08 165.086C216.08 164.135 215.288 163.363 214.309 163.363C213.331 163.363 212.538 164.135 212.538 165.086C212.538 166.038 213.331 166.809 214.309 166.809Z" fill="#F2F2F2"/>
<path d="M237.362 20.0974C237.362 19.146 236.569 18.3748 235.591 18.3748C234.612 18.3748 233.82 19.146 233.82 20.0974V31.0074C233.82 31.9588 234.612 32.7301 235.591 32.7301C236.569 32.7301 237.362 31.9588 237.362 31.0074V20.0974Z" fill="#BCC4CC"/>
<path d="M245.625 10.9103C245.625 9.95887 244.832 9.18762 243.854 9.18762C242.876 9.18762 242.083 9.95887 242.083 10.9103V31.0077C242.083 31.9591 242.876 32.7303 243.854 32.7303C244.832 32.7303 245.625 31.9591 245.625 31.0077V10.9103Z" fill="#BCC4CC"/>
<path d="M253.89 6.31382C253.89 5.36244 253.097 4.59119 252.119 4.59119C251.141 4.59119 250.348 5.36244 250.348 6.31382V31.005C250.348 31.9564 251.141 32.7276 252.119 32.7276C253.097 32.7276 253.89 31.9564 253.89 31.005V6.31382Z" fill="#BCC4CC"/>
<path d="M262.154 10.9103C262.154 9.95887 261.361 9.18762 260.383 9.18762C259.405 9.18762 258.612 9.95887 258.612 10.9103V31.0077C258.612 31.9591 259.405 32.7303 260.383 32.7303C261.361 32.7303 262.154 31.9591 262.154 31.0077V10.9103Z" fill="#BCC4CC"/>
<path d="M270.42 1.72264C270.42 0.771251 269.627 0 268.649 0C267.671 0 266.878 0.771251 266.878 1.72264V31.0075C266.878 31.9589 267.671 32.7301 268.649 32.7301C269.627 32.7301 270.42 31.9589 270.42 31.0075V1.72264Z" fill="#079BDB"/>
<path fill-rule="evenodd" clip-rule="evenodd" d="M214.956 22.6828C214.084 23.5809 212.848 24.1448 211.473 24.1448C208.831 24.1448 206.69 22.0753 206.69 19.5224C206.69 16.9695 208.831 14.9 211.473 14.9V6.31555C203.958 6.31555 197.806 12.26 197.806 19.5224C197.806 26.7849 203.958 32.7293 211.473 32.7293C215.42 32.7293 218.988 31.1152 221.42 28.5479L214.956 22.6828Z" fill="#F2F2F2"/>
<path fill-rule="evenodd" clip-rule="evenodd" d="M211.384 6.31543V14.8999C214.009 14.8999 216.137 16.9694 216.137 19.5223H224.962C224.962 12.2598 218.851 6.31543 211.384 6.31543Z" fill="#AFB9C5"/>
<path fill-rule="evenodd" clip-rule="evenodd" d="M216.151 19.5248C216.151 20.992 215.44 22.2963 214.337 23.1384L219.766 29.8606C222.926 27.454 224.963 23.7234 224.963 19.5248H216.151Z" fill="#079BDB"/>
<path fill-rule="evenodd" clip-rule="evenodd" d="M0.0406203 32.7217C0.0394086 32.7248 0.0381945 32.7278 0.036377 32.7314C0.0381945 32.7284 0.0406203 32.7163 0.0406203 32.7217Z" fill="#079BDB"/>
<path fill-rule="evenodd" clip-rule="evenodd" d="M0.0404145 32.7283C0.0404145 32.729 0.0397034 32.7304 0.0397034 32.7318C0.0397034 32.7283 0.0461071 32.7176 0.0404145 32.7283Z" fill="#079BDB"/>
<path fill-rule="evenodd" clip-rule="evenodd" d="M0.070765 32.6333C0.0633875 32.6544 0.0538999 32.6744 0.0454684 32.6955C0.0496842 32.6849 0.053901 32.6765 0.0581167 32.666C-0.0514923 32.94 0.0180684 32.7619 0.070765 32.6333Z" fill="#079BDB"/>
<path fill-rule="evenodd" clip-rule="evenodd" d="M0.0479973 32.6984C0.0438415 32.7077 0.0396846 32.7181 0.0355288 32.7275C0.00539925 32.7856 0.0479973 32.6984 0.0479973 32.6984Z" fill="#079BDB"/>
<path fill-rule="evenodd" clip-rule="evenodd" d="M0.0322802 32.73C0.0288092 32.737 0.0484781 32.7034 0.0322802 32.73V32.73Z" fill="#079BDB"/>
<path fill-rule="evenodd" clip-rule="evenodd" d="M0.0404358 32.7312L0.0423845 32.7292C0.0414096 32.7302 0.0414107 32.7312 0.0404358 32.7312Z" fill="#079BDB"/>
<path fill-rule="evenodd" clip-rule="evenodd" d="M281.633 277.909C281.634 277.912 281.635 277.915 281.637 277.919C281.635 277.916 281.633 277.904 281.633 277.909Z" fill="#079BDB"/>
<path fill-rule="evenodd" clip-rule="evenodd" d="M281.636 277.917C281.636 277.917 281.636 277.919 281.636 277.92C281.636 277.917 281.63 277.906 281.636 277.917Z" fill="#079BDB"/>
<path fill-rule="evenodd" clip-rule="evenodd" d="M281.597 277.823C281.605 277.844 281.614 277.864 281.622 277.885C281.618 277.874 281.614 277.866 281.61 277.855C281.719 278.129 281.65 277.951 281.597 277.823Z" fill="#079BDB"/>
<path fill-rule="evenodd" clip-rule="evenodd" d="M281.622 277.888C281.627 277.897 281.631 277.908 281.635 277.917C281.665 277.975 281.622 277.888 281.622 277.888Z" fill="#079BDB"/>
<path fill-rule="evenodd" clip-rule="evenodd" d="M281.636 277.917C281.62 277.89 281.639 277.924 281.636 277.917V277.917Z" fill="#079BDB"/>
<path fill-rule="evenodd" clip-rule="evenodd" d="M281.639 277.92L281.637 277.918C281.638 277.919 281.638 277.92 281.639 277.92Z" fill="#079BDB"/>
</svg>
