<svg width="448" height="281" viewBox="0 0 448 281" fill="none" xmlns="http://www.w3.org/2000/svg">
<path d="M98.7303 213.708V65.7856" stroke="#1B3242" stroke-width="3.86235" stroke-miterlimit="10" stroke-linecap="round" stroke-linejoin="round"/>
<path d="M195.5 179.28H186.662V214.89H195.5V179.28Z" fill="#C3F3F7"/>
<path d="M195.5 179.28H186.662V189.77H195.5V179.28Z" fill="#93C4C6"/>
<path d="M195.5 179.28H186.662V214.89H195.5V179.28Z" stroke="#1B3242" stroke-width="2.75882" stroke-miterlimit="10" stroke-linecap="round" stroke-linejoin="round"/>
<path d="M210.055 83.2163H172.109C165.541 83.2163 159.298 85.8585 154.879 90.5907C145.311 100.844 139.352 115.12 139.352 130.933C139.352 137.164 140.284 143.158 141.987 148.758H240.136C241.839 143.158 242.771 137.164 242.771 130.933C242.771 115.12 236.811 100.844 227.244 90.5907C222.866 85.8585 216.622 83.2163 210.055 83.2163Z" fill="#F9263B"/>
<path d="M210.055 83.2163H172.109C165.541 83.2163 159.298 85.8585 154.879 90.5907C145.311 100.844 139.352 115.12 139.352 130.933C139.352 137.164 140.284 143.158 141.987 148.758H240.136C241.839 143.158 242.771 137.164 242.771 130.933C242.771 115.12 236.811 100.844 227.244 90.5907C222.866 85.8585 216.622 83.2163 210.055 83.2163Z" fill="#EF3946"/>
<path opacity="0.64" d="M227.811 89.4081C223.351 84.6759 216.986 82.0337 210.338 82.0337H171.824C165.176 82.0337 158.811 84.6759 154.351 89.4081C144.622 99.6613 138.581 113.937 138.581 129.751C138.581 135.981 139.513 141.976 141.257 147.575H144.176C142.757 142.646 141.946 137.401 141.946 131.919C141.946 117.131 147.581 103.763 156.662 94.1798C160.838 89.763 166.797 87.2786 173 87.2786H209C215.203 87.2786 221.162 89.763 225.338 94.1798C234.419 103.763 240.054 117.131 240.054 131.919C240.054 137.362 239.284 142.606 237.824 147.575H240.743C242.487 141.976 243.419 135.981 243.419 129.751C243.581 113.937 237.541 99.6613 227.811 89.4081Z" fill="#FCFCFC"/>
<path d="M210.055 83.2163H172.109C165.541 83.2163 159.298 85.8585 154.879 90.5907C145.311 100.844 139.352 115.12 139.352 130.933C139.352 137.164 140.284 143.158 141.987 148.758H240.136C241.839 143.158 242.771 137.164 242.771 130.933C242.771 115.12 236.811 100.844 227.244 90.5907C222.866 85.8585 216.622 83.2163 210.055 83.2163Z" stroke="#1B3242" stroke-width="2.75882" stroke-miterlimit="10" stroke-linecap="round" stroke-linejoin="round"/>
<path d="M123.824 124.15L140.892 117.249C140.892 117.249 148.716 121.271 156.824 129.159C165.297 137.401 165.784 144.105 165.784 144.105L152.892 154.673L123.824 124.15Z" fill="white"/>
<path d="M123.824 124.15L140.892 117.249C140.892 117.249 148.716 121.271 156.824 129.159C165.297 137.401 165.784 144.105 165.784 144.105L152.892 154.673L123.824 124.15Z" fill="#D12845"/>
<path opacity="0.64" d="M127.595 127.818L144.662 120.917C144.662 120.917 151.149 124.269 158.405 130.815C157.919 130.263 157.392 129.711 156.784 129.159C148.676 121.271 140.851 117.249 140.851 117.249L123.784 124.15L152.892 154.673L153.054 154.555L127.595 127.818Z" fill="#FCFCFC"/>
<path d="M123.824 124.15L140.892 117.249C140.892 117.249 148.716 121.271 156.824 129.159C165.297 137.401 165.784 144.105 165.784 144.105L152.892 154.673L123.824 124.15Z" stroke="#1B3242" stroke-width="2.75882" stroke-miterlimit="10" stroke-linecap="round" stroke-linejoin="round"/>
<path d="M258.419 124.15L241.352 117.249C241.352 117.249 233.527 121.271 225.419 129.159C216.946 137.401 216.46 144.105 216.46 144.105L229.352 154.673L258.419 124.15Z" fill="#D12845"/>
<path opacity="0.64" d="M241.352 117.249C241.352 117.249 233.73 121.153 225.744 128.843C231.825 123.874 236.73 121.311 236.73 121.311L253.798 128.212L228.906 154.358L229.311 154.673L258.419 124.15L241.352 117.249Z" fill="#FCFCFC"/>
<path d="M258.419 124.15L241.352 117.249C241.352 117.249 233.527 121.271 225.419 129.159C216.946 137.401 216.46 144.105 216.46 144.105L229.352 154.673L258.419 124.15Z" stroke="#1B3242" stroke-width="2.75882" stroke-miterlimit="10" stroke-linecap="round" stroke-linejoin="round"/>
<path d="M59 218.835H402.08" stroke="#1B3242" stroke-width="2.75882" stroke-miterlimit="10" stroke-linecap="round" stroke-linejoin="round"/>
<path d="M217.473 140.555C209.852 142.053 200.811 142.921 191.081 142.921C181.352 142.921 172.311 142.053 164.689 140.555C159.095 143.788 155.649 148.087 155.649 152.74C155.649 162.836 171.5 171.038 191.041 171.038C210.581 171.038 226.433 162.836 226.433 152.74C226.514 148.087 223.068 143.828 217.473 140.555Z" fill="#FF485E"/>
<path opacity="0.36" d="M191.081 158.853C175.392 158.853 161.973 154.949 156.176 149.388C155.852 150.374 155.689 151.36 155.689 152.385C155.689 162.481 171.541 170.683 191.081 170.683C210.622 170.683 226.473 162.481 226.473 152.385C226.473 151.36 226.311 150.374 225.987 149.388C220.23 154.949 206.771 158.853 191.081 158.853Z" fill="#7BB448"/>
<path d="M217.473 140.555C209.852 142.053 200.811 142.921 191.081 142.921C181.352 142.921 172.311 142.053 164.689 140.555C159.095 143.788 155.649 148.087 155.649 152.74C155.649 162.836 171.5 171.038 191.041 171.038C210.581 171.038 226.433 162.836 226.433 152.74C226.514 148.087 223.068 143.828 217.473 140.555Z" stroke="#303030" stroke-width="2.75882" stroke-miterlimit="10" stroke-linecap="round" stroke-linejoin="round"/>
<path d="M217.473 140.555C209.852 142.053 200.811 142.921 191.081 142.921C181.352 142.921 172.311 142.053 164.689 140.555C159.095 143.788 155.649 148.087 155.649 152.74C155.649 162.836 171.5 171.038 191.041 171.038C210.581 171.038 226.433 162.836 226.433 152.74C226.514 148.087 223.068 143.828 217.473 140.555Z" stroke="#1B3242" stroke-width="2.75882" stroke-miterlimit="10" stroke-linecap="round" stroke-linejoin="round"/>
<path d="M191.081 163.231C166.676 163.231 144.743 148.679 129.419 125.452C128.649 124.269 127.311 123.598 125.892 123.598C122.811 123.598 120.743 126.753 122.081 129.435C137.162 160.194 162.459 180.346 191.081 180.346C219.703 180.346 245 160.194 260.081 129.435C261.419 126.714 259.351 123.598 256.27 123.598C254.851 123.598 253.514 124.308 252.743 125.452C237.46 148.679 215.486 163.231 191.081 163.231Z" fill="#EF3946"/>
<path opacity="0.64" d="M191.081 167.49C216.865 167.49 240.135 150.69 256.716 123.638C256.554 123.638 256.432 123.598 256.27 123.598C254.851 123.598 253.513 124.308 252.743 125.452C237.459 148.679 215.486 163.231 191.081 163.231C166.675 163.231 144.743 148.679 129.418 125.452C128.648 124.269 127.31 123.598 125.891 123.598C125.729 123.598 125.567 123.598 125.445 123.638C142.067 150.69 165.337 167.49 191.081 167.49Z" fill="#FCFCFC"/>
<path opacity="0.29" d="M259.149 124.702C259.108 124.781 259.108 124.859 259.068 124.938C244.189 155.698 219.297 175.849 191.081 175.849C162.865 175.849 137.973 155.698 123.094 124.938C123.054 124.859 123.054 124.781 123.013 124.702C121.757 125.845 121.23 127.738 122.081 129.473C137.162 160.233 162.459 180.384 191.081 180.384C219.703 180.384 245 160.233 260.081 129.473C260.932 127.738 260.446 125.885 259.149 124.702Z" fill="#7BB448"/>
<path d="M191.081 163.231C166.676 163.231 144.743 148.679 129.419 125.452C128.649 124.269 127.311 123.598 125.892 123.598C122.811 123.598 120.743 126.753 122.081 129.435C137.162 160.194 162.459 180.346 191.081 180.346C219.703 180.346 245 160.194 260.081 129.435C261.419 126.714 259.351 123.598 256.27 123.598C254.851 123.598 253.514 124.308 252.743 125.452C237.46 148.679 215.486 163.231 191.081 163.231Z" stroke="#1B3242" stroke-width="2.75882" stroke-miterlimit="10" stroke-linecap="round" stroke-linejoin="round"/>
<path d="M217.311 218.835H164.892C163.717 218.835 162.744 217.889 162.744 216.745C162.744 215.601 163.717 214.654 164.892 214.654H217.352C218.527 214.654 219.5 215.601 219.5 216.745C219.46 217.889 218.527 218.835 217.311 218.835Z" fill="#303030"/>
<path d="M217.311 218.835H164.892C163.717 218.835 162.744 217.889 162.744 216.745C162.744 215.601 163.717 214.654 164.892 214.654H217.352C218.527 214.654 219.5 215.601 219.5 216.745C219.46 217.889 218.527 218.835 217.311 218.835Z" stroke="#1B3242" stroke-width="2.75882" stroke-miterlimit="10" stroke-linecap="round" stroke-linejoin="round"/>
<path d="M129.135 65.7847H68.3648L78.2162 15.7412H119.284L129.135 65.7847Z" fill="#FFC01D"/>
<path d="M118.473 15.7412H114.013L121.432 65.7847H128.324L118.473 15.7412Z" fill="#FFC01D"/>
<path opacity="0.83" d="M78.2162 15.7412L68.3648 65.7847H86.9729L90.9459 15.7412H78.2162Z" fill="#CCCCCC"/>
<path d="M129.135 65.7847H68.3648L78.2162 15.7412H119.284L129.135 65.7847Z" stroke="#1B3242" stroke-width="2.75882" stroke-miterlimit="10" stroke-linecap="round" stroke-linejoin="round"/>
<path d="M120.013 218.834H77.4456C77.4456 213.156 82.1483 208.581 87.9861 208.581H109.473C115.31 208.581 120.013 213.156 120.013 218.834Z" fill="#1AC7CE"/>
<path d="M98.284 208.581H88.0272C82.1894 208.581 77.4867 213.156 77.4867 218.834H87.7435C87.7435 213.156 92.4462 208.581 98.284 208.581Z" fill="#31AFAF"/>
<path d="M120.013 218.834H77.4456C77.4456 213.156 82.1483 208.581 87.9861 208.581H109.473C115.31 208.581 120.013 213.156 120.013 218.834Z" stroke="#303030" stroke-width="2.75882" stroke-miterlimit="10" stroke-linecap="round" stroke-linejoin="round"/>
<path d="M120.013 218.834H77.4456C77.4456 213.156 82.1483 208.581 87.9861 208.581H109.473C115.31 208.581 120.013 213.156 120.013 218.834Z" stroke="#303030" stroke-width="2.75882" stroke-miterlimit="10" stroke-linecap="round" stroke-linejoin="round"/>
<path d="M120.013 218.834H77.4456C77.4456 213.156 82.1483 208.581 87.9861 208.581H109.473C115.31 208.581 120.013 213.156 120.013 218.834Z" stroke="#1B3242" stroke-width="2.75882" stroke-miterlimit="10" stroke-linecap="round" stroke-linejoin="round"/>
<path d="M114.824 65.7856V99.9367" stroke="#1B3242" stroke-width="1.37941" stroke-miterlimit="10" stroke-linecap="round" stroke-linejoin="round"/>
<path d="M115.879 111.569H113.73C112.473 111.569 111.46 110.584 111.46 109.361V102.144C111.46 100.922 112.473 99.936 113.73 99.936H115.879C117.135 99.936 118.149 100.922 118.149 102.144V109.361C118.149 110.584 117.135 111.569 115.879 111.569Z" fill="#1B3242"/>
<path opacity="0.64" d="M189.946 120.364C192.431 120.364 194.446 118.404 194.446 115.986C194.446 113.569 192.431 111.609 189.946 111.609C187.461 111.609 185.446 113.569 185.446 115.986C185.446 118.404 187.461 120.364 189.946 120.364Z" fill="#FCFCFC"/>
<path d="M189.946 120.364C192.431 120.364 194.446 118.404 194.446 115.986C194.446 113.569 192.431 111.609 189.946 111.609C187.461 111.609 185.446 113.569 185.446 115.986C185.446 118.404 187.461 120.364 189.946 120.364Z" stroke="#1B3242" stroke-width="2.20706" stroke-miterlimit="10" stroke-linecap="round" stroke-linejoin="round"/>
<path d="M116.446 104.827C116.122 104.827 115.838 104.551 115.838 104.235V102.303C115.838 101.987 116.122 101.711 116.446 101.711C116.77 101.711 117.054 101.987 117.054 102.303V104.235C117.054 104.551 116.77 104.827 116.446 104.827Z" fill="#F7F7F7"/>
<path d="M291.084 208.064H278.922V217.528H291.084V208.064Z" fill="#1B3242"/>
<path d="M291.084 208.064H278.922V217.528H291.084V208.064Z" stroke="#1B3242" stroke-width="2.75882" stroke-miterlimit="10" stroke-linecap="round" stroke-linejoin="round"/>
<path d="M337.058 208.064H324.895V217.528H337.058V208.064Z" fill="#1B3242"/>
<path d="M337.058 208.064H324.895V217.528H337.058V208.064Z" stroke="#1B3242" stroke-width="2.75882" stroke-miterlimit="10" stroke-linecap="round" stroke-linejoin="round"/>
<path d="M347.315 208.458V3H268.666V208.458H347.315Z" fill="#E8BA8B"/>
<path opacity="0.79" d="M345.53 3.66895H269.841V6.03544H345.53V3.66895Z" fill="#995D45"/>
<path opacity="0.35" d="M347.314 203.529H268.341V208.459H347.314V203.529Z" fill="#995D45"/>
<path d="M340.018 10.0986H275.963V197.022H340.018V10.0986Z" fill="#C3F3F7"/>
<path opacity="0.31" d="M339.612 19.0492V11.6748H283.057H275.557V19.0492V78.9911V86.326V141.614V148.989V198.599H283.057V148.989H339.612V141.614H283.057V86.326H339.612V78.9911H283.057V19.0492H339.612Z" fill="#474747"/>
<path d="M347.315 208.458V3H268.666V208.458H347.315Z" stroke="#1B3242" stroke-width="2.75882" stroke-miterlimit="10" stroke-linecap="round" stroke-linejoin="round"/>
<path d="M340.018 134.713H275.963V197.021H340.018V134.713Z" stroke="#303030" stroke-width="2.75882" stroke-miterlimit="10" stroke-linecap="round" stroke-linejoin="round"/>
<path d="M340.018 72.4062H275.963V134.714H340.018V72.4062Z" stroke="#303030" stroke-width="2.75882" stroke-miterlimit="10" stroke-linecap="round" stroke-linejoin="round"/>
<path d="M340.018 10.0986H275.963V72.4066H340.018V10.0986Z" stroke="#303030" stroke-width="2.75882" stroke-miterlimit="10" stroke-linecap="round" stroke-linejoin="round"/>
<path d="M340.018 10.0986H275.963V197.022H340.018V10.0986Z" stroke="#1B3242" stroke-width="2.75882" stroke-miterlimit="10" stroke-linecap="round" stroke-linejoin="round"/>
<path d="M340.017 26.3843H328.666V70.3548H340.017V26.3843Z" fill="#FF433E"/>
<path d="M340.017 26.3843H328.666V70.3548H340.017V26.3843Z" stroke="#1B3242" stroke-width="2.75882" stroke-miterlimit="10" stroke-linecap="round" stroke-linejoin="round"/>
<path d="M283.192 123.865V134.316H328.395V123.865H283.192Z" fill="#FF433E"/>
<path d="M283.192 123.865V134.316H328.395V123.865H283.192Z" stroke="#1B3242" stroke-width="2.75882" stroke-miterlimit="10" stroke-linecap="round" stroke-linejoin="round"/>
<path d="M289.123 113.394V123.844H334.326V113.394H289.123Z" fill="#6CBC96"/>
<path d="M289.123 113.394V123.844H334.326V113.394H289.123Z" stroke="#1B3242" stroke-width="2.75882" stroke-miterlimit="10" stroke-linecap="round" stroke-linejoin="round"/>
<path d="M283.458 104.748V113.463H328.661V104.748H283.458Z" fill="#FF433E"/>
<path d="M283.458 104.748V113.463H328.661V104.748H283.458Z" stroke="#1B3242" stroke-width="2.75882" stroke-miterlimit="10" stroke-linecap="round" stroke-linejoin="round"/>
<path d="M328.666 37.3076H340.017" stroke="#1B3242" stroke-width="2.75882" stroke-miterlimit="10" stroke-linecap="round" stroke-linejoin="round"/>
<path d="M328.665 29.6182H319.016V70.3549H328.665V29.6182Z" fill="#F4BA7A"/>
<path d="M328.665 29.6182H319.016V70.3549H328.665V29.6182Z" stroke="#1B3242" stroke-width="2.75882" stroke-miterlimit="10" stroke-linecap="round" stroke-linejoin="round"/>
<path d="M319.016 39.7139H328.665" stroke="#1B3242" stroke-width="2.75882" stroke-miterlimit="10" stroke-linecap="round" stroke-linejoin="round"/>
<path d="M328.762 152.487L318.991 149.583L305.783 191.637L315.554 194.54L328.762 152.487Z" fill="#5492A8"/>
<path d="M328.762 152.487L318.991 149.583L305.783 191.637L315.554 194.54L328.762 152.487Z" stroke="#1B3242" stroke-width="2.75882" stroke-miterlimit="10" stroke-linecap="round" stroke-linejoin="round"/>
<path d="M315.733 159.991L325.463 162.87" stroke="#1B3242" stroke-width="2.75882" stroke-miterlimit="10" stroke-linecap="round" stroke-linejoin="round"/>
<path d="M317.323 154.878L309.026 152.412L296.789 191.372L305.087 193.838L317.323 154.878Z" fill="#934D84"/>
<path d="M317.323 154.878L309.026 152.412L296.789 191.372L305.087 193.838L317.323 154.878Z" stroke="#1B3242" stroke-width="2.75882" stroke-miterlimit="10" stroke-linecap="round" stroke-linejoin="round"/>
<path d="M306.004 162.042L314.274 164.527" stroke="#1B3242" stroke-width="2.75882" stroke-miterlimit="10" stroke-linecap="round" stroke-linejoin="round"/>
<path d="M337.492 154.151L329.195 151.685L316.685 191.513L324.983 193.979L337.492 154.151Z" fill="#FF433E"/>
<path d="M337.492 154.151L329.195 151.685L316.685 191.513L324.983 193.979L337.492 154.151Z" stroke="#1B3242" stroke-width="2.75882" stroke-miterlimit="10" stroke-linecap="round" stroke-linejoin="round"/>
<path d="M326.071 161.569L334.382 164.014" stroke="#1B3242" stroke-width="2.75882" stroke-miterlimit="10" stroke-linecap="round" stroke-linejoin="round"/>
<path d="M318.513 36.6467L310.649 32.23L290.926 65.459L298.79 69.8758L318.513 36.6467Z" fill="#18C6CD"/>
<path d="M318.513 36.6467L310.649 32.23L290.926 65.459L298.79 69.8758L318.513 36.6467Z" stroke="#1B3242" stroke-width="2.75882" stroke-miterlimit="10" stroke-linecap="round" stroke-linejoin="round"/>
<path d="M305.801 40.4634L313.666 44.8808" stroke="#1B3242" stroke-width="2.75882" stroke-miterlimit="10" stroke-linecap="round" stroke-linejoin="round"/>
<path d="M301.057 113.458V123.869" stroke="#1B3242" stroke-width="2.75882" stroke-miterlimit="10" stroke-linecap="round" stroke-linejoin="round"/>
<path d="M293.598 104.743V113.38" stroke="#1B3242" stroke-width="2.75882" stroke-miterlimit="10" stroke-linecap="round" stroke-linejoin="round"/>
<path d="M294.774 123.87V134.32" stroke="#1B3242" stroke-width="2.75882" stroke-miterlimit="10" stroke-linecap="round" stroke-linejoin="round"/>
<path d="M340.018 72.2871H275.963V79.1094H340.018V72.2871Z" fill="#E8BA8B"/>
<path d="M340.018 72.2871H275.963V78.1245H340.018V72.2871Z" stroke="#1B3242" stroke-width="2.75882" stroke-miterlimit="10" stroke-linecap="round" stroke-linejoin="round"/>
<path d="M340.018 134.32H275.963V141.142H340.018V134.32Z" fill="#995D45"/>
<path d="M340.018 134.32H275.963V140.236H340.018V134.32Z" stroke="#1B3242" stroke-width="2.75882" stroke-miterlimit="10" stroke-linecap="round" stroke-linejoin="round"/>
<path d="M340.017 137.277H275.557V197.021H340.017V137.277Z" fill="#E8BA8B"/>
<path opacity="0.35" d="M340.017 192.25H275.557V197.022H340.017V192.25Z" fill="#995D45"/>
<path opacity="0.82" d="M340.017 138.775H275.557V141.615H340.017V138.775Z" fill="#995D45"/>
<path d="M340.018 137.277H275.963V197.021H340.018V137.277Z" stroke="#1B3242" stroke-width="2.75882" stroke-miterlimit="10" stroke-linecap="round" stroke-linejoin="round"/>
<path d="M325.585 154.117V180.183" stroke="#1B3242" stroke-width="3.0347" stroke-miterlimit="10" stroke-linecap="round" stroke-linejoin="round"/>
<path opacity="0.09" d="M401.942 226.904C414.363 228.382 426.915 230.165 438.351 235.913C443.871 238.711 449.918 245.08 447.42 251.527C446.5 254.01 444.397 255.645 442.294 256.807C436.773 259.758 430.53 259.915 424.484 259.994C389.85 260.457 355.216 260.925 320.581 261.393C230.874 262.555 141.168 263.722 51.4612 264.964C33.3865 265.195 13.5403 264.732 0 250.67C1.51276 246.789 4.2644 242.2 7.74844 241.343C51.5726 217.045 114.818 232.8 142.289 232.8C135.588 230.317 128.201 225.427 151.025 225.427C163.119 216.886 177.706 223.065 191.771 222.055C218.65 220.036 245.53 219.568 272.409 219.105C283.647 218.869 297.214 219.105 309.416 219.105C317.369 222.134 320.319 220.614 328.928 221.078C353.441 222.324 377.692 224.033 401.942 226.904Z" fill="black"/>
<path d="M363.307 247.454C359.34 247.394 355.353 247.314 351.408 246.794C350.175 246.632 348.695 246.232 348.366 245.051C348.099 244.129 348.736 243.128 349.599 242.646C350.462 242.166 351.49 242.086 352.476 242.045C360.368 241.585 368.28 241.665 376.171 241.745C386.385 241.845 396.62 241.965 406.813 242.787C409.094 242.967 411.868 245.311 409.074 247.073C406.69 248.576 402.271 247.795 399.6 247.815C391.872 247.854 384.166 247.774 376.439 247.674C372.061 247.594 367.684 247.514 363.307 247.454Z" fill="url(#paint0_linear_331_10602)"/>
<path d="M363.307 247.454C359.34 247.394 355.353 247.314 351.408 246.794C350.175 246.632 348.695 246.232 348.366 245.051C348.099 244.129 348.736 243.128 349.599 242.646C350.462 242.166 351.49 242.086 352.476 242.045C360.368 241.585 368.28 241.665 376.171 241.745C386.385 241.845 396.62 241.965 406.813 242.787C409.094 242.967 411.868 245.311 409.074 247.073C406.69 248.576 402.271 247.795 399.6 247.815C391.872 247.854 384.166 247.774 376.439 247.674C372.061 247.594 367.684 247.514 363.307 247.454Z" fill="url(#paint1_linear_331_10602)"/>
<path d="M397.324 151.301C395.495 146.253 393.666 135.697 391.262 130.87C389.33 126.983 386.33 136.899 383.843 133.313C382.014 130.649 379.897 128.125 377.205 126.282C374.513 124.439 371.183 123.357 367.916 123.818C363.169 124.479 359.408 128.325 357.599 132.652C355.77 136.979 353.386 135.898 353.201 140.565C352.05 168.849 353.777 203.544 361.977 230.687C362.716 233.111 363.58 235.635 365.45 237.397C367.32 239.16 370.505 239.841 372.519 238.239C368.594 213.439 367.381 196.373 372.088 171.714C372.642 168.769 372.745 163.741 373.896 163.161C374.821 162.7 376.896 162.78 378.13 163.2C383.699 187.258 388.302 207.189 393.872 231.229C394.303 233.051 394.94 235.154 396.728 235.836C403.161 238.279 402.77 231.729 402.996 227.823C403.304 222.174 403.551 216.525 403.654 210.856C403.839 199.638 403.407 188.341 401.434 177.262C400.427 171.173 399.441 157.091 397.324 151.301Z" fill="#A58C41"/>
<path d="M342.439 18.8377C342.583 18.0765 342.603 17.2952 342.5 16.514C342.398 15.7528 342.028 14.8714 341.267 14.7512C340.528 14.631 339.973 15.3722 339.644 16.0332C338.164 19.098 337.959 22.6437 337.774 26.069C338.945 26.3897 340.178 26.5299 341.391 26.4697C341.288 25.0275 341.555 23.5852 342.13 22.3031C342.747 20.9209 343.775 19.5989 343.569 18.0765C343.364 18.0765 343.158 18.0564 342.973 18.0564C342.788 18.3168 342.624 18.5773 342.439 18.8377Z" fill="#E8DBCE"/>
<path d="M358.776 78.735C362.167 80.3977 365.845 80.8585 367.017 76.3913C369.051 68.6391 362.331 61.9887 355.652 59.1842C354.398 58.6634 353.124 58.2427 351.871 57.7218C348.336 56.2395 345.171 53.9959 342.623 51.1916C339.478 47.7261 339.191 45.843 339.684 41.4561C339.807 40.2943 342.212 25.9516 341.677 25.8114C340.157 25.4107 338.656 25.0301 337.136 24.6295C337.012 24.5895 332.82 40.3544 332.265 41.7567C330.395 46.5042 330.498 50.6907 333.251 55.318C335.574 59.2042 339.026 62.3092 342.438 65.3339C346.178 68.6392 349.918 71.9643 353.638 75.2697C354.871 76.3313 356.782 77.7536 358.776 78.735Z" fill="#1F375A"/>
<path d="M372.245 238.759C369.697 238.559 367.149 238.659 364.621 239.079C362.689 240.482 360.552 241.644 358.312 242.526C357.654 242.786 356.976 243.026 356.504 243.527C356.031 244.027 355.825 244.869 356.277 245.39C356.668 245.85 357.367 245.891 357.983 245.911C362.689 245.95 367.375 245.569 371.999 244.749C372.266 244.708 372.574 244.648 372.78 244.448C372.944 244.288 373.006 244.068 373.068 243.867C373.52 242.145 373.232 240.242 372.245 238.759Z" fill="#736357"/>
<path d="M393.229 238.519C395.778 238.46 398.326 238.72 400.813 239.28C402.662 240.803 404.717 242.085 406.896 243.106C407.533 243.406 408.19 243.687 408.643 244.208C409.095 244.729 409.239 245.59 408.745 246.092C408.334 246.532 407.636 246.532 407.019 246.512C402.333 246.291 397.668 245.631 393.106 244.529C392.839 244.468 392.551 244.388 392.346 244.189C392.202 244.027 392.14 243.808 392.099 243.588C391.729 241.825 392.14 239.941 393.229 238.519Z" fill="#736357"/>
<path d="M377.961 60.5434C375.844 60.5233 373.912 59.3215 372.433 57.8391C366.966 52.3104 367.11 43.6566 367.665 35.9845C367.726 35.1632 367.788 34.3219 368.261 33.6408C368.98 32.5991 370.418 32.3387 371.693 32.1985C377.159 32.1985 382.544 32.4388 388.051 32.6992C388.524 32.7193 389.017 32.7594 389.366 33.0398C389.757 33.3404 389.901 33.8411 389.983 34.3218C390.373 36.5254 389.634 38.829 389.675 41.0926C389.716 43.3962 389.613 45.72 389.202 48.0036C388.401 52.4306 386.304 56.557 382.359 59.081C381.043 59.9224 379.523 60.5633 377.961 60.5434Z" fill="#F0E5D4"/>
<path d="M374.143 59.7181C375.499 61.0202 377.575 61.501 379.445 61.1204C381.315 60.7398 382.877 59.1774 384.007 57.695C382.528 57.8353 380.719 59.1173 379.281 59.5179C376.65 60.2391 374.102 59.5979 373.095 57.4146C372.746 58.2159 373.506 59.0972 374.143 59.7181Z" fill="#333333"/>
<path d="M368.57 27.3274C365.241 29.8313 365.097 34.5989 365.426 38.7054C365.57 40.4881 365.94 42.5715 367.584 43.3727C367.501 41.5498 368.734 39.9474 369.885 38.5251C370.687 37.5436 371.509 36.5419 372.66 35.961C376.112 34.2382 379.853 36.9826 383.326 37.203C385.627 37.3632 386.449 36.3416 387.271 38.8657C387.929 40.9289 388.155 43.2125 388.176 45.3559C388.176 45.6363 388.176 45.9168 388.32 46.1571C388.463 46.3976 388.813 46.5177 389.039 46.3374C389.121 46.2573 389.183 46.1571 389.224 46.0369C390.436 43.1724 392.697 40.0876 393.128 37.0427C393.663 33.2968 393.149 29.3306 391.793 25.785C391.526 25.0838 391.053 24.3026 390.292 24.3226C389.758 24.3426 389.347 24.7833 388.915 25.1039C387.929 25.865 386.593 26.0453 385.34 25.9452C384.086 25.845 382.874 25.5044 381.641 25.3042C379.236 24.9436 377.037 25.4845 374.674 25.5846C372.578 25.7049 370.338 26.0053 368.57 27.3274Z" fill="#EFAB50"/>
<path d="M372.023 62.3432C368.714 58.9179 365.59 62.7439 364.378 66.0692C359.425 79.5103 357.781 93.8932 356.178 108.116C355.911 110.399 355.664 112.683 355.397 114.946C354.472 123.159 353.527 131.352 352.602 139.565C352.54 140.046 362.179 142.049 363.001 142.25C368.036 143.472 373.276 143.511 378.414 143.191C384.846 142.77 391.258 141.789 397.711 141.809C400.465 141.809 403.26 142.01 405.932 141.329C404.884 136.56 404.801 131.632 404.596 126.765C404.103 114.987 402.849 103.268 401.595 91.5694C400.897 84.9991 400.506 78.2684 399.581 71.7581C399.088 68.1925 397.424 61.9627 393.766 60.4201C389.881 58.7776 387.97 63.1645 384.826 64.3064C381.209 65.6285 376.79 65.8488 373.502 63.6252C372.865 63.2046 372.434 62.764 372.023 62.3432Z" fill="#1F375A"/>
<path d="M353.049 136.86C352.905 136.839 352.844 136.759 352.926 136.599C353.481 135.638 354.344 133.895 355.248 131.832C355.926 121.616 356.974 111.36 358.803 101.304C361.064 88.8841 365.934 77.3657 368.832 65.1665C369.695 61.5808 374.093 61.9013 375.717 64.4053C375.84 64.4254 375.963 64.4654 376.107 64.4854C377.505 63.2835 379.21 62.2819 381.306 61.5608C383.649 60.7395 386.074 62.8629 386.074 65.0864C386.074 67.4702 386.115 69.8539 386.177 72.2377C390.246 91.6684 392.692 111.42 393.452 131.231C393.452 131.251 393.452 131.272 393.452 131.291C393.678 132.313 393.904 133.335 394.151 134.336C394.665 135.878 395.199 137.621 395.281 138.984C395.322 139.123 395.343 139.244 395.384 139.384C395.816 141.127 394.808 142.629 393.144 143.21C380.402 147.758 366.798 147.016 354.59 141.347C354.426 141.266 354.262 141.186 354.138 141.086C354.035 141.047 353.933 141.006 353.809 140.946C353.624 140.807 353.439 140.666 353.234 140.526C352.802 140.105 352.535 139.544 352.453 138.963C352.35 138.262 352.556 137.44 353.049 136.86Z" fill="#F0F0F0"/>
<path d="M363.899 82.0654H383.731C384.042 82.0654 384.341 82.1861 384.562 82.401C384.782 82.6158 384.906 82.9072 384.906 83.211C384.906 83.5148 384.782 83.8062 384.562 84.0211C384.341 84.2359 384.042 84.3566 383.731 84.3566H376.336C376.129 84.3568 375.93 84.4371 375.784 84.5798C375.638 84.7225 375.555 84.9159 375.555 85.1177V87.085H376.158V87.4738H376.416V87.8862H376.158V88.2514H376.416V88.6638H376.158V89.029H376.416V89.4415H376.158V89.7665H374.591V89.4416H374.333V89.0291H374.591V88.6639H374.333V88.2515H374.591V87.8863H374.333V87.4738H374.591V87.085H375.161V85.1177C375.161 84.814 375.285 84.5228 375.505 84.3081C375.726 84.0933 376.024 83.9725 376.336 83.9722H383.731C383.938 83.9722 384.136 83.892 384.283 83.7492C384.429 83.6065 384.511 83.4129 384.511 83.211C384.511 83.0091 384.429 82.8155 384.283 82.6728C384.136 82.53 383.938 82.4499 383.731 82.4499H363.794L363.899 82.0654Z" fill="#05456B"/>
<path d="M362.046 97.1762C363.996 93.6178 369.695 92.023 374.862 92.0229C380.028 92.0229 385.728 93.6178 387.678 97.1762C389.498 100.497 387.293 105.155 384.517 106.834C382.767 107.892 381.387 107.436 380.622 105.632C379.956 104.06 377.352 103.189 374.862 103.189C372.372 103.189 369.768 104.06 369.101 105.632C368.336 107.436 366.956 107.892 365.207 106.834C362.431 105.155 360.226 100.497 362.046 97.1762Z" fill="#05456B"/>
<path d="M362.045 94.5832C363.996 91.0247 369.695 89.43 374.862 89.4299C380.028 89.43 385.728 91.0247 387.678 94.5832C389.498 97.9041 387.293 102.562 384.517 104.241C382.767 105.299 381.387 104.843 380.622 103.039C379.956 101.467 377.352 100.596 374.862 100.596C372.372 100.596 369.768 101.467 369.101 103.039C368.336 104.843 366.956 105.299 365.207 104.241C362.431 102.562 360.226 97.9041 362.045 94.5832Z" fill="#EF4923"/>
<path d="M362.045 94.5832C363.996 91.0247 369.695 89.43 374.862 89.4299C380.028 89.43 385.728 91.0247 387.678 94.5832C389.498 97.9041 387.293 102.562 384.517 104.241C382.767 105.299 381.387 104.843 380.622 103.039C379.956 101.467 377.352 100.596 374.862 100.596C372.372 100.596 369.768 101.467 369.101 103.039C368.336 104.843 366.956 105.299 365.207 104.241C362.431 102.562 360.226 97.9041 362.045 94.5832Z" fill="#EF4923"/>
<path d="M362.045 94.5832C363.996 91.0247 369.695 89.43 374.862 89.4299C380.028 89.43 385.728 91.0247 387.678 94.5832C389.498 97.9041 387.293 102.562 384.517 104.241C382.767 105.299 381.387 104.843 380.622 103.039C379.956 101.467 377.352 100.596 374.862 100.596C372.372 100.596 369.768 101.467 369.101 103.039C368.336 104.843 366.956 105.299 365.207 104.241C362.431 102.562 360.226 97.9041 362.045 94.5832Z" fill="#EF4923"/>
<path d="M362.045 94.5832C363.996 91.0247 369.695 89.43 374.862 89.4299C380.028 89.43 385.728 91.0247 387.678 94.5832C389.498 97.9041 387.293 102.562 384.517 104.241C382.767 105.299 381.387 104.843 380.622 103.039C379.956 101.467 377.352 100.596 374.862 100.596C372.372 100.596 369.768 101.467 369.101 103.039C368.336 104.843 366.956 105.299 365.207 104.241C362.431 102.562 360.226 97.9041 362.045 94.5832Z" fill="#EE4823" stroke="white" stroke-width="0.029613" stroke-miterlimit="10"/>
<path d="M362.045 94.5832C363.996 91.0247 369.695 89.43 374.862 89.4299C380.028 89.43 385.728 91.0247 387.678 94.5832C389.498 97.9041 387.293 102.562 384.517 104.241C382.767 105.299 381.387 104.843 380.622 103.039C379.956 101.467 377.352 100.596 374.862 100.596C372.372 100.596 369.768 101.467 369.101 103.039C368.336 104.843 366.956 105.299 365.207 104.241C362.431 102.562 360.226 97.9041 362.045 94.5832Z" fill="#EE4823"/>
<path d="M368.61 92.2181L370.555 92.9762C370.855 93.0929 371 93.4241 370.881 93.7159C370.761 94.0078 370.421 94.1498 370.122 94.0331L368.177 93.2749C367.877 93.1582 367.732 92.827 367.851 92.5352C367.971 92.2433 368.311 92.1014 368.61 92.2181Z" fill="#DE1E26"/>
<path d="M382.583 100.584C380.229 100.584 378.32 98.7236 378.32 96.4286C378.32 94.1336 380.229 92.2732 382.583 92.2732C384.938 92.2732 386.847 94.1336 386.847 96.4286C386.847 98.7236 384.938 100.584 382.583 100.584Z" fill="#DE1E26"/>
<path d="M374.862 90.2842C369.965 90.2842 364.619 91.6296 362.038 94.5974C362.041 94.5927 362.043 94.588 362.046 94.5833C363.996 91.0247 369.695 89.43 374.862 89.4299C380.028 89.43 385.728 91.0247 387.678 94.5832C387.681 94.5878 387.683 94.5926 387.686 94.5973C385.105 91.6296 379.758 90.2842 374.862 90.2842Z" fill="#F48551"/>
<path d="M361.993 94.6816C361.87 95.8985 361.678 97.3422 363.897 98.4372C365.544 99.2494 366.776 99.5194 367.706 100.084C369.815 101.364 370.939 100.759 372.511 98.8607C373.176 98.8607 378.05 98.9049 378.931 98.8607C380.666 101.987 384.406 101.536 386 99.9219C387.704 98.1958 387.905 95.7701 387.73 94.6816C389.453 97.9955 387.265 102.578 384.516 104.24C382.767 105.298 381.387 104.842 380.622 103.038C379.955 101.466 377.351 100.596 374.862 100.596C372.372 100.595 369.768 101.466 369.101 103.038C368.336 104.842 366.956 105.298 365.207 104.24C362.458 102.578 360.27 97.9955 361.993 94.6816Z" fill="#DE1E26"/>
<path d="M374.862 89.8912C369.942 89.8912 364.555 91.2901 362.16 94.3856C364.209 90.9659 369.792 89.43 374.862 89.4299C379.931 89.4299 385.514 90.9659 387.564 94.3856C385.169 91.29 379.782 89.8913 374.862 89.8912Z" fill="#282522"/>
<path d="M362.045 94.5832C363.996 91.0247 369.695 89.43 374.862 89.4299C380.028 89.43 385.728 91.0247 387.678 94.5832C389.498 97.9041 387.293 102.562 384.517 104.241C382.767 105.299 381.387 104.843 380.622 103.039C379.956 101.467 377.352 100.596 374.862 100.596C372.372 100.596 369.768 101.467 369.101 103.039C368.336 104.843 366.956 105.299 365.207 104.241C362.431 102.562 360.226 97.9041 362.045 94.5832Z" stroke="#282522" stroke-width="0.177678" stroke-miterlimit="10"/>
<path d="M382.629 100.871C380.305 100.871 378.42 99.0346 378.42 96.7691C378.42 94.5036 380.305 92.667 382.629 92.667C384.953 92.667 386.837 94.5036 386.837 96.7691C386.837 99.0346 384.953 100.871 382.629 100.871Z" fill="#DE1E26"/>
<path d="M382.818 92.9426C382.071 92.9428 381.338 93.1366 380.694 93.504C380.049 93.8715 379.516 94.3995 379.15 95.0338C378.784 95.6682 378.598 96.386 378.61 97.1137C378.623 97.8415 378.833 98.5529 379.221 99.175C378.888 98.7274 378.652 98.2188 378.526 97.6799C378.4 97.141 378.387 96.5829 378.488 96.0389C378.588 95.495 378.801 94.9765 379.112 94.5147C379.424 94.0528 379.828 93.6571 380.3 93.3513C380.773 93.0454 381.304 92.8358 381.861 92.7349C382.419 92.634 382.991 92.644 383.545 92.7643C384.098 92.8845 384.621 93.1126 385.082 93.4347C385.543 93.7568 385.932 94.1664 386.226 94.6388C385.837 94.1133 385.324 93.6855 384.732 93.3906C384.139 93.0957 383.483 92.9422 382.818 92.9426Z" fill="#F48551"/>
<path d="M370.572 91.497C371.986 91.2338 373.422 91.1018 374.861 91.1028C376.381 91.1014 377.897 91.2489 379.387 91.543" stroke="#DE1E26" stroke-width="0.355356" stroke-miterlimit="10" stroke-linecap="round"/>
<path d="M382.629 100.043C380.774 100.043 379.271 98.5772 379.271 96.7693C379.271 94.9614 380.774 93.4958 382.629 93.4958C384.484 93.4958 385.987 94.9614 385.987 96.7693C385.987 98.5772 384.484 100.043 382.629 100.043Z" fill="#EE4823"/>
<path d="M382.629 99.2951C381.198 99.2951 380.038 98.1645 380.038 96.7699C380.038 95.3752 381.198 94.2446 382.629 94.2446C384.06 94.2446 385.22 95.3752 385.22 96.7699C385.22 98.1645 384.06 99.2951 382.629 99.2951Z" fill="#282522"/>
<path d="M382.629 99.2951C381.198 99.2951 380.038 98.1645 380.038 96.7699C380.038 95.3752 381.198 94.2446 382.629 94.2446C384.06 94.2446 385.22 95.3752 385.22 96.7699C385.22 98.1645 384.06 99.2951 382.629 99.2951Z" stroke="#282522" stroke-width="0.177678" stroke-miterlimit="10"/>
<path d="M382.077 94.7842C382.077 94.6879 382.114 94.5951 382.181 94.5242C382.248 94.4533 382.339 94.4095 382.438 94.4015C382.501 94.3966 382.565 94.3941 382.629 94.394C382.693 94.394 382.757 94.3965 382.82 94.4015C382.918 94.4095 383.01 94.4532 383.077 94.5242C383.144 94.5951 383.181 94.6879 383.181 94.7842V95.4303C383.181 95.6425 383.267 95.8461 383.421 95.9962C383.575 96.1462 383.784 96.2305 384.002 96.2305H384.665C384.763 96.2304 384.859 96.2664 384.931 96.3316C385.004 96.3967 385.049 96.4862 385.057 96.5821C385.062 96.6436 385.065 96.7057 385.065 96.7684C385.065 96.831 385.062 96.8931 385.057 96.9547C385.049 97.0507 385.004 97.1401 384.931 97.2052C384.859 97.2704 384.763 97.3065 384.665 97.3063H384.002C383.784 97.3063 383.575 97.3906 383.421 97.5407C383.267 97.6907 383.181 97.8943 383.181 98.1065V98.7526C383.181 98.8489 383.144 98.9417 383.077 99.0126C383.01 99.0836 382.918 99.1274 382.82 99.1354C382.757 99.1402 382.693 99.1427 382.629 99.1428C382.565 99.1428 382.501 99.1404 382.438 99.1354C382.339 99.1274 382.248 99.0836 382.181 99.0126C382.114 98.9417 382.077 98.8489 382.077 98.7526V98.1065C382.077 97.8943 381.991 97.6907 381.837 97.5407C381.683 97.3906 381.474 97.3063 381.256 97.3063H380.593C380.495 97.3065 380.399 97.2704 380.326 97.2052C380.254 97.1401 380.209 97.0507 380.201 96.9547C380.196 96.8932 380.193 96.8311 380.193 96.7684C380.193 96.7057 380.196 96.6436 380.201 96.5821C380.209 96.4862 380.254 96.3967 380.326 96.3316C380.399 96.2664 380.495 96.2304 380.593 96.2305H381.256C381.474 96.2305 381.683 96.1462 381.837 95.9962C381.991 95.8461 382.077 95.6425 382.077 95.4303V94.7842Z" fill="#0D1622"/>
<path d="M382.629 100.871C380.305 100.871 378.42 99.0346 378.42 96.7691C378.42 94.5036 380.305 92.667 382.629 92.667C384.953 92.667 386.837 94.5036 386.837 96.7691C386.837 99.0346 384.953 100.871 382.629 100.871Z" stroke="#282522" stroke-width="0.177678" stroke-miterlimit="10"/>
<path d="M382.629 97.5697C382.175 97.5697 381.808 97.2113 381.808 96.7691C381.808 96.3269 382.175 95.9685 382.629 95.9685C383.083 95.9685 383.45 96.3269 383.45 96.7691C383.45 97.2113 383.083 97.5697 382.629 97.5697Z" fill="#EE4823"/>
<path d="M383.056 96.9988C383.096 96.9264 383.117 96.8449 383.115 96.7625C383.114 96.68 383.09 96.5993 383.047 96.5284C383.004 96.4574 382.942 96.3987 382.869 96.3579C382.795 96.3171 382.712 96.2956 382.627 96.2957" stroke="#282522" stroke-width="0.118452" stroke-miterlimit="10" stroke-linecap="round"/>
<path d="M381.967 96.2961C381.89 96.4769 381.883 96.6791 381.948 96.8645C382.013 97.05 382.146 97.2056 382.321 97.302C382.496 97.3984 382.701 97.4289 382.898 97.3876C383.094 97.3463 383.268 97.2361 383.387 97.0779C383.342 97.1824 383.275 97.2765 383.191 97.354C383.106 97.4314 383.006 97.4905 382.896 97.5272C382.786 97.564 382.669 97.5777 382.554 97.5673C382.438 97.5569 382.326 97.5228 382.225 97.4671C382.124 97.4115 382.036 97.3355 381.967 97.2443C381.899 97.1531 381.85 97.0487 381.826 96.9381C381.802 96.8274 381.802 96.713 381.826 96.6023C381.85 96.4917 381.899 96.3873 381.967 96.2961Z" fill="#DE1E26"/>
<path d="M379.986 94.2775C379.939 94.2775 379.901 94.2403 379.901 94.1944C379.901 94.1485 379.939 94.1113 379.986 94.1113C380.033 94.1113 380.071 94.1485 380.071 94.1944C380.071 94.2403 380.033 94.2775 379.986 94.2775Z" fill="#F48551"/>
<path d="M385.27 99.4289C385.223 99.4289 385.185 99.3917 385.185 99.3458C385.185 99.2999 385.223 99.2627 385.27 99.2627C385.317 99.2627 385.356 99.2999 385.356 99.3458C385.356 99.3917 385.317 99.4289 385.27 99.4289Z" fill="#F48551"/>
<path d="M379.986 99.4289C379.939 99.4289 379.901 99.3917 379.901 99.3458C379.901 99.2999 379.939 99.2627 379.986 99.2627C380.033 99.2627 380.071 99.2999 380.071 99.3458C380.071 99.3917 380.033 99.4289 379.986 99.4289Z" fill="#F48551"/>
<path d="M385.27 94.2775C385.223 94.2775 385.185 94.2403 385.185 94.1944C385.185 94.1485 385.223 94.1113 385.27 94.1113C385.317 94.1113 385.356 94.1485 385.356 94.1944C385.356 94.2403 385.317 94.2775 385.27 94.2775Z" fill="#F48551"/>
<path d="M362.66 97.0623C361.871 96.012 362.261 94.2302 363.658 93.7319C365.158 93.1966 367.292 93.7943 368.539 94.3881C369.75 94.9645 372.05 96.1021 372.474 97.743C372.837 99.1448 371.702 100.453 370.371 100.564C369.113 100.669 368.511 99.8003 366.151 98.8419C365.071 98.4036 363.407 98.0553 362.66 97.0623Z" fill="#DE1E26"/>
<path d="M368.603 94.7273C367.355 94.1335 365.221 93.5359 363.721 94.0711C362.719 94.4288 362.235 95.4477 362.333 96.3828C362.061 95.3687 362.533 94.1335 363.658 93.7319C365.158 93.1966 367.292 93.7943 368.539 94.3881C369.75 94.9645 372.051 96.1021 372.475 97.743C372.501 97.8455 372.519 97.9497 372.53 98.0547C372.088 96.4285 369.806 95.3003 368.603 94.7273Z" fill="#F48551"/>
<path d="M370.215 99.6808C369.513 99.6808 368.943 99.1258 368.943 98.4411C368.943 97.7564 369.513 97.2014 370.215 97.2014C370.918 97.2014 371.487 97.7564 371.487 98.4411C371.487 99.1258 370.918 99.6808 370.215 99.6808Z" fill="#282522" stroke="#282522" stroke-width="0.177678" stroke-miterlimit="10"/>
<path d="M371.034 98.747C371.117 98.5353 371.111 98.3 371.016 98.0928C370.921 97.8857 370.746 97.7235 370.529 97.6421" fill="#282522"/>
<path d="M371.034 98.747C371.117 98.5353 371.111 98.3 371.016 98.0928C370.921 97.8857 370.746 97.7235 370.529 97.6421" stroke="#282522" stroke-width="0.118452" stroke-miterlimit="10" stroke-linecap="round"/>
<path d="M367.393 98.4322C366.691 98.4322 366.121 97.8772 366.121 97.1926C366.121 96.5079 366.691 95.9529 367.393 95.9529C368.095 95.9529 368.665 96.5079 368.665 97.1926C368.665 97.8772 368.095 98.4322 367.393 98.4322Z" fill="#282522" stroke="#282522" stroke-width="0.029613" stroke-miterlimit="10"/>
<path d="M367.393 98.4322C366.691 98.4322 366.121 97.8772 366.121 97.1926C366.121 96.5079 366.691 95.9529 367.393 95.9529C368.095 95.9529 368.665 96.5079 368.665 97.1926C368.665 97.8772 368.095 98.4322 367.393 98.4322Z" fill="#282522" stroke="#282522" stroke-width="0.177678" stroke-miterlimit="10"/>
<path d="M368.212 97.5007C368.295 97.289 368.289 97.0537 368.194 96.8465C368.099 96.6394 367.924 96.4772 367.707 96.3958" fill="#282522"/>
<path d="M368.212 97.5007C368.295 97.289 368.289 97.0537 368.194 96.8465C368.099 96.6394 367.924 96.4772 367.707 96.3958" stroke="#282522" stroke-width="0.118452" stroke-miterlimit="10" stroke-linecap="round"/>
<path d="M364.595 97.184C363.893 97.184 363.323 96.6289 363.323 95.9443C363.323 95.2596 363.893 94.7046 364.595 94.7046C365.298 94.7046 365.867 95.2596 365.867 95.9443C365.867 96.6289 365.298 97.184 364.595 97.184Z" fill="#282522" stroke="#282522" stroke-width="0.029613" stroke-miterlimit="10"/>
<path d="M364.595 97.184C363.893 97.184 363.323 96.6289 363.323 95.9443C363.323 95.2596 363.893 94.7046 364.595 94.7046C365.298 94.7046 365.867 95.2596 365.867 95.9443C365.867 96.6289 365.298 97.184 364.595 97.184Z" fill="#282522" stroke="#282522" stroke-width="0.177678" stroke-miterlimit="10"/>
<path d="M365.414 96.2515C365.497 96.0397 365.491 95.8044 365.396 95.5972C365.301 95.3901 365.126 95.228 364.908 95.1465" fill="#282522"/>
<path d="M365.414 96.2515C365.497 96.0397 365.491 95.8044 365.396 95.5972C365.301 95.3901 365.126 95.228 364.908 95.1465" stroke="#282522" stroke-width="0.118452" stroke-miterlimit="10" stroke-linecap="round"/>
<path d="M362.66 97.0623C361.871 96.012 362.261 94.2302 363.658 93.7319C365.158 93.1966 367.292 93.7943 368.539 94.3881C369.75 94.9645 372.05 96.1021 372.474 97.743C372.837 99.1448 371.702 100.453 370.371 100.564C369.113 100.669 368.511 99.8003 366.151 98.8419C365.071 98.4036 363.407 98.0553 362.66 97.0623Z" stroke="#282522" stroke-width="0.177678" stroke-miterlimit="10"/>
<path d="M370.189 99.4276C369.487 99.4276 368.918 98.8726 368.918 98.1879C368.918 97.5033 369.487 96.9482 370.189 96.9482C370.892 96.9482 371.461 97.5033 371.461 98.1879C371.461 98.8726 370.892 99.4276 370.189 99.4276Z" fill="#EE4823"/>
<path d="M369.002 97.744C369.079 97.5469 369.207 97.3724 369.374 97.2373C369.212 97.4872 369.147 97.7851 369.191 98.0775C369.234 98.3699 369.384 98.6374 369.612 98.8319C369.84 99.0264 370.132 99.1351 370.435 99.1384C370.738 99.1417 371.033 99.0393 371.265 98.8498C371.097 99.1101 370.835 99.3 370.531 99.3826C370.226 99.4651 369.902 99.4345 369.619 99.2965C369.337 99.1586 369.118 98.9233 369.004 98.6363C368.889 98.3494 368.889 98.0313 369.002 97.744Z" fill="#DE1E26"/>
<path d="M370.189 99.4276C369.487 99.4276 368.918 98.8726 368.918 98.1879C368.918 97.5033 369.487 96.9482 370.189 96.9482C370.892 96.9482 371.461 97.5033 371.461 98.1879C371.461 98.8726 370.892 99.4276 370.189 99.4276Z" stroke="#282522" stroke-width="0.177678" stroke-miterlimit="10"/>
<path d="M371.009 98.4939C371.092 98.2821 371.085 98.0468 370.991 97.8397C370.896 97.6325 370.721 97.4704 370.503 97.3889" stroke="#282522" stroke-width="0.118452" stroke-miterlimit="10" stroke-linecap="round"/>
<path d="M367.463 98.1552C366.761 98.1552 366.191 97.6001 366.191 96.9155C366.191 96.2308 366.761 95.6758 367.463 95.6758C368.166 95.6758 368.735 96.2308 368.735 96.9155C368.735 97.6001 368.166 98.1552 367.463 98.1552Z" fill="#EE4823"/>
<path d="M366.275 96.471C366.353 96.2739 366.481 96.0995 366.647 95.9644C366.485 96.2142 366.42 96.5122 366.464 96.8046C366.507 97.097 366.657 97.3645 366.885 97.5591C367.113 97.7536 367.405 97.8622 367.708 97.8655C368.011 97.8688 368.306 97.7664 368.538 97.5769C368.37 97.8371 368.108 98.0269 367.804 98.1095C367.5 98.192 367.175 98.1614 366.893 98.0235C366.61 97.8855 366.391 97.6502 366.277 97.3633C366.163 97.0764 366.162 96.7583 366.275 96.471Z" fill="#DE1E26"/>
<path d="M367.463 98.1552C366.761 98.1552 366.191 97.6001 366.191 96.9155C366.191 96.2308 366.761 95.6758 367.463 95.6758C368.166 95.6758 368.735 96.2308 368.735 96.9155C368.735 97.6001 368.166 98.1552 367.463 98.1552Z" stroke="#282522" stroke-width="0.177678" stroke-miterlimit="10"/>
<path d="M368.283 97.2219C368.366 97.0101 368.36 96.7748 368.265 96.5676C368.17 96.3605 367.995 96.1984 367.778 96.1169" stroke="#282522" stroke-width="0.118452" stroke-miterlimit="10" stroke-linecap="round"/>
<path d="M368.474 92.2909L370.295 92.9999C370.478 93.0708 370.566 93.2721 370.494 93.4496C370.421 93.6272 370.214 93.7136 370.032 93.6427L368.211 92.9337C368.029 92.8628 367.94 92.6615 368.013 92.4839C368.085 92.3065 368.292 92.22 368.474 92.2909Z" fill="#EE4823"/>
<path d="M368.474 92.2909L370.295 92.9999C370.478 93.0708 370.566 93.2721 370.494 93.4496C370.421 93.6272 370.214 93.7136 370.032 93.6427L368.211 92.9337C368.029 92.8628 367.94 92.6615 368.013 92.4839C368.085 92.3065 368.292 92.22 368.474 92.2909Z" stroke="#282522" stroke-width="0.177678" stroke-miterlimit="10"/>
<path d="M370.432 92.4581C370.493 92.482 370.551 92.4729 370.569 92.4286L370.516 92.4077C370.505 92.4274 370.481 92.437 370.446 92.4235C370.411 92.41 370.397 92.3865 370.406 92.3652C370.431 92.3047 370.577 92.4073 370.615 92.3151C370.633 92.2711 370.601 92.2271 370.539 92.2027C370.48 92.1798 370.429 92.1889 370.407 92.2301L370.462 92.2518C370.471 92.2355 370.495 92.227 370.527 92.2387C370.556 92.2493 370.574 92.2695 370.564 92.2937C370.541 92.3504 370.394 92.2518 370.356 92.3434C370.341 92.3809 370.364 92.4315 370.432 92.4581Z" fill="#F48551"/>
<path d="M370.343 92.1304L370.129 92.0471L370.116 92.0806L370.197 92.1124L370.108 92.3295L370.158 92.349L370.247 92.132L370.329 92.1639L370.343 92.1304Z" fill="#F48551"/>
<path d="M369.769 92.1392L369.897 92.1894L369.898 92.2493L369.95 92.2698L369.944 91.9756L369.885 91.9529L369.673 92.1615L369.726 92.1821L369.769 92.1392ZM369.894 92.0139L369.897 92.1501L369.797 92.1111L369.894 92.0139Z" fill="#F48551"/>
<path d="M369.58 91.833C369.507 91.8046 369.457 91.825 369.44 91.8658C369.434 91.8845 369.434 91.9049 369.442 91.9233C369.449 91.9417 369.464 91.9567 369.482 91.9654L369.364 92.0398L369.424 92.0632L369.535 91.9903L369.573 92.0053L369.532 92.1057L369.582 92.1253L369.685 91.8742L369.58 91.833ZM369.566 91.8666L369.621 91.8883L369.587 91.9724L369.531 91.9508C369.492 91.9353 369.482 91.9109 369.492 91.8859C369.502 91.861 369.527 91.8513 369.566 91.8666Z" fill="#F48551"/>
<path d="M369.379 91.7544L369.165 91.6711L369.152 91.7047L369.233 91.7364L369.144 91.9535L369.194 91.9731L369.283 91.756L369.365 91.7879L369.379 91.7544Z" fill="#F48551"/>
<path d="M374.861 89.43C376.77 89.43 378.751 89.648 380.59 90.102C380.27 90.2106 379.923 90.309 379.554 90.3961C378.011 90.0785 376.438 89.9191 374.861 89.9206C373.516 89.9201 372.174 90.0355 370.85 90.2654C370.517 90.1729 370.19 90.0623 369.87 89.9341C371.511 89.5968 373.184 89.4278 374.861 89.43Z" fill="#EF4923"/>
<path d="M374.861 89.671C373.328 89.6699 371.798 89.8107 370.292 90.0915C370.146 90.0411 370.005 89.9886 369.87 89.9339C371.511 89.5966 373.184 89.4277 374.861 89.43C376.77 89.43 378.751 89.648 380.59 90.102C380.448 90.1501 380.301 90.196 380.15 90.24C378.414 89.859 376.64 89.6681 374.861 89.671Z" fill="#F48551"/>
<path d="M374.861 89.43C376.77 89.43 378.751 89.648 380.59 90.102C380.27 90.2106 379.923 90.309 379.554 90.3961C378.011 90.0785 376.438 89.9191 374.861 89.9206C373.516 89.9201 372.174 90.0355 370.85 90.2654C370.517 90.1729 370.19 90.0623 369.87 89.9341C371.511 89.5968 373.184 89.4278 374.861 89.43Z" stroke="#282522" stroke-width="0.177678" stroke-miterlimit="10"/>
<path d="M364.565 96.8202C363.863 96.8202 363.294 96.2652 363.294 95.5805C363.294 94.8958 363.863 94.3408 364.565 94.3408C365.268 94.3408 365.837 94.8958 365.837 95.5805C365.837 96.2652 365.268 96.8202 364.565 96.8202Z" fill="#EE4823"/>
<path d="M363.378 95.1356C363.456 94.9385 363.584 94.7641 363.75 94.6289C363.588 94.8788 363.523 95.1767 363.567 95.4691C363.611 95.7615 363.76 96.0291 363.988 96.2236C364.216 96.4181 364.508 96.5268 364.811 96.5301C365.115 96.5333 365.409 96.431 365.641 96.2414C365.473 96.5017 365.211 96.6916 364.907 96.7742C364.603 96.8567 364.278 96.8261 363.996 96.6881C363.713 96.5502 363.494 96.3149 363.38 96.0279C363.266 95.741 363.265 95.4229 363.378 95.1356Z" fill="#DE1E26"/>
<path d="M364.565 96.8202C363.863 96.8202 363.294 96.2652 363.294 95.5805C363.294 94.8958 363.863 94.3408 364.565 94.3408C365.268 94.3408 365.837 94.8958 365.837 95.5805C365.837 96.2652 365.268 96.8202 364.565 96.8202Z" stroke="#282522" stroke-width="0.177678" stroke-miterlimit="10"/>
<path d="M365.385 95.8874C365.468 95.6756 365.462 95.4403 365.367 95.2332C365.272 95.026 365.097 94.864 364.88 94.7825" stroke="#282522" stroke-width="0.118452" stroke-miterlimit="10" stroke-linecap="round"/>
<path d="M375.297 89.3244H375.692V84.7344C375.692 84.5327 375.774 84.3392 375.921 84.1965C376.067 84.0538 376.266 83.9735 376.473 83.9733H383.868C384.179 83.9733 384.478 83.8526 384.699 83.6378C384.919 83.4229 385.043 83.1315 385.043 82.8277C385.043 82.5239 384.919 82.2325 384.699 82.0177C384.478 81.8028 384.179 81.6821 383.868 81.6821H364.038L363.904 82.0666H383.868C384.075 82.0666 384.273 82.1467 384.42 82.2895C384.566 82.4323 384.648 82.6258 384.648 82.8277C384.648 83.0296 384.566 83.2232 384.42 83.3659C384.273 83.5087 384.075 83.5889 383.868 83.5889H376.473C376.161 83.5892 375.862 83.71 375.642 83.9248C375.422 84.1395 375.298 84.4307 375.297 84.7344V89.3244Z" fill="#282522"/>
<path d="M374.727 86.7019H376.294V87.1156H374.727V86.7019Z" fill="#282522"/>
<path d="M374.469 87.0913H376.553V87.505H374.469V87.0913Z" fill="#302E2C"/>
<path d="M374.727 87.4792H376.294V87.8929H374.727V87.4792Z" fill="#282522"/>
<path d="M374.469 87.8687H376.553V88.2823H374.469V87.8687Z" fill="#302E2C"/>
<path d="M374.727 88.2578H376.294V88.6715H374.727V88.2578Z" fill="#282522"/>
<path d="M374.727 88.9712H376.294V89.3849H374.727V88.9712Z" fill="#282522"/>
<path d="M374.469 88.6467H376.553V89.0604H374.469V88.6467Z" fill="#302E2C"/>
<path d="M382.402 93.32L382.596 92.9718C382.599 92.966 382.604 92.9612 382.61 92.9578C382.615 92.9545 382.622 92.9526 382.628 92.9526C382.635 92.9526 382.641 92.9545 382.647 92.9578C382.653 92.9612 382.657 92.966 382.66 92.9718L382.854 93.32C382.858 93.3257 382.859 93.3321 382.86 93.3386C382.86 93.3452 382.858 93.3517 382.855 93.3574C382.852 93.3632 382.847 93.3681 382.842 93.3717C382.836 93.3753 382.829 93.3774 382.823 93.3779H382.431C382.424 93.377 382.418 93.3746 382.413 93.3708C382.408 93.3671 382.403 93.3621 382.401 93.3564C382.398 93.3506 382.396 93.3443 382.397 93.338C382.397 93.3316 382.399 93.3254 382.402 93.32Z" fill="#F48551"/>
<path d="M382.854 100.221L382.66 100.569C382.657 100.575 382.652 100.579 382.647 100.583C382.641 100.586 382.635 100.588 382.628 100.588C382.621 100.588 382.615 100.586 382.609 100.583C382.604 100.579 382.599 100.575 382.596 100.569L382.402 100.221C382.399 100.215 382.397 100.208 382.397 100.202C382.397 100.195 382.398 100.189 382.401 100.183C382.405 100.177 382.409 100.172 382.415 100.169C382.421 100.165 382.427 100.163 382.434 100.163H382.826C382.832 100.164 382.838 100.166 382.844 100.17C382.849 100.174 382.853 100.179 382.856 100.184C382.858 100.19 382.86 100.196 382.86 100.203C382.859 100.209 382.857 100.215 382.854 100.221Z" fill="#F48551"/>
<path d="M379.088 96.9912L378.731 96.8014C378.726 96.7985 378.721 96.7941 378.717 96.7886C378.714 96.7831 378.712 96.7768 378.712 96.7704C378.712 96.7639 378.714 96.7576 378.717 96.7521C378.721 96.7466 378.726 96.7422 378.731 96.7393L379.088 96.5495C379.094 96.5463 379.1 96.5445 379.107 96.5444C379.114 96.5444 379.12 96.5459 379.126 96.549C379.132 96.5521 379.137 96.5566 379.141 96.562C379.145 96.5675 379.147 96.5739 379.147 96.5804V96.9635C379.146 96.9698 379.144 96.9757 379.14 96.9809C379.136 96.986 379.131 96.9901 379.125 96.9929C379.119 96.9956 379.113 96.9969 379.106 96.9966C379.1 96.9963 379.094 96.9945 379.088 96.9912Z" fill="#F48551"/>
<path d="M386.168 96.5484L386.525 96.7382C386.531 96.7411 386.536 96.7455 386.539 96.751C386.542 96.7565 386.544 96.7628 386.544 96.7692C386.544 96.7757 386.542 96.782 386.539 96.7875C386.536 96.793 386.531 96.7974 386.525 96.8003L386.168 96.9902C386.162 96.9934 386.156 96.9951 386.149 96.9952C386.142 96.9953 386.136 96.9937 386.13 96.9906C386.124 96.9875 386.119 96.9829 386.115 96.9774C386.112 96.9719 386.109 96.9656 386.109 96.9591V96.576C386.11 96.5697 386.112 96.5638 386.116 96.5587C386.12 96.5536 386.125 96.5495 386.131 96.5467C386.137 96.544 386.143 96.5427 386.15 96.543C386.156 96.5433 386.163 96.5451 386.168 96.5484Z" fill="#F48551"/>
<path d="M369.463 95.7471C369.463 95.7471 368.637 95.1369 366.871 94.6162" stroke="#F48551" stroke-width="0.177678" stroke-miterlimit="10" stroke-linecap="round"/>
<path d="M376.747 96.1939H376.286C376.253 96.1943 376.22 96.1883 376.19 96.1762C376.159 96.1641 376.131 96.1462 376.107 96.1235C376.083 96.1008 376.065 96.0737 376.052 96.0439C376.039 96.014 376.033 95.982 376.033 95.9497C376.033 95.9174 376.039 95.8854 376.052 95.8555C376.065 95.8257 376.083 95.7987 376.107 95.7759C376.131 95.7532 376.159 95.7353 376.19 95.7232C376.22 95.7111 376.253 95.7051 376.286 95.7055L376.416 95.7038C376.434 95.7042 376.452 95.701 376.469 95.6945C376.486 95.6881 376.501 95.6785 376.514 95.6663C376.526 95.6541 376.537 95.6395 376.544 95.6234C376.55 95.6073 376.554 95.59 376.554 95.5725C376.554 95.5551 376.551 95.5377 376.544 95.5216C376.537 95.5055 376.527 95.4909 376.514 95.4786C376.501 95.4663 376.486 95.4567 376.469 95.4502C376.453 95.4437 376.435 95.4404 376.417 95.4407H375.957V95.5161H376.417C376.432 95.5161 376.447 95.5221 376.458 95.5328C376.469 95.5434 376.475 95.5578 376.475 95.5728C376.475 95.5879 376.469 95.6023 376.458 95.613C376.447 95.6236 376.432 95.6296 376.417 95.6296L376.287 95.6289C376.243 95.6289 376.201 95.6372 376.161 95.6533C376.121 95.6695 376.084 95.6931 376.054 95.7229C376.023 95.7527 375.999 95.7881 375.982 95.827C375.966 95.8659 375.957 95.9076 375.957 95.9498C375.957 95.9919 375.966 96.0336 375.982 96.0726C375.999 96.1115 376.023 96.1469 376.054 96.1767C376.084 96.2064 376.121 96.2301 376.161 96.2462C376.201 96.2623 376.243 96.2706 376.287 96.2706L376.747 96.2711L376.747 96.1939Z" fill="#F48551"/>
<path d="M375.533 96.2675C375.605 96.2675 375.675 96.2395 375.726 96.1896C375.778 96.1397 375.807 96.072 375.807 96.0013V95.5175C375.806 95.4468 375.777 95.3791 375.726 95.3293C375.675 95.2794 375.605 95.2514 375.533 95.2515H375.04V95.3271H375.533C375.584 95.3267 375.634 95.3464 375.671 95.3818C375.708 95.4172 375.729 95.4655 375.729 95.5159V96.0013C375.729 96.0521 375.709 96.1008 375.672 96.1367C375.635 96.1726 375.585 96.1927 375.533 96.1927H375.042V96.2679L375.533 96.2675ZM376.747 96.0791V96.0043L376.289 96.0039C376.281 96.0041 376.274 96.0028 376.267 96.0001C376.259 95.9973 376.253 95.9933 376.247 95.988C376.242 95.9828 376.238 95.9766 376.235 95.9697C376.232 95.9628 376.23 95.9554 376.23 95.9479C376.23 95.9405 376.232 95.9331 376.235 95.9262C376.238 95.9193 376.242 95.9131 376.247 95.9078C376.253 95.9027 376.259 95.8985 376.267 95.8959C376.274 95.8931 376.281 95.8918 376.289 95.892L376.418 95.8918C376.461 95.8923 376.504 95.8843 376.545 95.8684C376.585 95.8526 376.621 95.8291 376.652 95.7993C376.683 95.7695 376.708 95.734 376.724 95.695C376.741 95.6559 376.75 95.614 376.75 95.5716C376.75 95.5293 376.741 95.4874 376.724 95.4483C376.708 95.4092 376.683 95.3738 376.652 95.344C376.621 95.3142 376.585 95.2907 376.545 95.2748C376.504 95.2589 376.461 95.251 376.418 95.2515H375.96V95.3274H376.418C376.484 95.3274 376.548 95.353 376.595 95.3988C376.642 95.4445 376.668 95.5065 376.668 95.5712C376.668 95.6359 376.642 95.698 376.595 95.7437C376.548 95.7894 376.484 95.8151 376.418 95.8151L376.288 95.8165C376.271 95.8165 376.253 95.8199 376.237 95.8264C376.22 95.833 376.206 95.8426 376.193 95.8548C376.181 95.8669 376.171 95.8814 376.164 95.8973C376.157 95.9132 376.153 95.9303 376.153 95.9475C376.153 95.9648 376.157 95.9818 376.164 95.9978C376.17 96.0137 376.18 96.0282 376.193 96.0404C376.205 96.0526 376.22 96.0623 376.236 96.0689C376.253 96.0755 376.27 96.079 376.288 96.079L376.747 96.0791Z" fill="#F48551"/>
<path d="M374.628 96.2675C374.701 96.2676 374.771 96.2397 374.822 96.1898C374.874 96.1399 374.903 96.0721 374.904 96.0012V95.5175C374.903 95.4468 374.874 95.3791 374.823 95.3293C374.772 95.2794 374.702 95.2514 374.63 95.2515H374.152V95.327H374.628C374.68 95.327 374.73 95.3471 374.767 95.3828C374.803 95.4185 374.824 95.4669 374.824 95.5175V96.0012C374.824 96.0519 374.803 96.1005 374.767 96.1363C374.73 96.1721 374.68 96.1922 374.628 96.1923H374.23V95.7028H374.516V95.6277H374.152V96.2677L374.628 96.2675ZM375.533 96.0788C375.554 96.0788 375.574 96.0707 375.589 96.0561C375.604 96.0416 375.613 96.0218 375.613 96.0012V95.8158H375.153V95.8912H375.536L375.536 95.9301C375.536 95.9399 375.534 95.9496 375.53 95.9586C375.526 95.9676 375.521 95.9758 375.514 95.9827C375.506 95.9896 375.498 95.995 375.489 95.9987C375.479 96.0023 375.469 96.0042 375.459 96.004H375.043V96.0785L375.533 96.0788ZM375.613 95.7028V95.5176C375.613 95.4969 375.605 95.4771 375.59 95.4625C375.575 95.4478 375.554 95.4396 375.533 95.4395H375.04V95.5153H375.459C375.469 95.5151 375.479 95.5169 375.489 95.5205C375.498 95.5241 375.506 95.5294 375.514 95.5363C375.521 95.5431 375.526 95.5513 375.53 95.5603C375.534 95.5693 375.536 95.579 375.536 95.5888L375.537 95.6277H375.153V95.7028H375.613Z" fill="#F48551"/>
<path d="M373.89 96.2672L373.591 95.4108C373.59 95.4086 373.589 95.4068 373.587 95.4055C373.585 95.4042 373.583 95.4036 373.581 95.4036C373.573 95.4053 373.571 95.4078 373.57 95.4113L373.337 96.0805H373.609L373.609 95.988H373.471L373.581 95.6697L373.789 96.2673L373.89 96.2672ZM374.628 96.0792C374.65 96.0791 374.67 96.0708 374.685 96.0561C374.7 96.0414 374.708 96.0215 374.708 96.0008V95.5171C374.708 95.4964 374.7 95.4766 374.685 95.462C374.67 95.4474 374.65 95.4391 374.628 95.4391H374.152V95.5141H374.555C374.565 95.514 374.575 95.5159 374.585 95.5197C374.594 95.5234 374.602 95.5289 374.61 95.5359C374.617 95.5428 374.622 95.5511 374.626 95.5603C374.63 95.5694 374.632 95.5791 374.632 95.5889L374.631 95.9295C374.631 95.9491 374.623 95.9679 374.609 95.9819C374.594 95.9957 374.575 96.0036 374.555 96.0036H374.423L374.424 95.8908H374.516V95.8152H374.346V96.0792H374.628Z" fill="#F48551"/>
<path d="M374.095 96.2684L373.78 95.3689C373.765 95.3294 373.738 95.2955 373.702 95.2714C373.667 95.2474 373.625 95.2345 373.581 95.2344C373.538 95.2343 373.496 95.247 373.46 95.2709C373.425 95.2948 373.397 95.3286 373.382 95.368L373.07 96.2683H373.609V96.193H373.177L373.463 95.3704C373.473 95.3475 373.489 95.3278 373.51 95.3139C373.531 95.3 373.556 95.2925 373.581 95.2924C373.606 95.2923 373.63 95.2995 373.651 95.313C373.672 95.3265 373.688 95.3457 373.698 95.3682L374.012 96.2683L374.095 96.2684Z" fill="#F48551"/>
<path d="M416.323 17.4756C416.179 16.7144 416.159 15.9331 416.262 15.1519C416.364 14.3907 416.734 13.5093 417.495 13.3891C418.234 13.269 418.789 14.0101 419.118 14.6711C420.598 17.736 420.803 21.2816 420.988 24.707C419.817 25.0275 418.584 25.1677 417.371 25.1077C417.474 23.6654 417.207 22.2231 416.631 20.9411C416.015 19.5589 414.987 18.2368 415.193 16.7144C415.398 16.7144 415.604 16.6944 415.789 16.6944C415.974 16.9548 416.138 17.2151 416.323 17.4756Z" fill="#E8DBCE"/>
<path d="M399.993 77.3727C396.602 79.0354 392.923 79.4961 391.752 75.029C389.717 67.2768 396.438 60.6262 403.117 57.8218C404.37 57.301 405.644 56.8804 406.898 56.3595C410.433 54.8771 413.598 52.6336 416.146 49.8292C419.29 46.3638 419.578 44.4807 419.085 40.0938C418.961 38.9319 416.557 24.5893 417.091 24.4491C418.612 24.0484 420.112 23.6678 421.633 23.2672C421.756 23.2271 425.949 38.992 426.504 40.3943C428.374 45.1418 428.271 49.3284 425.517 53.9557C423.195 57.8419 419.742 60.9268 416.331 63.9716C412.591 67.2768 408.85 70.602 405.131 73.9072C403.897 74.969 401.986 76.3912 399.993 77.3727Z" fill="#1F375A"/>
<path d="M375.329 48.3439C373.109 48.404 370.849 48.5041 368.691 48.0233C367.848 47.843 366.985 47.5225 366.492 46.8215C366.143 46.3207 366.04 45.6796 365.999 45.0787C365.834 42.8151 366.266 40.5115 367.211 38.4282C367.396 38.0275 367.602 37.6269 367.972 37.3665C368.321 37.1061 368.794 37.046 369.225 36.9859C373.315 36.5852 377.569 37.2262 381.679 37.3265C383.94 37.3865 385.954 37.9675 388.194 37.667C388.564 37.6269 388.954 37.5668 389.303 37.707C389.756 37.8873 390.023 38.328 390.228 38.7688C391.112 40.7118 391.132 42.8552 390.886 44.9385C390.721 46.2005 390.763 48.2236 389.221 48.5242C387.207 48.9248 384.453 48.3038 382.378 48.2837C380.014 48.2638 377.672 48.2837 375.329 48.3439Z" fill="#595959"/>
<path d="M375.515 47.9981C373.439 48.0582 371.322 48.1583 369.288 47.6975C368.507 47.5173 367.685 47.2168 367.233 46.5758C366.904 46.095 366.822 45.5141 366.781 44.9332C366.637 42.8099 367.027 40.6465 367.911 38.7034C368.075 38.3428 368.281 37.9622 368.61 37.7218C368.938 37.4815 369.37 37.4213 369.802 37.3813C373.624 37.0007 377.631 37.6017 381.474 37.7018C383.591 37.7619 385.461 38.3028 387.578 38.0223C387.927 37.9823 388.297 37.9421 388.606 38.0623C389.037 38.2226 389.284 38.6432 389.469 39.0639C390.291 40.8868 390.311 42.91 390.085 44.833C389.941 46.0149 389.983 47.9179 388.523 48.1984C386.633 48.579 384.064 47.9981 382.112 47.9579C379.913 47.9179 377.714 47.938 375.515 47.9981Z" fill="#4A4A4A"/>
<path d="M385.973 38.3106C386.898 38.3707 387.967 38.4708 388.542 39.1919C388.974 39.7529 388.995 40.494 388.995 41.1952C388.995 42.4171 388.994 43.639 389.015 44.8409C389.015 45.3817 389.015 45.9627 388.748 46.4434C388.44 46.9843 387.844 47.3249 387.227 47.4451C386.61 47.5853 385.973 47.5452 385.336 47.5051C384.288 47.4451 383.24 47.385 382.213 47.3048C381.411 47.2648 380.466 47.1246 380.075 46.4434C379.788 45.9427 379.87 45.2816 379.521 44.8209C379.171 44.3601 378.493 44.26 377.897 44.2199C377.63 44.7608 377.794 45.4219 377.548 45.9827C377.342 46.4434 376.89 46.784 376.397 46.9443C375.904 47.1045 375.369 47.1246 374.855 47.1246C373.355 47.1446 371.834 47.1045 370.334 46.9843C369.594 46.9242 368.752 46.804 368.361 46.2031C368.135 45.8625 368.094 45.4419 368.053 45.0413C367.889 43.0982 367.704 41.1351 368.217 39.2521C368.32 38.8915 368.443 38.5109 368.731 38.2505C369.163 37.8498 369.8 37.7898 370.396 37.7697C375.616 37.6095 380.754 38.0102 385.973 38.3106Z" fill="#707070"/>
<path d="M434.061 12.7276C434.102 12.6675 434.122 12.6074 434.122 12.5473C434.122 12.4672 434.061 12.3871 433.999 12.327C433.588 11.9064 433.054 11.6059 432.478 11.4256C432.437 11.4055 432.396 11.4055 432.355 11.4055C432.273 11.4256 432.232 11.4856 432.191 11.5257C432.047 11.726 431.903 11.9264 431.78 12.1267C431.759 12.1668 431.739 12.1868 431.759 12.2268C431.78 12.2669 431.8 12.2669 431.841 12.2869C432.314 12.5273 432.766 12.7877 433.198 13.0682C433.341 13.1683 433.506 13.3286 433.691 13.2485C433.855 13.1483 433.958 12.8678 434.061 12.7276Z" fill="#484849"/>
<path d="M423.66 9.3221C423.701 9.26201 423.722 9.20185 423.722 9.14176C423.722 9.06163 423.66 8.98154 423.598 8.92144C423.187 8.50077 422.653 8.20028 422.078 8.01999C422.036 7.99996 421.995 8 421.954 8C421.872 8.02003 421.831 8.08012 421.79 8.12018C421.646 8.3205 421.502 8.52079 421.379 8.72111C421.358 8.76117 421.338 8.78124 421.358 8.82131C421.379 8.86137 421.399 8.86137 421.441 8.8814C421.913 9.12178 422.365 9.38215 422.797 9.6626C422.941 9.76276 423.105 9.92301 423.29 9.84288C423.455 9.76275 423.557 9.46232 423.66 9.3221Z" fill="#484849"/>
<path d="M432.994 12.404C433.857 13.005 434.412 13.9265 434.72 14.888C435.09 16.0498 435.686 16.9112 436.323 17.9929C436.734 18.694 437.145 19.4152 437.289 20.2165C437.597 21.7189 436.919 23.3413 435.748 24.363C434.576 25.3846 432.932 25.8453 431.37 25.7452C429.808 25.665 427.692 25.0641 426.705 23.8422C425.657 22.5602 424.897 21.238 423.458 20.3166C420.54 18.4336 417.58 20.2565 414.436 19.6555C413.696 19.5153 412.957 19.2549 412.463 18.7141C412.011 18.2333 411.806 17.5922 411.724 16.9713C411.621 16.17 411.703 15.3688 411.991 14.6075C412.689 12.6645 414.436 11.3223 416.121 10.0804C417.252 9.23904 418.197 8.27753 419.697 8.21743C421.033 8.15734 422.348 8.81839 423.458 9.47944C424.938 10.3809 426.335 11.2423 428.103 11.4426C429.767 11.6429 431.514 11.3624 432.994 12.404Z" fill="#434244"/>
<path d="M420.231 11.7429C420.663 11.763 421.177 12.1436 421.177 12.5642C421.177 13.0049 420.725 13.3855 420.272 13.3454C419.389 13.2453 419.101 12.0434 420.026 11.783C420.067 11.7429 420.149 11.7429 420.231 11.7429Z" fill="#98B99D"/>
<path d="M417.335 10.9413C417.787 10.9212 418.28 11.2618 418.28 11.7025C418.28 12.1432 417.828 12.5238 417.376 12.4837C416.595 12.4036 416.328 11.402 417.047 11.0214C417.129 10.9613 417.232 10.9413 417.335 10.9413Z" fill="#AA6A64"/>
<path d="M432.69 16.1162C433.388 16.4968 433.902 17.218 433.964 18.0193C434.025 18.8205 433.635 19.6619 432.936 20.0825C432.525 20.3429 432.011 20.4231 431.539 20.4431C431.251 20.4431 430.943 20.4231 430.655 20.3429C429.751 20.0825 429.011 19.3013 428.888 18.3798C428.641 16.2765 431.066 15.2348 432.69 16.1162Z" fill="#505151"/>
<path opacity="0.71" d="M432.277 17.976C432.79 18.0962 433.283 18.1964 433.777 18.4568C433.838 18.4769 433.879 18.5169 433.921 18.577C433.941 18.6371 433.921 18.6972 433.921 18.7573C433.818 19.0978 433.715 19.4384 433.592 19.7789C433.078 19.6587 432.585 19.5185 432.071 19.3983C431.948 19.799 431.783 20.1795 431.598 20.5401C431.126 20.3999 430.674 20.2797 430.201 20.1395C430.283 19.6587 430.386 19.198 430.55 18.7372C430.119 18.6571 429.708 18.577 429.276 18.4768C429.132 18.4568 428.988 18.4167 428.927 18.2966C428.886 18.2164 428.886 18.0963 428.906 18.0161C428.947 17.7557 429.009 17.4953 429.05 17.2349C429.071 17.1748 429.07 17.0947 429.132 17.0546C429.214 16.9745 429.358 17.0145 429.481 17.0345C429.975 17.1748 430.489 17.315 430.982 17.4553C430.879 17.4352 431.228 16.2934 431.311 16.1932C431.701 15.6524 432.215 15.9529 432.79 16.1332C432.667 16.7541 432.503 17.3951 432.277 17.976Z" fill="#7D7E7F"/>
<path opacity="0.71" d="M423.207 16.7956C423.269 16.5352 423.351 16.2948 423.454 16.0544C424.05 16.1947 424.625 16.375 425.16 16.6354C425.098 16.9158 424.995 17.1762 424.831 17.3966C424.605 17.2964 424.358 17.2764 424.132 17.1963C423.803 17.1161 423.516 16.9559 423.207 16.7956Z" fill="#7D7E7F"/>
<path opacity="0.71" d="M420.704 16.0959C420.766 15.8355 420.848 15.5951 420.951 15.3547C421.547 15.495 422.122 15.6753 422.657 15.9357C422.595 16.2161 422.492 16.4765 422.328 16.6969C422.102 16.5967 421.855 16.5767 421.629 16.5166C421.3 16.4165 420.992 16.2562 420.704 16.0959Z" fill="#7D7E7F"/>
<path opacity="0.71" d="M425.659 17.4951C425.721 17.2347 425.803 16.9943 425.906 16.7539C426.502 16.8941 427.077 17.0744 427.611 17.3349C427.55 17.6153 427.447 17.8756 427.283 18.096C427.056 17.9958 426.81 17.9759 426.584 17.8957C426.255 17.8156 425.967 17.6553 425.659 17.4951Z" fill="#7D7E7F"/>
<path d="M205.054 18.8155C204.761 17.9782 204.427 17.0999 204.553 16.2216C204.573 16.0583 204.636 15.8744 204.803 15.8336C204.887 15.8131 204.97 15.8541 205.054 15.8541C205.45 15.9153 205.827 15.5885 205.952 15.2004C206.077 14.8328 206.056 14.4243 206.098 14.0159C206.223 12.7699 207.079 11.6262 208.249 11.1565C209.418 10.6663 210.859 10.8501 211.841 11.6262C212.112 11.8304 212.342 12.0959 212.467 12.4024C212.572 12.6679 212.571 12.9537 212.55 13.2397C212.509 16.671 212.07 20.0819 211.214 23.4111C211.151 23.6358 211.089 23.8808 210.963 24.0851C210.588 24.6774 209.773 24.7999 209.063 24.7591C207.998 24.6978 206.265 24.4527 206.035 23.3293C205.722 21.7975 205.576 20.3066 205.054 18.8155Z" fill="#66544D"/>
<path d="M98.7463 69.5857C97.8483 68.5032 97.0341 67.3186 96.5956 65.991C96.157 64.6635 96.157 63.1521 96.8043 61.9266C97.0549 61.4568 97.3891 61.0279 97.8903 60.7829C98.475 60.4969 99.2057 60.5582 99.8113 60.8034C100.417 61.0484 100.939 61.4977 101.398 61.947C101.92 62.4373 102.401 62.9887 102.839 63.5401C103.111 63.9078 103.507 64.3162 103.946 64.2141C104.05 64.1937 104.155 64.1324 104.28 64.1121C104.802 64.0099 105.115 64.6431 105.262 65.1332C105.637 66.3791 106.16 67.5841 106.849 68.7075C107.245 69.3815 107.726 70.1168 107.579 70.893C107.496 71.3626 107.183 71.7711 106.87 72.1184C106.41 72.6494 105.888 73.1396 105.262 73.446C102.777 74.7327 100.145 71.2606 98.7463 69.5857Z" fill="#66544D"/>
<path d="M190.795 157.029C192.361 166.261 192.11 175.697 191.86 185.072C191.546 196.652 191.233 208.232 190.941 219.814C190.899 221.713 190.836 223.592 190.795 225.491C190.69 229.229 190.586 232.987 190.502 236.724C190.481 237.848 190.44 239.013 189.98 240.054C188.539 243.322 184.008 243.669 180.374 243.527C177.848 243.424 174.986 243.179 173.379 241.259C171.771 239.36 172.063 236.582 172.355 234.152C173.044 228.269 173.232 222.346 173.399 216.423C173.504 212.911 173.608 209.376 173.713 205.863C173.984 196.877 170.58 188.278 170.142 177.311C169.453 160.092 162.207 146.756 158.155 130.007C157.967 129.252 163.23 126.556 163.71 125.943C164.065 125.494 164.691 125.33 165.255 125.207C171.687 123.798 178.557 124.452 184.613 127.005C190.043 129.292 186.994 134.726 187.474 139.505C188.08 145.407 189.813 151.167 190.795 157.029Z" fill="#333333"/>
<path d="M128.462 241.195C125.079 240.276 121.571 239.725 118.063 239.541C115.077 240.725 111.923 241.583 108.666 242.053C107.726 242.196 106.724 242.319 105.951 242.788C105.178 243.258 104.698 244.238 105.178 244.994C105.596 245.648 106.515 245.892 107.35 246.076C113.698 247.383 120.172 248.16 126.645 248.405C127.042 248.426 127.439 248.426 127.773 248.242C128.024 248.098 128.191 247.853 128.316 247.609C129.36 245.648 129.423 243.258 128.462 241.195Z" fill="#E0C74E"/>
<path d="M158.946 125.532C154.874 122.285 148.087 122.243 144.788 126.267C143.431 127.921 142.783 130.004 141.948 131.944C139.755 137.072 136.205 141.524 133.136 146.2C128.667 153.003 125.159 160.354 121.65 167.667C120.293 170.527 118.915 173.427 118.184 176.511C117.453 179.595 117.39 182.781 117.328 185.927C117.181 193.341 117.056 200.754 116.91 208.168C116.826 213.173 116.722 218.155 116.639 223.16C116.451 224.201 116.242 225.161 115.928 225.918C115.448 227.041 114.864 228.184 114.78 229.389C114.676 230.615 115.093 231.881 114.884 233.086C114.655 234.373 113.778 235.516 113.778 236.823C113.778 238.6 115.365 239.888 117.035 240.684C117.432 241.337 117.933 241.849 118.643 242.114C119.708 242.522 120.982 242.501 122.256 242.216C123.425 242.399 124.616 242.522 125.806 242.543C126.975 242.543 128.27 242.4 129.043 241.562C130.003 240.521 129.774 238.907 129.962 237.519C130.212 235.578 131.382 233.883 131.799 231.962C132.091 230.697 132.029 229.369 131.924 228.061C131.716 225.611 131.34 223.16 130.797 220.75C130.797 220.71 130.776 220.668 130.776 220.628C131.131 215.705 131.381 210.599 131.987 205.942C132.634 200.938 133.094 195.22 134.138 190.276C135.078 185.885 134.159 182.904 136.686 179.166C138.064 177.123 139.797 175.326 141.593 173.611C146.897 168.585 149.048 163.623 154.081 158.353C159.134 153.084 163.331 146.63 164.042 139.441C164.564 134.355 163.018 128.779 158.946 125.532Z" fill="#333333"/>
<path d="M179.733 45.7583C179.65 42.5313 179.107 39.345 177.123 36.8532C176.455 36.0159 175.64 35.2806 175.076 34.3819C174.554 33.565 174.262 32.6254 173.74 31.8084C173.259 31.0527 172.612 30.4196 171.944 29.8273C171.234 29.1737 170.482 28.52 169.584 28.1117C168.561 27.6419 167.433 27.5194 166.327 27.3764C164.322 27.1517 162.275 26.9269 160.292 27.3355C159.289 27.5397 158.329 27.9073 157.389 28.275C154.591 29.3779 151.688 30.8689 150.143 33.3198C149.37 34.1776 148.681 35.1376 148.096 36.2405C146.655 38.9569 145.799 42.1636 144.964 45.0843C144.129 48.0457 142.312 51.1911 141.685 54.0301C141.059 56.869 142.124 60.3412 141.664 63.3028C141.56 63.6499 139.827 72.555 141.038 71.4113C140.704 71.7381 141.059 72.2077 141.477 72.1465C142.458 71.9831 142.855 71.738 143.064 71.3296C143.043 71.5951 143.022 71.8606 142.98 72.1057C142.897 72.7388 144.024 72.9022 144.129 72.2487C144.275 71.4316 144.421 70.5943 144.567 69.7773C144.588 70.5126 144.609 71.2274 144.63 71.9627C144.651 72.1669 144.651 72.412 144.776 72.5754C145.152 73.1065 145.924 72.698 146.614 72.6572C146.822 73.9643 148.827 74.0051 148.973 72.8002C149.015 72.943 149.057 73.086 149.161 73.2085C149.537 73.6783 150.268 73.658 150.874 73.5558C150.79 73.3923 150.727 73.229 150.644 73.0657C151.291 73.0657 151.918 72.6775 151.876 71.8402C151.834 71.1661 151.792 70.4513 151.751 69.7569C151.855 70.3492 151.959 70.9211 152.085 71.5134C152.189 72.0647 152.294 72.6572 152.628 73.1269C152.962 73.5967 153.567 73.9235 154.131 73.76C154.152 73.086 154.173 72.3712 153.818 71.7789C153.63 71.4521 153.317 71.1661 153.171 70.8189C152.941 70.3083 153.025 69.7569 153.129 69.185C153.421 70.288 153.818 71.3704 154.403 72.3915C154.653 72.8205 155.28 72.6162 155.301 72.1465C155.363 70.7168 155.28 69.328 155.154 67.9596C155.342 69.1442 155.51 70.3288 155.677 71.5134C155.802 72.3507 157.284 72.1669 157.201 71.3091C156.637 65.243 157.284 59.0749 156.658 53.0089C156.554 52.0489 155.698 51.7017 155.029 51.9469C155.28 49.8227 155.51 47.6986 155.551 45.554C155.572 44.2672 153.463 43.9201 153.192 45.2477C152.753 47.5148 152.607 47.5147 152.419 49.9861C152.398 47.4739 152.168 47.4331 152.148 44.9005C152.148 44.3694 152.147 43.8384 152.294 43.3278C152.398 42.9806 152.586 42.6538 152.628 42.2861C152.67 41.8776 152.503 41.51 152.44 41.1015C152.294 40.0394 153.421 38.2216 154.152 37.4251C155.092 36.3835 156.554 35.8728 157.869 35.4235C158.893 35.0762 159.895 34.7291 160.918 34.4023C161.92 34.0756 162.985 33.7283 164.009 33.9734C164.468 34.0755 164.907 34.3206 165.387 34.3819C165.888 34.4431 166.368 34.3206 166.869 34.3001C168.958 34.2185 170.67 36.0362 171.443 37.9358C172.738 41.1015 172.32 44.6349 172.445 48.0662C172.069 46.8611 169.981 47.2084 170.002 48.536C170.023 49.0465 170.044 49.5368 170.064 50.027C169.292 49.4755 168.018 49.741 167.955 51.0073C167.642 57.7678 168.811 64.467 168.937 71.2274C168.958 71.7584 169.73 71.7584 169.772 71.2274C169.877 70.0837 169.981 68.9398 170.085 67.7961C170.19 69.0625 170.42 70.3083 170.858 71.5746C171.088 72.2282 172.09 72.1261 172.111 71.4113C172.111 70.9211 172.132 70.4308 172.153 69.9203C172.382 69.9815 172.654 70.002 172.884 69.9815C172.904 70.2879 172.925 70.5943 172.946 70.9006C172.967 71.1253 172.988 71.3499 173.051 71.5542C173.051 71.595 173.051 71.6359 173.051 71.6767C172.905 73.3923 175.369 73.5353 175.933 72.1465C176.183 72.3916 176.559 72.555 176.872 72.3915C176.371 71.1049 176.35 69.6752 176.35 68.2864C176.35 66.8771 176.35 65.4678 176.35 64.0584L176.726 71.0436C176.81 71.6972 177.833 71.9627 178 71.2071C178.083 70.8394 178.146 70.4308 178.23 70.0428C178.209 70.5126 178.23 70.9619 178.48 71.3499C178.835 71.881 179.817 71.9831 180.025 71.3908C179.858 70.5534 180.067 69.7365 180.255 68.899C180.297 69.2258 180.359 69.5527 180.401 69.8795C180.673 71.6359 183.763 71.2274 183.575 69.4505C182.782 61.342 181.988 53.3562 179.733 45.7583ZM146.572 70.9619C146.405 70.0223 146.363 69.0828 146.363 68.1229C146.363 67.3264 146.405 66.5298 146.488 65.7333C146.613 66.4686 146.739 67.2038 146.718 67.9391C146.697 68.9807 146.614 69.9611 146.572 70.9619Z" fill="#333333"/>
<path d="M175.516 41.588C175.516 35.5219 170.107 30.6201 163.446 30.6201C156.784 30.6201 151.376 35.5424 151.376 41.588C151.376 42.6093 151.543 43.5692 151.814 44.5087C151.814 44.7538 151.835 44.9989 151.835 45.244C151.794 47.4294 151.898 49.6352 152.337 51.8002C153.193 56.0076 155.406 59.9087 159.604 62.2983C161.003 63.0949 162.611 63.7076 164.281 63.6872C166.537 63.6667 168.604 62.5434 170.17 61.1342C175.328 56.4977 175.788 49.5127 175.412 42.9361C175.474 42.4866 175.516 42.0373 175.516 41.588Z" fill="#7E685F"/>
<path d="M157.955 62.118C158.519 62.8533 159.104 63.6089 159.939 64.1196C160.941 64.7119 162.194 64.8752 163.427 64.8957C164.909 64.9162 166.454 64.7322 167.645 63.9766C168.501 63.4251 170.589 61.7912 171.111 60.9947C172.907 58.3395 174.035 56.5012 174.995 53.5193C175.287 52.6207 175.538 51.6811 175.517 50.7416C175.162 50.5986 174.724 50.8233 174.557 51.1296C174.39 51.4361 174.39 51.7833 174.39 52.1304C174.327 53.9483 173.387 55.6639 172.427 57.2774C171.57 58.7071 169.42 59.9531 168.104 61.0764C166.789 62.1997 164.993 62.9963 163.134 62.8941C162.883 62.8736 162.654 62.8533 162.445 62.7511C161.985 62.5264 161.818 62.0567 161.672 61.6278C161.547 61.1989 161.38 60.7087 160.941 60.4636C160.503 60.2185 159.751 60.4432 159.793 60.8925C159.835 61.1785 160.169 61.4032 160.19 61.689C160.19 62.0158 159.709 62.2201 159.333 62.1385C158.957 62.0567 158.707 61.7708 158.457 61.5052C157.872 60.8721 157.308 60.2594 156.723 59.6262C156.473 59.3606 156.201 59.1361 155.846 59.2994C156.326 60.2797 157.287 61.2193 157.955 62.118Z" fill="#333333"/>
<path d="M175.993 40.6783C175.618 38.7584 175.743 36.5935 174.386 35.0413C173.592 34.1221 172.36 33.8158 171.483 33.0192C170.147 31.8142 170.125 31.1811 168.518 30.5071C162.107 27.811 152.918 32.0184 149.473 37.4716C148.638 38.7992 149.744 40.0247 150.955 40.1677C150.621 41.3931 150.559 42.7413 150.851 44.1709C150.935 44.559 151.603 44.5794 151.666 44.1709C152.981 36.7365 160.791 32.6515 167.557 36.8998C171.379 39.3099 173.425 46.9894 174.365 51.1152C174.762 52.8308 177.372 52.3815 177.413 50.7067C177.497 48.174 176.474 43.1701 175.993 40.6783Z" fill="#333333"/>
<path d="M175.965 50.3544C176.132 50.2728 176.32 50.2114 176.425 50.0685C176.571 49.9051 176.592 49.6805 176.613 49.4558C176.654 48.5979 176.487 47.7605 176.299 46.9231C176.07 45.8814 175.861 44.8194 175.631 43.7778C175.589 43.6144 175.547 43.4306 175.443 43.308C175.318 43.1651 175.109 43.1242 174.942 43.0834C173.731 42.8382 172.499 42.7158 171.287 42.6953C171.246 42.6953 171.183 42.6953 171.141 42.7157C171.079 42.7566 171.079 42.8382 171.079 42.9199C171.1 43.3692 171.204 43.8186 171.287 44.268C171.622 46.1878 171.58 48.1485 171.893 50.048C172.018 50.7629 172.373 51.9475 173.355 51.7432C173.772 51.6616 174.148 51.3756 174.503 51.1509C174.963 50.8651 175.443 50.5791 175.965 50.3544Z" fill="#A8A8A8"/>
<path d="M140.534 108.477C142.205 101.655 143.207 94.6701 145.108 87.8892C147.008 81.1083 149.89 74.4298 154.776 69.3032C155.194 68.8539 155.653 68.4045 156.217 68.1185C156.76 67.8326 157.386 67.71 157.992 67.5875C161.876 66.8318 165.76 66.0966 169.644 65.3408C170.229 65.2183 170.835 65.1162 171.419 65.2591C172.067 65.4225 172.568 65.8923 173.027 66.3824C174.802 68.2002 176.285 70.2836 177.433 72.5097C179.835 77.1665 180.733 82.3748 181.589 87.5217C183.636 99.6334 185.682 111.724 187.707 123.836C187.854 124.694 188 125.613 187.707 126.431C187.457 127.165 186.893 127.738 186.329 128.269C180.169 133.926 171.148 135.375 162.711 135.785C157.741 136.029 152.75 136.009 147.801 135.457C143.207 134.967 136.65 133.497 136.566 128.024C136.42 121.447 138.968 114.829 140.534 108.477Z" fill="#4A4E31"/>
<path d="M187.14 57.8443C190.043 56.2716 193.008 54.6173 195.096 52.0846C196.663 50.1648 197.623 47.8568 198.5 45.5489C201.215 38.482 203.449 31.2518 205.204 23.9196C205.308 23.4906 205.433 23.0208 205.83 22.7961C206.122 22.6328 206.498 22.6532 206.853 22.694C207.918 22.8166 208.983 22.9186 210.048 23.0413C210.466 23.0821 210.904 23.1434 211.197 23.4498C211.552 23.7969 211.531 24.3484 211.51 24.8386C210.842 34.7853 209.046 44.6298 207.25 54.4335C206.853 56.6393 206.415 58.9268 205.245 60.8671C204.264 62.5011 202.802 63.8083 201.382 65.0951C196.767 69.2207 192.131 73.3669 187.099 77.0024C184.488 78.8815 181.586 80.6992 178.349 80.6992C177.722 80.6992 177.075 80.6379 176.553 80.3111C176.01 79.9843 175.655 79.433 175.363 78.8815C173.65 75.8383 170.81 68.9552 173.024 65.5647C174.152 63.8083 177.221 63.073 178.996 62.1743C181.732 60.7854 184.426 59.3149 187.14 57.8443Z" fill="#4A4E31"/>
<path d="M115.954 93.7546C116.539 94.592 117.165 95.4702 118.042 96.0013C119.379 96.8182 121.091 96.7364 122.658 96.5118C128.776 95.6131 134.456 92.9376 140.011 90.3029C144.125 88.3421 148.238 86.4017 152.352 84.4411C153.981 83.6649 155.693 82.8275 156.654 81.3161C157.364 80.2131 157.552 78.8652 157.656 77.558C157.844 75.1683 157.74 72.7583 157.364 70.3687C157.281 69.8377 157.155 69.2657 156.717 68.9389C156.32 68.6326 155.756 68.6531 155.255 68.6939C151.935 69.0207 148.927 70.6955 146.025 72.3294C141.807 74.719 137.589 77.1087 133.37 79.4983C131.01 80.8259 128.651 82.1535 126.103 83.0727C125.435 83.3177 124.704 83.522 124.036 83.3382C123.534 83.2156 123.117 82.8888 122.699 82.5825C117.562 78.5997 112.759 74.2085 108.353 69.4496C107.977 69.0411 107.497 68.5918 106.933 68.6735C106.62 68.7348 106.369 68.9389 106.119 69.1432C104.469 70.5933 101.796 71.9413 102.381 74.2697C102.903 76.3326 105.638 78.9674 106.87 80.7238C109.877 85.0743 112.822 89.4859 115.954 93.7546Z" fill="#4A4E31"/>
<path d="M173.819 39.4805C173.193 39.9094 173.088 40.7672 173.088 41.5229C173.109 44.0759 173.694 46.5677 174.278 49.0594C174.425 49.6722 174.571 50.285 174.863 50.8364C175.156 51.3878 175.636 51.8781 176.241 52.0618C176.909 52.2661 177.661 52.0823 178.204 51.6738C178.935 51.1428 179.332 50.2645 179.457 49.3863C179.583 48.5081 179.499 47.6093 179.395 46.7311C179.186 44.9337 178.935 43.1365 178.309 41.4412C178.1 40.8489 177.808 40.2361 177.348 39.7868C176.638 39.072 174.696 38.8677 173.819 39.4805Z" fill="#F0F0F0"/>
<path d="M177.28 41.2391C176.988 41.6885 176.988 42.2604 177.05 42.7914C177.217 44.4867 177.718 46.1206 178.22 47.7545C178.366 48.2243 178.595 48.7758 179.097 48.8167C179.452 48.8575 179.765 48.592 179.911 48.2652C180.057 47.9587 180.057 47.5912 180.057 47.2644C180.057 46.1819 180.057 45.079 179.849 43.9965C179.682 43.2612 178.512 39.4419 177.28 41.2391Z" fill="#BFBFBF"/>
<path d="M179.061 41.0226C178.79 39.7154 178.769 38.347 178.351 37.0807C178.017 36.0391 177.432 35.0995 176.848 34.16C176.18 33.0775 175.491 31.9746 174.593 31.0555C173.131 29.5849 171.168 28.7067 169.184 28.1144C164.736 26.8072 159.787 26.9094 155.59 28.8497C151.559 30.7083 148.343 34.3847 147.424 38.633C147.404 38.735 147.362 38.8576 147.341 38.9597C147.32 39.021 147.299 39.0823 147.299 39.1435C147.299 39.2048 147.299 39.2457 147.299 39.307C147.278 39.45 147.237 39.6133 147.237 39.7563C147.216 40.2669 147.257 40.7774 147.32 41.3085C147.445 42.5952 147.571 43.882 147.696 45.1482C147.696 45.2504 147.717 45.3729 147.759 45.4547C147.926 45.761 148.385 45.7406 148.74 45.6794C148.824 45.6589 148.907 45.6385 148.97 45.5977C149.053 45.5159 149.053 45.3934 149.033 45.2709C148.991 44.8827 148.782 44.5151 148.636 44.1475C148.364 43.4123 148.322 42.6157 148.322 41.8192C148.322 40.7162 148.406 39.6133 148.573 38.5103C148.615 38.2653 148.803 37.775 148.698 37.4687C149.116 36.7334 149.575 36.0391 150.056 35.3446C151.392 33.4044 152.791 31.4028 154.879 30.2793C155.777 29.7892 156.78 29.5032 157.782 29.299C161.708 28.482 165.885 28.8906 169.539 30.504C170.312 30.8513 171.084 31.2393 171.753 31.7499C172.212 32.1176 172.63 32.5261 173.068 32.9346C173.924 33.7311 174.864 34.4868 175.574 35.4263C177.871 38.49 177.224 42.8404 178.999 46.2104C179.103 46.4147 179.249 46.6393 179.479 46.6597C179.917 46.7413 180.126 46.149 180.126 45.7202C180.022 44.1475 179.375 42.6157 179.061 41.0226Z" fill="#F0F0F0"/>
<path d="M147.046 46.3006C146.962 48.2614 147.38 50.1813 147.818 52.1011C148.111 53.3675 148.445 54.7358 149.489 55.5733C150.115 56.0839 151.076 56.2881 151.702 55.8184C152.35 55.3281 152.392 54.4091 152.35 53.5922C152.204 50.937 151.87 48.2001 150.763 45.7492C150.408 44.9527 149.781 43.4821 148.654 43.5841C147.401 43.7067 147.087 45.3202 147.046 46.3006Z" fill="#BFBFBF"/>
<path d="M149.517 54.6434C149.914 54.8273 150.373 54.8478 150.812 54.8681C155.113 55.052 158.893 54.2555 163.717 53.7244C164.844 53.6018 165.596 53.3771 166.724 53.2342C167.58 53.132 168.77 52.9074 169.627 52.8257C170.859 52.7032 171.986 52.3151 173.177 52.0087C173.323 51.9679 173.49 51.9271 173.573 51.8044C173.678 51.6819 173.657 51.4981 173.615 51.3347C173.218 48.8634 172.822 46.4125 172.425 43.9411C172.383 43.6551 172.341 43.3693 172.174 43.1446C171.757 42.5318 170.859 42.5523 170.107 42.6543C163.341 43.6143 156.638 45.4525 149.788 45.2892C149.287 45.2687 148.702 45.3095 148.431 45.718C148.327 45.861 148.306 46.0448 148.264 46.2286C147.992 47.9034 148.264 49.5578 148.076 51.2121C147.992 52.458 148.18 54.0511 149.517 54.6434Z" fill="#BFBFBF"/>
<path d="M155.116 44.0214C156.495 43.7967 157.873 43.5721 159.272 43.4904C160.65 43.4087 162.029 43.4904 163.386 43.3271C165.495 43.0819 167.563 42.3058 169.693 42.1628C170.361 42.122 171.092 42.1833 171.551 42.7143C171.906 43.1227 172.031 43.7151 172.115 44.287C172.47 46.309 172.762 48.331 173.013 50.3734C173.055 50.6389 173.075 50.9452 172.971 51.1904C172.867 51.4559 172.637 51.6397 172.407 51.7622C171.781 52.1095 171.071 52.2117 170.382 52.2933C165.307 52.9673 160.233 53.6413 155.158 54.3153C153.154 54.5808 151.024 54.8259 149.228 53.7638C148.998 53.6208 148.747 53.4575 148.622 53.192C148.476 52.906 148.455 52.5792 148.455 52.2525C148.413 50.9044 148.413 49.5768 148.413 48.2289C148.413 47.3914 148.142 45.8393 148.747 45.206C149.332 44.5933 150.857 44.675 151.608 44.5525C152.778 44.4095 153.947 44.2052 155.116 44.0214Z" fill="#F0F0F0"/>
<path d="M170.172 43.4072C169.984 43.305 169.755 43.2847 169.546 43.2847C169.107 43.2847 167.959 43.3255 167.708 43.7545C167.52 44.0608 167.708 44.7349 168.063 44.8779C168.168 44.9188 168.314 44.9188 168.418 44.9188C168.857 44.8984 169.295 44.8575 169.713 44.7553C169.901 44.7145 170.089 44.6737 170.235 44.551C170.59 44.2651 170.548 43.6318 170.172 43.4072Z" fill="#4D4D4D"/>
<path d="M166.303 44.3688C166.283 44.594 166.597 44.7576 166.806 44.6348C167.057 44.4916 166.868 44.1643 166.868 44.1643C166.659 44.0211 166.324 44.1438 166.303 44.3688Z" fill="#4D4D4D"/>
<path d="M182.69 241.708C183.755 241.708 184.904 241.913 185.697 242.586C186.595 243.362 186.908 244.589 187.18 245.712C187.409 246.631 187.618 247.55 187.848 248.469C187.869 248.571 187.89 248.673 187.848 248.775C187.785 248.919 187.597 248.98 187.451 249.021C185.112 249.592 174.88 251.267 173.773 248.244C173.251 246.794 175.903 244.405 176.927 243.669C178.576 242.465 180.602 241.729 182.69 241.708Z" fill="#E0C74E"/>
<path d="M96.95 85.5217C97.5138 84.1329 97.7643 82.7235 97.9732 81.2325C98.0776 80.3952 96.7202 80.3952 96.6158 81.2325C96.4278 82.7235 96.1355 83.9489 95.6135 85.3378C95.2585 86.2773 94.9454 87.1556 95.008 88.1769C95.1125 89.9945 96.2608 91.4243 97.4093 92.7519C97.5973 92.9765 97.9942 92.6906 97.8062 92.4455C96.1565 90.1375 95.9058 88.1156 96.95 85.5217Z" fill="#BFBFBF"/>
<path d="M103.971 57.1696C103.323 56.6589 102.593 56.2709 101.82 55.9849C101.193 55.7603 100.4 55.6581 99.9614 56.1484C99.7734 56.3526 99.6898 56.6386 99.6481 56.9245C99.481 57.7619 99.5019 58.6197 99.4393 59.4776C99.2722 61.4792 98.6248 63.3786 98.0401 65.2985C96.8498 69.2403 95.9727 73.264 95.4089 77.3284C95.3671 77.696 95.3045 78.0637 95.4089 78.4108C95.5133 78.7377 95.7221 79.0236 95.9309 79.3096C96.4948 80.1469 96.9334 81.1273 97.8104 81.6583C98.9589 82.3732 100.692 81.9035 101.319 80.7189C101.715 79.9631 101.695 79.0849 101.778 78.2475L101.861 77.0834C102.384 73.3661 102.906 69.6285 103.428 65.9112C103.741 63.6441 104.054 61.377 104.66 59.1711C104.743 58.8443 104.848 58.5176 104.785 58.1908C104.66 57.8027 104.305 57.4555 103.971 57.1696Z" fill="#F0F0F0"/>
<path d="M100.732 56.6396C99.4995 55.8021 98.6224 54.4745 98.3509 53.0244C98.1421 51.9623 98.2464 50.8595 98.5179 49.8178C98.7267 49.0009 99.0818 48.1634 99.6874 47.5506C100.105 47.1218 100.669 46.795 101.233 46.5907C103.279 45.7942 105.743 46.1414 107.435 47.4894C109.147 48.8374 109.982 51.1658 109.523 53.2491C108.646 57.0889 104.01 58.8862 100.732 56.6396Z" fill="#BFBFBF"/>
<path d="M220.02 32.8907C220.521 31.4814 220.73 30.0721 220.876 28.5812C220.959 27.7234 219.582 27.7846 219.519 28.622C219.394 30.113 219.143 31.3589 218.684 32.7682C218.371 33.7281 218.078 34.6063 218.183 35.6275C218.371 37.4453 219.54 38.8137 220.751 40.1005C220.94 40.3047 221.314 40.0187 221.147 39.7737C219.394 37.5475 219.06 35.5254 220.02 32.8907Z" fill="#BFBFBF"/>
<path d="M204.237 8.76434C203.444 8.94816 202.671 9.27492 201.961 9.70384C201.397 10.0511 200.833 10.6025 200.959 11.2561C201.021 11.5216 201.188 11.7667 201.397 11.971C201.982 12.6041 202.692 13.1148 203.339 13.7071C204.843 15.055 205.991 16.7298 207.182 18.3639C209.625 21.6929 212.34 24.8383 215.284 27.7793C215.535 28.0449 215.827 28.3105 216.161 28.433C216.495 28.5555 216.85 28.5555 217.205 28.5963C218.228 28.6576 219.294 28.9231 220.254 28.576C221.528 28.1266 222.217 26.5131 221.653 25.2876C221.298 24.5115 220.567 24.0008 219.941 23.429L219.043 22.6529C216.349 19.9773 213.655 17.2813 210.961 14.6057C209.332 12.9718 207.683 11.3378 206.263 9.52003C206.054 9.25451 205.845 8.96858 205.532 8.8256C205.177 8.62136 204.676 8.68264 204.237 8.76434Z" fill="#F0F0F0"/>
<path d="M201.834 10.9519C200.393 11.3808 198.785 11.2583 197.449 10.5843C196.467 10.0941 195.632 9.3384 194.964 8.48057C194.421 7.80656 193.961 7.05081 193.836 6.19299C193.752 5.60068 193.836 4.98801 194.003 4.3957C194.609 2.33284 196.404 0.637587 198.535 0.147402C200.665 -0.342782 203.066 0.412924 204.465 2.0673C207.054 5.11052 205.655 9.7877 201.834 10.9519Z" fill="#BFBFBF"/>
<defs>
<linearGradient id="paint0_linear_331_10602" x1="410.236" y1="244.838" x2="348.297" y2="244.838" gradientUnits="userSpaceOnUse">
<stop stop-color="#4D4D4D"/>
<stop offset="1"/>
</linearGradient>
<linearGradient id="paint1_linear_331_10602" x1="410.236" y1="244.838" x2="348.297" y2="244.838" gradientUnits="userSpaceOnUse">
<stop/>
<stop offset="1"/>
</linearGradient>
</defs>
</svg>
