<svg width="373" height="384" viewBox="0 0 373 384" fill="none" xmlns="http://www.w3.org/2000/svg">
<path d="M332 192C332 269.32 269.32 332 192 332C114.68 332 52 269.32 52 192C52 114.68 114.68 52 192 52C269.32 52 332 114.68 332 192ZM66 192C66 261.588 122.412 318 192 318C261.588 318 318 261.588 318 192C318 122.412 261.588 66 192 66C122.412 66 66 122.412 66 192Z" fill="#34495E"/>
<g filter="url(#filter0_d_341_368)">
<path d="M344 192C344 275.947 275.947 344 192 344C108.053 344 40 275.947 40 192C40 108.053 108.053 40 192 40C275.947 40 344 108.053 344 192ZM43.04 192C43.04 274.268 109.732 340.96 192 340.96C274.268 340.96 340.96 274.268 340.96 192C340.96 109.732 274.268 43.04 192 43.04C109.732 43.04 43.04 109.732 43.04 192Z" fill="#D9D9D9"/>
</g>
<path d="M44 42H4V6H8V38H12V34H20V38H24V32H32V38H36V34H44V42ZM36 28H44V32H36V28ZM24 12H32V18H24V12ZM32 30H24V20H32V30ZM12 20H20V24H12V20ZM20 32H12V26H20V32Z" fill="#34495E"/>
<path d="M2.80717 89H0.416548L4.76918 76.6364H7.53409L11.8928 89H9.50213L6.19993 79.1719H6.10334L2.80717 89ZM2.88565 84.1523H9.40554V85.9513H2.88565V84.1523ZM15.21 83.5668V89H13.0246V79.7273H15.1134V81.3029H15.2221C15.4354 80.7837 15.7755 80.3712 16.2423 80.0653C16.7132 79.7595 17.2948 79.6065 17.987 79.6065C18.6269 79.6065 19.1843 79.7434 19.6592 80.017C20.1381 80.2907 20.5084 80.6871 20.77 81.2063C21.0356 81.7255 21.1664 82.3554 21.1624 83.0959V89H18.977V83.4339C18.977 82.8142 18.8161 82.3292 18.4941 81.979C18.1761 81.6289 17.7354 81.4538 17.172 81.4538C16.7897 81.4538 16.4496 81.5384 16.1518 81.7074C15.858 81.8724 15.6265 82.1119 15.4575 82.4258C15.2925 82.7397 15.21 83.12 15.21 83.5668ZM25.6523 89.1871C25.0647 89.1871 24.5355 89.0825 24.0646 88.8732C23.5978 88.6599 23.2275 88.346 22.9538 87.9315C22.6842 87.5169 22.5493 87.0058 22.5493 86.3981C22.5493 85.8749 22.6459 85.4422 22.8391 85.1001C23.0323 84.758 23.2959 84.4844 23.63 84.2791C23.964 84.0739 24.3403 83.9189 24.7589 83.8143C25.1814 83.7056 25.6181 83.6271 26.0689 83.5788C26.6122 83.5225 27.0529 83.4722 27.391 83.4279C27.729 83.3796 27.9745 83.3072 28.1275 83.2106C28.2844 83.11 28.3629 82.955 28.3629 82.7457V82.7095C28.3629 82.2547 28.2281 81.9026 27.9584 81.6531C27.6888 81.4035 27.3004 81.2788 26.7933 81.2788C26.258 81.2788 25.8334 81.3955 25.5195 81.6289C25.2096 81.8623 25.0003 82.138 24.8917 82.456L22.8512 82.1662C23.0122 81.6027 23.2778 81.1319 23.6481 80.7536C24.0183 80.3712 24.4711 80.0855 25.0064 79.8963C25.5416 79.7031 26.1333 79.6065 26.7812 79.6065C27.228 79.6065 27.6727 79.6589 28.1154 79.7635C28.5581 79.8681 28.9626 80.0412 29.3288 80.2827C29.6951 80.5201 29.9889 80.8441 30.2102 81.2546C30.4356 81.6651 30.5483 82.1783 30.5483 82.794V89H28.4474V87.7262H28.375C28.2422 87.9838 28.055 88.2253 27.8135 88.4506C27.5761 88.672 27.2763 88.8511 26.914 88.9879C26.5559 89.1207 26.1353 89.1871 25.6523 89.1871ZM26.2198 87.5813C26.6585 87.5813 27.0388 87.4948 27.3608 87.3217C27.6827 87.1446 27.9303 86.9112 28.1033 86.6214C28.2804 86.3317 28.3689 86.0157 28.3689 85.6737V84.581C28.3005 84.6373 28.1838 84.6896 28.0188 84.7379C27.8578 84.7862 27.6767 84.8285 27.4755 84.8647C27.2742 84.9009 27.075 84.9331 26.8778 84.9613C26.6806 84.9895 26.5096 85.0136 26.3647 85.0337C26.0387 85.078 25.7469 85.1504 25.4893 85.2511C25.2318 85.3517 25.0285 85.4925 24.8796 85.6737C24.7307 85.8507 24.6562 86.0801 24.6562 86.3619C24.6562 86.7643 24.8031 87.0682 25.0969 87.2734C25.3907 87.4787 25.765 87.5813 26.2198 87.5813ZM34.5311 76.6364V89H32.3457V76.6364H34.5311ZM37.7366 92.4773C37.4388 92.4773 37.1631 92.4531 36.9096 92.4048C36.6601 92.3606 36.4608 92.3082 36.3119 92.2479L36.819 90.5455C37.137 90.638 37.4207 90.6823 37.6702 90.6783C37.9198 90.6742 38.1391 90.5958 38.3283 90.4428C38.5215 90.2939 38.6844 90.0444 38.8173 89.6942L39.0044 89.1932L35.6418 79.7273H37.96L40.0971 86.7301H40.1937L42.3368 79.7273H44.661L40.9483 90.1229C40.7752 90.6139 40.5458 91.0344 40.2601 91.3846C39.9743 91.7388 39.6242 92.0084 39.2097 92.1935C38.7991 92.3827 38.3081 92.4773 37.7366 92.4773ZM53.1021 82.1783L51.1099 82.3956C51.0536 82.1944 50.955 82.0052 50.8141 81.8281C50.6773 81.651 50.4921 81.5082 50.2587 81.3995C50.0253 81.2908 49.7395 81.2365 49.4015 81.2365C48.9467 81.2365 48.5643 81.3351 48.2544 81.5323C47.9486 81.7295 47.7976 81.9851 47.8017 82.299C47.7976 82.5687 47.8962 82.788 48.0975 82.957C48.3027 83.1261 48.6408 83.2649 49.1117 83.3736L50.6934 83.7116C51.5707 83.9008 52.2227 84.2006 52.6493 84.6112C53.08 85.0217 53.2973 85.5589 53.3013 86.223C53.2973 86.8066 53.1262 87.3217 52.7882 87.7685C52.4541 88.2112 51.9893 88.5573 51.3936 88.8068C50.798 89.0563 50.1138 89.1811 49.3411 89.1811C48.2061 89.1811 47.2926 88.9437 46.6003 88.4688C45.9081 87.9898 45.4956 87.3237 45.3627 86.4705L47.4938 86.2653C47.5904 86.6838 47.7956 86.9998 48.1096 87.2131C48.4235 87.4264 48.832 87.533 49.335 87.533C49.8542 87.533 50.2708 87.4264 50.5847 87.2131C50.9026 86.9998 51.0616 86.7362 51.0616 86.4222C51.0616 86.1566 50.959 85.9373 50.7537 85.7642C50.5525 85.5911 50.2386 85.4583 49.812 85.3658L48.2303 85.0337C47.3409 84.8486 46.6828 84.5367 46.2562 84.098C45.8296 83.6553 45.6183 83.0959 45.6223 82.4197C45.6183 81.8482 45.7733 81.3532 46.0872 80.9347C46.4051 80.5121 46.8458 80.1861 47.4093 79.9567C47.9767 79.7232 48.6307 79.6065 49.3713 79.6065C50.4579 79.6065 51.3132 79.8379 51.937 80.3008C52.5648 80.7636 52.9532 81.3894 53.1021 82.1783ZM54.7033 89V79.7273H56.8887V89H54.7033ZM55.8021 78.4112C55.4559 78.4112 55.1581 78.2965 54.9086 78.0671C54.6591 77.8337 54.5343 77.554 54.5343 77.228C54.5343 76.898 54.6591 76.6183 54.9086 76.3888C55.1581 76.1554 55.4559 76.0387 55.8021 76.0387C56.1522 76.0387 56.45 76.1554 56.6955 76.3888C56.9451 76.6183 57.0698 76.898 57.0698 77.228C57.0698 77.554 56.9451 77.8337 56.6955 78.0671C56.45 78.2965 56.1522 78.4112 55.8021 78.4112ZM66.0648 82.1783L64.0726 82.3956C64.0163 82.1944 63.9177 82.0052 63.7768 81.8281C63.64 81.651 63.4548 81.5082 63.2214 81.3995C62.988 81.2908 62.7022 81.2365 62.3642 81.2365C61.9094 81.2365 61.527 81.3351 61.2171 81.5323C60.9113 81.7295 60.7603 81.9851 60.7644 82.299C60.7603 82.5687 60.8589 82.788 61.0602 82.957C61.2654 83.1261 61.6035 83.2649 62.0744 83.3736L63.6561 83.7116C64.5334 83.9008 65.1854 84.2006 65.612 84.6112C66.0427 85.0217 66.26 85.5589 66.264 86.223C66.26 86.8066 66.0889 87.3217 65.7509 87.7685C65.4168 88.2112 64.952 88.5573 64.3563 88.8068C63.7607 89.0563 63.0765 89.1811 62.3038 89.1811C61.1688 89.1811 60.2553 88.9437 59.563 88.4688C58.8708 87.9898 58.4583 87.3237 58.3254 86.4705L60.4565 86.2653C60.5531 86.6838 60.7583 86.9998 61.0722 87.2131C61.3862 87.4264 61.7947 87.533 62.2977 87.533C62.8169 87.533 63.2335 87.4264 63.5474 87.2131C63.8653 86.9998 64.0243 86.7362 64.0243 86.4222C64.0243 86.1566 63.9217 85.9373 63.7164 85.7642C63.5152 85.5911 63.2013 85.4583 62.7747 85.3658L61.193 85.0337C60.3035 84.8486 59.6455 84.5367 59.2189 84.098C58.7923 83.6553 58.581 83.0959 58.585 82.4197C58.581 81.8482 58.736 81.3532 59.0499 80.9347C59.3678 80.5121 59.8085 80.1861 60.372 79.9567C60.9394 79.7232 61.5934 79.6065 62.334 79.6065C63.4206 79.6065 64.2758 79.8379 64.8997 80.3008C65.5275 80.7636 65.9159 81.3894 66.0648 82.1783Z" fill="black"/>
<path d="M1.14489 68V58.5455H4.33949C5.0812 58.5455 5.6875 58.6793 6.15838 58.9471C6.63234 59.2118 6.98319 59.5703 7.21094 60.0227C7.43868 60.4751 7.55256 60.9799 7.55256 61.5369C7.55256 62.094 7.43868 62.6003 7.21094 63.0558C6.98627 63.5112 6.63849 63.8744 6.16761 64.1452C5.69673 64.413 5.09351 64.5469 4.35795 64.5469H2.06818V63.5312H4.32102C4.82884 63.5312 5.23662 63.4435 5.54439 63.2681C5.85215 63.0927 6.07528 62.8557 6.21378 62.5572C6.35535 62.2556 6.42614 61.9155 6.42614 61.5369C6.42614 61.1584 6.35535 60.8198 6.21378 60.5213C6.07528 60.2228 5.85062 59.9889 5.53977 59.8196C5.22893 59.6473 4.81652 59.5611 4.30256 59.5611H2.28977V68H1.14489ZM9.9386 63.7344V68H8.84911V58.5455H9.9386V62.017H10.0309C10.1971 61.6508 10.4464 61.36 10.7788 61.1445C11.1143 60.926 11.5605 60.8168 12.1176 60.8168C12.6008 60.8168 13.0239 60.9137 13.3871 61.1076C13.7503 61.2984 14.0319 61.5923 14.2319 61.9893C14.435 62.3833 14.5366 62.8849 14.5366 63.4943V68H13.4471V63.5682C13.4471 63.005 13.3009 62.5695 13.0086 62.2617C12.7193 61.9509 12.3176 61.7955 11.8037 61.7955C11.4467 61.7955 11.1266 61.8709 10.8434 62.0217C10.5634 62.1725 10.3418 62.3925 10.1787 62.6818C10.0186 62.9711 9.9386 63.322 9.9386 63.7344ZM18.2164 68.1662C17.7671 68.1662 17.3593 68.0816 16.9931 67.9123C16.6268 67.7399 16.336 67.4922 16.1205 67.169C15.9051 66.8428 15.7974 66.4489 15.7974 65.9872C15.7974 65.581 15.8774 65.2517 16.0374 64.9993C16.1975 64.7438 16.4114 64.5438 16.6791 64.3991C16.9469 64.2545 17.2423 64.1468 17.5655 64.076C17.8917 64.0021 18.2195 63.9437 18.5488 63.9006C18.9797 63.8452 19.329 63.8036 19.5968 63.7759C19.8676 63.7451 20.0646 63.6944 20.1877 63.6236C20.3138 63.5528 20.3769 63.4297 20.3769 63.2543V63.2173C20.3769 62.7618 20.2523 62.4079 20.003 62.1555C19.7568 61.9032 19.3829 61.777 18.8812 61.777C18.3611 61.777 17.9533 61.8909 17.6578 62.1186C17.3624 62.3464 17.1546 62.5895 17.0346 62.848L16.0005 62.4787C16.1852 62.0478 16.4314 61.7124 16.7392 61.4723C17.05 61.2292 17.3885 61.0599 17.7548 60.9645C18.1241 60.866 18.4873 60.8168 18.8443 60.8168C19.072 60.8168 19.3336 60.8445 19.6291 60.8999C19.9276 60.9522 20.2154 61.0614 20.4923 61.2276C20.7724 61.3938 21.0048 61.6446 21.1894 61.9801C21.3741 62.3156 21.4664 62.7649 21.4664 63.3281V68H20.3769V67.0398H20.3215C20.2477 67.1937 20.1246 67.3583 19.9522 67.5337C19.7799 67.7092 19.5506 67.8584 19.2644 67.9815C18.9781 68.1046 18.6288 68.1662 18.2164 68.1662ZM18.3826 67.1875C18.8135 67.1875 19.1767 67.1029 19.4721 66.9336C19.7706 66.7643 19.9953 66.5458 20.1461 66.2781C20.3 66.0103 20.3769 65.7287 20.3769 65.4332V64.4361C20.3308 64.4915 20.2292 64.5423 20.0722 64.5884C19.9184 64.6315 19.7399 64.67 19.5367 64.7038C19.3367 64.7346 19.1413 64.7623 18.9504 64.7869C18.7627 64.8085 18.6104 64.8269 18.4934 64.8423C18.2103 64.8793 17.9456 64.9393 17.6994 65.0224C17.4562 65.1024 17.2593 65.224 17.1085 65.3871C16.9607 65.5471 16.8869 65.7656 16.8869 66.0426C16.8869 66.4212 17.0269 66.7074 17.307 66.9013C17.5901 67.0921 17.9487 67.1875 18.3826 67.1875ZM28.0777 62.4972L27.099 62.7741C27.0375 62.611 26.9467 62.4525 26.8266 62.2987C26.7097 62.1417 26.5496 62.0124 26.3465 61.9109C26.1434 61.8093 25.8833 61.7585 25.5663 61.7585C25.1324 61.7585 24.7708 61.8585 24.4815 62.0586C24.1952 62.2556 24.0521 62.5064 24.0521 62.8111C24.0521 63.0819 24.1506 63.2958 24.3476 63.4528C24.5446 63.6097 24.8523 63.7405 25.2709 63.8452L26.3234 64.1037C26.9574 64.2576 27.4299 64.493 27.7407 64.81C28.0515 65.1239 28.207 65.5286 28.207 66.0241C28.207 66.4304 28.09 66.7936 27.8561 67.1136C27.6253 67.4337 27.3021 67.6861 26.8866 67.8707C26.4712 68.0554 25.988 68.1477 25.4371 68.1477C24.7138 68.1477 24.1152 67.9908 23.6413 67.6768C23.1673 67.3629 22.8672 66.9044 22.7411 66.3011L23.7751 66.0426C23.8736 66.4242 24.0598 66.7105 24.3337 66.9013C24.6107 67.0921 24.9723 67.1875 25.4186 67.1875C25.9264 67.1875 26.3296 67.0798 26.6281 66.8643C26.9297 66.6458 27.0805 66.3842 27.0805 66.0795C27.0805 65.8333 26.9944 65.6271 26.822 65.4609C26.6497 65.2917 26.385 65.1655 26.028 65.0824L24.8462 64.8054C24.1968 64.6515 23.7197 64.413 23.4151 64.0898C23.1134 63.7636 22.9626 63.3558 22.9626 62.8665C22.9626 62.4664 23.075 62.1125 23.2996 61.8047C23.5274 61.4969 23.8367 61.2553 24.2276 61.0799C24.6215 60.9045 25.0678 60.8168 25.5663 60.8168C26.268 60.8168 26.8189 60.9706 27.219 61.2784C27.6222 61.5862 27.9084 61.9924 28.0777 62.4972ZM32.42 68.1477C31.7367 68.1477 31.1474 67.9969 30.6519 67.6953C30.1594 67.3906 29.7793 66.9659 29.5116 66.4212C29.2469 65.8733 29.1146 65.2363 29.1146 64.5099C29.1146 63.7836 29.2469 63.1435 29.5116 62.5895C29.7793 62.0324 30.1517 61.5985 30.6288 61.2876C31.1089 60.9737 31.669 60.8168 32.3092 60.8168C32.6785 60.8168 33.0432 60.8783 33.4033 61.0014C33.7634 61.1245 34.0911 61.3246 34.3866 61.6016C34.682 61.8755 34.9175 62.2386 35.0929 62.6911C35.2683 63.1435 35.3561 63.7005 35.3561 64.3622V64.8239H29.8901V63.8821H34.2481C34.2481 63.482 34.1681 63.125 34.008 62.8111C33.8511 62.4972 33.6264 62.2494 33.334 62.0678C33.0447 61.8862 32.7031 61.7955 32.3092 61.7955C31.8752 61.7955 31.4998 61.9032 31.1828 62.1186C30.8688 62.331 30.6272 62.608 30.458 62.9496C30.2887 63.2912 30.2041 63.6574 30.2041 64.0483V64.6761C30.2041 65.2116 30.2964 65.6656 30.4811 66.038C30.6688 66.4073 30.9289 66.6889 31.2612 66.8828C31.5936 67.0736 31.9799 67.169 32.42 67.169C32.7062 67.169 32.9647 67.129 33.1955 67.049C33.4294 66.9659 33.631 66.8428 33.8003 66.6797C33.9696 66.5135 34.1004 66.3073 34.1927 66.0611L35.2453 66.3565C35.1345 66.7135 34.9483 67.0275 34.6867 67.2983C34.4251 67.5661 34.1019 67.7753 33.7172 67.9261C33.3325 68.0739 32.9001 68.1477 32.42 68.1477ZM43.175 58.5455V68H42.0301V59.7457H41.9747L39.6665 61.2784V60.1151L42.0301 58.5455H43.175Z" fill="black"/>
<path d="M26.2601 332.38L23.0001 324.72C26.1401 323.56 29.0801 322 31.8001 320.18L26.2601 332.38ZM11.2801 313L3.62012 309.74L15.8201 304.2C14.0001 306.92 12.4401 309.86 11.2801 313ZM43.2201 292.78C43.2201 292.78 33.3201 288.538 22.0001 299.86C17.6201 304.24 15.0001 309.06 13.3001 313.28C12.7401 314.78 13.1201 316.42 14.2201 317.54L18.4801 321.78C19.5801 322.9 21.2201 323.26 22.7201 322.7C27.0001 321.06 31.7601 318.38 36.1401 314C47.4601 302.68 43.2201 292.78 43.2201 292.78ZM29.0801 306.92C27.5201 305.36 27.5201 302.82 29.0801 301.26C30.6401 299.7 33.1801 299.7 34.7401 301.26C36.2801 302.82 36.3001 305.36 34.7401 306.92C33.1801 308.48 30.6401 308.48 29.0801 306.92ZM12.4801 332L19.7601 324.72C19.0801 324.54 18.4201 324.24 17.8201 323.82L9.66012 332H12.4801ZM4.00012 332H6.82012L16.3601 322.48L13.5201 319.66L4.00012 329.18V332ZM4.00012 326.34L12.1801 318.18C11.7601 317.58 11.4601 316.94 11.2801 316.24L4.00012 323.52V326.34Z" fill="#34495E"/>
<path d="M5.40909 377H1.21946V364.636H5.49361C6.72112 364.636 7.77557 364.884 8.65696 365.379C9.54238 365.87 10.2225 366.576 10.6974 367.498C11.1723 368.42 11.4098 369.522 11.4098 370.806C11.4098 372.094 11.1703 373.201 10.6914 374.126C10.2165 375.052 9.5303 375.762 8.63281 376.257C7.73935 376.752 6.66477 377 5.40909 377ZM3.45916 375.062H5.30043C6.1617 375.062 6.88009 374.905 7.45561 374.591C8.03113 374.273 8.46378 373.8 8.75355 373.173C9.04332 372.541 9.18821 371.752 9.18821 370.806C9.18821 369.86 9.04332 369.076 8.75355 368.452C8.46378 367.824 8.03516 367.355 7.46769 367.045C6.90424 366.731 6.20395 366.574 5.36683 366.574H3.45916V375.062ZM17.1463 377.181C16.2167 377.181 15.4137 376.988 14.7376 376.602C14.0655 376.211 13.5483 375.66 13.1861 374.947C12.8239 374.231 12.6428 373.388 12.6428 372.418C12.6428 371.464 12.8239 370.627 13.1861 369.907C13.5524 369.182 14.0635 368.619 14.7195 368.216C15.3755 367.81 16.1462 367.607 17.0316 367.607C17.6031 367.607 18.1424 367.699 18.6495 367.884C19.1607 368.065 19.6114 368.347 20.0018 368.729C20.3962 369.112 20.7061 369.599 20.9315 370.19C21.1569 370.778 21.2696 371.478 21.2696 372.291V372.961H13.6691V371.488H19.1748C19.1707 371.07 19.0802 370.697 18.9031 370.371C18.726 370.041 18.4785 369.782 18.1605 369.593C17.8466 369.404 17.4804 369.309 17.0618 369.309C16.6151 369.309 16.2227 369.418 15.8846 369.635C15.5466 369.848 15.2829 370.13 15.0938 370.48C14.9087 370.826 14.8141 371.207 14.8101 371.621V372.907C14.8101 373.446 14.9087 373.909 15.1059 374.295C15.3031 374.678 15.5788 374.972 15.9329 375.177C16.2871 375.378 16.7016 375.479 17.1765 375.479C17.4945 375.479 17.7822 375.434 18.0398 375.346C18.2974 375.253 18.5208 375.118 18.7099 374.941C18.8991 374.764 19.0419 374.545 19.1385 374.283L21.179 374.513C21.0502 375.052 20.8047 375.523 20.4425 375.925C20.0843 376.324 19.6255 376.634 19.0661 376.855C18.5067 377.072 17.8667 377.181 17.1463 377.181ZM22.7184 380.477V367.727H24.8675V369.261H24.9943C25.107 369.035 25.266 368.796 25.4712 368.542C25.6765 368.285 25.9542 368.065 26.3043 367.884C26.6545 367.699 27.1012 367.607 27.6445 367.607C28.3609 367.607 29.0068 367.79 29.5824 368.156C30.1619 368.518 30.6207 369.055 30.9588 369.768C31.3009 370.476 31.4719 371.345 31.4719 372.376C31.4719 373.394 31.3049 374.259 30.9709 374.972C30.6368 375.684 30.182 376.227 29.6065 376.602C29.031 376.976 28.379 377.163 27.6506 377.163C27.1193 377.163 26.6786 377.074 26.3285 376.897C25.9783 376.72 25.6966 376.507 25.4833 376.257C25.274 376.004 25.111 375.764 24.9943 375.539H24.9037V380.477H22.7184ZM24.8615 372.364C24.8615 372.963 24.946 373.489 25.115 373.939C25.2881 374.39 25.5356 374.742 25.8576 374.996C26.1836 375.245 26.578 375.37 27.0408 375.37C27.5238 375.37 27.9283 375.241 28.2542 374.984C28.5802 374.722 28.8257 374.366 28.9908 373.915C29.1598 373.46 29.2443 372.943 29.2443 372.364C29.2443 371.788 29.1618 371.277 28.9968 370.83C28.8318 370.384 28.5863 370.033 28.2603 369.78C27.9343 369.526 27.5278 369.4 27.0408 369.4C26.574 369.4 26.1775 369.522 25.8515 369.768C25.5256 370.013 25.278 370.357 25.109 370.8C24.944 371.243 24.8615 371.764 24.8615 372.364ZM35.1287 364.636V377H32.9434V364.636H35.1287ZM41.0207 377.181C40.1152 377.181 39.3304 376.982 38.6663 376.583C38.0023 376.185 37.4871 375.628 37.1209 374.911C36.7587 374.195 36.5776 373.358 36.5776 372.4C36.5776 371.442 36.7587 370.603 37.1209 369.882C37.4871 369.162 38.0023 368.603 38.6663 368.204C39.3304 367.806 40.1152 367.607 41.0207 367.607C41.9263 367.607 42.7111 367.806 43.3751 368.204C44.0392 368.603 44.5523 369.162 44.9146 369.882C45.2808 370.603 45.4639 371.442 45.4639 372.4C45.4639 373.358 45.2808 374.195 44.9146 374.911C44.5523 375.628 44.0392 376.185 43.3751 376.583C42.7111 376.982 41.9263 377.181 41.0207 377.181ZM41.0328 375.43C41.5238 375.43 41.9343 375.296 42.2643 375.026C42.5944 374.752 42.8399 374.386 43.0009 373.927C43.1659 373.468 43.2484 372.957 43.2484 372.394C43.2484 371.826 43.1659 371.313 43.0009 370.854C42.8399 370.392 42.5944 370.023 42.2643 369.75C41.9343 369.476 41.5238 369.339 41.0328 369.339C40.5297 369.339 40.1112 369.476 39.7771 369.75C39.4471 370.023 39.1996 370.392 39.0346 370.854C38.8736 371.313 38.7931 371.826 38.7931 372.394C38.7931 372.957 38.8736 373.468 39.0346 373.927C39.1996 374.386 39.4471 374.752 39.7771 375.026C40.1112 375.296 40.5297 375.43 41.0328 375.43ZM47.9616 380.477C47.6638 380.477 47.3881 380.453 47.1346 380.405C46.8851 380.361 46.6858 380.308 46.5369 380.248L47.044 378.545C47.362 378.638 47.6457 378.682 47.8952 378.678C48.1448 378.674 48.3641 378.596 48.5533 378.443C48.7464 378.294 48.9094 378.044 49.0423 377.694L49.2294 377.193L45.8668 367.727H48.185L50.3221 374.73H50.4187L52.5618 367.727H54.886L51.1733 378.123C51.0002 378.614 50.7708 379.034 50.4851 379.385C50.1993 379.739 49.8492 380.008 49.4347 380.194C49.0241 380.383 48.5331 380.477 47.9616 380.477ZM55.9983 377V367.727H58.087V369.303H58.1957C58.3889 368.772 58.7088 368.357 59.1556 368.059C59.6023 367.757 60.1356 367.607 60.7554 367.607C61.3832 367.607 61.9124 367.759 62.3431 368.065C62.7777 368.367 63.0836 368.78 63.2607 369.303H63.3573C63.5625 368.788 63.9087 368.377 64.3956 368.071C64.8866 367.761 65.4682 367.607 66.1403 367.607C66.9935 367.607 67.6898 367.876 68.2291 368.415C68.7684 368.955 69.038 369.742 69.038 370.776V377H66.8466V371.114C66.8466 370.538 66.6937 370.118 66.3878 369.852C66.0819 369.583 65.7077 369.448 65.2649 369.448C64.7377 369.448 64.3252 369.613 64.0274 369.943C63.7336 370.269 63.5867 370.693 63.5867 371.217V377H61.4436V371.023C61.4436 370.545 61.2987 370.162 61.0089 369.876C60.7232 369.591 60.3489 369.448 59.886 369.448C59.5721 369.448 59.2864 369.528 59.0288 369.689C58.7712 369.846 58.566 370.07 58.413 370.359C58.2601 370.645 58.1836 370.979 58.1836 371.362V377H55.9983ZM74.9602 377.181C74.0305 377.181 73.2276 376.988 72.5515 376.602C71.8794 376.211 71.3622 375.66 71 374.947C70.6378 374.231 70.4567 373.388 70.4567 372.418C70.4567 371.464 70.6378 370.627 71 369.907C71.3662 369.182 71.8773 368.619 72.5334 368.216C73.1894 367.81 73.9601 367.607 74.8455 367.607C75.417 367.607 75.9563 367.699 76.4634 367.884C76.9745 368.065 77.4253 368.347 77.8157 368.729C78.2101 369.112 78.52 369.599 78.7454 370.19C78.9707 370.778 79.0834 371.478 79.0834 372.291V372.961H71.4829V371.488H76.9886C76.9846 371.07 76.894 370.697 76.717 370.371C76.5399 370.041 76.2924 369.782 75.9744 369.593C75.6605 369.404 75.2943 369.309 74.8757 369.309C74.429 369.309 74.0366 369.418 73.6985 369.635C73.3604 369.848 73.0968 370.13 72.9076 370.48C72.7225 370.826 72.6279 371.207 72.6239 371.621V372.907C72.6239 373.446 72.7225 373.909 72.9197 374.295C73.1169 374.678 73.3926 374.972 73.7468 375.177C74.1009 375.378 74.5155 375.479 74.9904 375.479C75.3083 375.479 75.5961 375.434 75.8537 375.346C76.1112 375.253 76.3346 375.118 76.5238 374.941C76.7129 374.764 76.8558 374.545 76.9524 374.283L78.9929 374.513C78.8641 375.052 78.6186 375.523 78.2564 375.925C77.8982 376.324 77.4394 376.634 76.88 376.855C76.3205 377.072 75.6806 377.181 74.9602 377.181ZM82.7176 371.567V377H80.5322V367.727H82.621V369.303H82.7297C82.943 368.784 83.2831 368.371 83.7499 368.065C84.2208 367.759 84.8024 367.607 85.4946 367.607C86.1345 367.607 86.6919 367.743 87.1668 368.017C87.6458 368.291 88.016 368.687 88.2776 369.206C88.5433 369.725 88.6741 370.355 88.67 371.096V377H86.4847V371.434C86.4847 370.814 86.3237 370.329 86.0017 369.979C85.6838 369.629 85.2431 369.454 84.6796 369.454C84.2973 369.454 83.9572 369.538 83.6594 369.707C83.3656 369.872 83.1342 370.112 82.9651 370.426C82.8001 370.74 82.7176 371.12 82.7176 371.567ZM95.1219 367.727V369.418H89.7913V367.727H95.1219ZM91.1074 365.506H93.2928V374.211C93.2928 374.505 93.337 374.73 93.4256 374.887C93.5181 375.04 93.6389 375.145 93.7878 375.201C93.9367 375.257 94.1017 375.286 94.2828 375.286C94.4197 375.286 94.5444 375.275 94.6571 375.255C94.7738 375.235 94.8624 375.217 94.9227 375.201L95.291 376.909C95.1743 376.95 95.0072 376.994 94.7899 377.042C94.5766 377.091 94.315 377.119 94.0051 377.127C93.4578 377.143 92.9648 377.06 92.5261 376.879C92.0874 376.694 91.7393 376.408 91.4817 376.022C91.2281 375.636 91.1034 375.153 91.1074 374.573V365.506Z" fill="black"/>
<path d="M1.14489 356V346.545H4.33949C5.0812 346.545 5.6875 346.679 6.15838 346.947C6.63234 347.212 6.98319 347.57 7.21094 348.023C7.43868 348.475 7.55256 348.98 7.55256 349.537C7.55256 350.094 7.43868 350.6 7.21094 351.056C6.98627 351.511 6.63849 351.874 6.16761 352.145C5.69673 352.413 5.09351 352.547 4.35795 352.547H2.06818V351.531H4.32102C4.82884 351.531 5.23662 351.444 5.54439 351.268C5.85215 351.093 6.07528 350.856 6.21378 350.557C6.35535 350.256 6.42614 349.915 6.42614 349.537C6.42614 349.158 6.35535 348.82 6.21378 348.521C6.07528 348.223 5.85062 347.989 5.53977 347.82C5.22893 347.647 4.81652 347.561 4.30256 347.561H2.28977V356H1.14489ZM9.9386 351.734V356H8.84911V346.545H9.9386V350.017H10.0309C10.1971 349.651 10.4464 349.36 10.7788 349.145C11.1143 348.926 11.5605 348.817 12.1176 348.817C12.6008 348.817 13.0239 348.914 13.3871 349.108C13.7503 349.298 14.0319 349.592 14.2319 349.989C14.435 350.383 14.5366 350.885 14.5366 351.494V356H13.4471V351.568C13.4471 351.005 13.3009 350.569 13.0086 350.262C12.7193 349.951 12.3176 349.795 11.8037 349.795C11.4467 349.795 11.1266 349.871 10.8434 350.022C10.5634 350.172 10.3418 350.393 10.1787 350.682C10.0186 350.971 9.9386 351.322 9.9386 351.734ZM18.2164 356.166C17.7671 356.166 17.3593 356.082 16.9931 355.912C16.6268 355.74 16.336 355.492 16.1205 355.169C15.9051 354.843 15.7974 354.449 15.7974 353.987C15.7974 353.581 15.8774 353.252 16.0374 352.999C16.1975 352.744 16.4114 352.544 16.6791 352.399C16.9469 352.254 17.2423 352.147 17.5655 352.076C17.8917 352.002 18.2195 351.944 18.5488 351.901C18.9797 351.845 19.329 351.804 19.5968 351.776C19.8676 351.745 20.0646 351.694 20.1877 351.624C20.3138 351.553 20.3769 351.43 20.3769 351.254V351.217C20.3769 350.762 20.2523 350.408 20.003 350.156C19.7568 349.903 19.3829 349.777 18.8812 349.777C18.3611 349.777 17.9533 349.891 17.6578 350.119C17.3624 350.346 17.1546 350.589 17.0346 350.848L16.0005 350.479C16.1852 350.048 16.4314 349.712 16.7392 349.472C17.05 349.229 17.3885 349.06 17.7548 348.964C18.1241 348.866 18.4873 348.817 18.8443 348.817C19.072 348.817 19.3336 348.844 19.6291 348.9C19.9276 348.952 20.2154 349.061 20.4923 349.228C20.7724 349.394 21.0048 349.645 21.1894 349.98C21.3741 350.316 21.4664 350.765 21.4664 351.328V356H20.3769V355.04H20.3215C20.2477 355.194 20.1246 355.358 19.9522 355.534C19.7799 355.709 19.5506 355.858 19.2644 355.982C18.9781 356.105 18.6288 356.166 18.2164 356.166ZM18.3826 355.188C18.8135 355.188 19.1767 355.103 19.4721 354.934C19.7706 354.764 19.9953 354.546 20.1461 354.278C20.3 354.01 20.3769 353.729 20.3769 353.433V352.436C20.3308 352.491 20.2292 352.542 20.0722 352.588C19.9184 352.632 19.7399 352.67 19.5367 352.704C19.3367 352.735 19.1413 352.762 18.9504 352.787C18.7627 352.808 18.6104 352.827 18.4934 352.842C18.2103 352.879 17.9456 352.939 17.6994 353.022C17.4562 353.102 17.2593 353.224 17.1085 353.387C16.9607 353.547 16.8869 353.766 16.8869 354.043C16.8869 354.421 17.0269 354.707 17.307 354.901C17.5901 355.092 17.9487 355.188 18.3826 355.188ZM28.0777 350.497L27.099 350.774C27.0375 350.611 26.9467 350.453 26.8266 350.299C26.7097 350.142 26.5496 350.012 26.3465 349.911C26.1434 349.809 25.8833 349.759 25.5663 349.759C25.1324 349.759 24.7708 349.859 24.4815 350.059C24.1952 350.256 24.0521 350.506 24.0521 350.811C24.0521 351.082 24.1506 351.296 24.3476 351.453C24.5446 351.61 24.8523 351.741 25.2709 351.845L26.3234 352.104C26.9574 352.258 27.4299 352.493 27.7407 352.81C28.0515 353.124 28.207 353.529 28.207 354.024C28.207 354.43 28.09 354.794 27.8561 355.114C27.6253 355.434 27.3021 355.686 26.8866 355.871C26.4712 356.055 25.988 356.148 25.4371 356.148C24.7138 356.148 24.1152 355.991 23.6413 355.677C23.1673 355.363 22.8672 354.904 22.7411 354.301L23.7751 354.043C23.8736 354.424 24.0598 354.71 24.3337 354.901C24.6107 355.092 24.9723 355.188 25.4186 355.188C25.9264 355.188 26.3296 355.08 26.6281 354.864C26.9297 354.646 27.0805 354.384 27.0805 354.08C27.0805 353.833 26.9944 353.627 26.822 353.461C26.6497 353.292 26.385 353.165 26.028 353.082L24.8462 352.805C24.1968 352.652 23.7197 352.413 23.4151 352.09C23.1134 351.764 22.9626 351.356 22.9626 350.866C22.9626 350.466 23.075 350.112 23.2996 349.805C23.5274 349.497 23.8367 349.255 24.2276 349.08C24.6215 348.904 25.0678 348.817 25.5663 348.817C26.268 348.817 26.8189 348.971 27.219 349.278C27.6222 349.586 27.9084 349.992 28.0777 350.497ZM32.42 356.148C31.7367 356.148 31.1474 355.997 30.6519 355.695C30.1594 355.391 29.7793 354.966 29.5116 354.421C29.2469 353.873 29.1146 353.236 29.1146 352.51C29.1146 351.784 29.2469 351.143 29.5116 350.589C29.7793 350.032 30.1517 349.598 30.6288 349.288C31.1089 348.974 31.669 348.817 32.3092 348.817C32.6785 348.817 33.0432 348.878 33.4033 349.001C33.7634 349.125 34.0911 349.325 34.3866 349.602C34.682 349.875 34.9175 350.239 35.0929 350.691C35.2683 351.143 35.3561 351.701 35.3561 352.362V352.824H29.8901V351.882H34.2481C34.2481 351.482 34.1681 351.125 34.008 350.811C33.8511 350.497 33.6264 350.249 33.334 350.068C33.0447 349.886 32.7031 349.795 32.3092 349.795C31.8752 349.795 31.4998 349.903 31.1828 350.119C30.8688 350.331 30.6272 350.608 30.458 350.95C30.2887 351.291 30.2041 351.657 30.2041 352.048V352.676C30.2041 353.212 30.2964 353.666 30.4811 354.038C30.6688 354.407 30.9289 354.689 31.2612 354.883C31.5936 355.074 31.9799 355.169 32.42 355.169C32.7062 355.169 32.9647 355.129 33.1955 355.049C33.4294 354.966 33.631 354.843 33.8003 354.68C33.9696 354.513 34.1004 354.307 34.1927 354.061L35.2453 354.357C35.1345 354.714 34.9483 355.027 34.6867 355.298C34.4251 355.566 34.1019 355.775 33.7172 355.926C33.3325 356.074 32.9001 356.148 32.42 356.148ZM39.6296 354.061V353.119L43.7844 346.545H44.4676V348.004H44.006L40.8668 352.972V353.045H46.4619V354.061H39.6296ZM44.0798 356V353.775V353.336V346.545H45.1693V356H44.0798Z" fill="black"/>
<path d="M357 28H329C324.6 28 321 31.6 321 36C321 40.4 324.6 44 329 44H357C359.2 44 361 42.2 361 40V32C361 29.8 359.2 28 357 28ZM329 40C326.8 40 325 38.2 325 36C325 33.8 326.8 32 329 32C331.2 32 333 33.8 333 36C333 38.2 331.2 40 329 40ZM329.6 24L343 10.6C344.6 9 347 9 348.6 10.6L354.2 16.2C355.8 17.8 355.8 20.2 354.2 21.8L352.4 24H329.6ZM321 27V8C321 5.8 322.8 4 325 4H333C335.2 4 337 5.8 337 8V11L321 27Z" fill="#34495E"/>
<path d="M322.409 89H318.219V76.6364H322.494C323.721 76.6364 324.776 76.8839 325.657 77.3789C326.542 77.8699 327.223 78.5762 327.697 79.4979C328.172 80.4195 328.41 81.5223 328.41 82.8061C328.41 84.094 328.17 85.2008 327.691 86.1264C327.217 87.0521 326.53 87.7624 325.633 88.2575C324.739 88.7525 323.665 89 322.409 89ZM320.459 87.0621H322.3C323.162 87.0621 323.88 86.9052 324.456 86.5913C325.031 86.2733 325.464 85.8004 325.754 85.1726C326.043 84.5407 326.188 83.7519 326.188 82.8061C326.188 81.8603 326.043 81.0755 325.754 80.4517C325.464 79.8239 325.035 79.355 324.468 79.0451C323.904 78.7312 323.204 78.5742 322.367 78.5742H320.459V87.0621ZM334.146 89.1811C333.217 89.1811 332.414 88.9879 331.738 88.6016C331.065 88.2112 330.548 87.6598 330.186 86.9474C329.824 86.2311 329.643 85.3879 329.643 84.418C329.643 83.4641 329.824 82.627 330.186 81.9066C330.552 81.1822 331.063 80.6187 331.719 80.2163C332.376 79.8098 333.146 79.6065 334.032 79.6065C334.603 79.6065 335.142 79.6991 335.65 79.8842C336.161 80.0653 336.611 80.3471 337.002 80.7294C337.396 81.1117 337.706 81.5987 337.931 82.1903C338.157 82.7779 338.27 83.4782 338.27 84.2912V84.9613H330.669V83.4883H336.175C336.171 83.0697 336.08 82.6974 335.903 82.3714C335.726 82.0414 335.478 81.7818 335.161 81.5927C334.847 81.4035 334.48 81.3089 334.062 81.3089C333.615 81.3089 333.223 81.4176 332.885 81.6349C332.547 81.8482 332.283 82.13 332.094 82.4801C331.909 82.8262 331.814 83.2066 331.81 83.6211V84.907C331.81 85.4463 331.909 85.9091 332.106 86.2955C332.303 86.6778 332.579 86.9716 332.933 87.1768C333.287 87.3781 333.702 87.4787 334.177 87.4787C334.494 87.4787 334.782 87.4344 335.04 87.3459C335.297 87.2533 335.521 87.1185 335.71 86.9414C335.899 86.7643 336.042 86.545 336.139 86.2834L338.179 86.5128C338.05 87.0521 337.805 87.523 337.443 87.9254C337.084 88.3239 336.626 88.6338 336.066 88.8551C335.507 89.0724 334.867 89.1811 334.146 89.1811ZM347.047 82.1783L345.055 82.3956C344.999 82.1944 344.9 82.0052 344.759 81.8281C344.622 81.651 344.437 81.5082 344.204 81.3995C343.97 81.2908 343.685 81.2365 343.347 81.2365C342.892 81.2365 342.509 81.3351 342.2 81.5323C341.894 81.7295 341.743 81.9851 341.747 82.299C341.743 82.5687 341.841 82.788 342.043 82.957C342.248 83.1261 342.586 83.2649 343.057 83.3736L344.638 83.7116C345.516 83.9008 346.168 84.2006 346.594 84.6112C347.025 85.0217 347.242 85.5589 347.246 86.223C347.242 86.8066 347.071 87.3217 346.733 87.7685C346.399 88.2112 345.934 88.5573 345.339 88.8068C344.743 89.0563 344.059 89.1811 343.286 89.1811C342.151 89.1811 341.238 88.9437 340.545 88.4688C339.853 87.9898 339.441 87.3237 339.308 86.4705L341.439 86.2653C341.535 86.6838 341.741 86.9998 342.055 87.2131C342.369 87.4264 342.777 87.533 343.28 87.533C343.799 87.533 344.216 87.4264 344.53 87.2131C344.848 86.9998 345.007 86.7362 345.007 86.4222C345.007 86.1566 344.904 85.9373 344.699 85.7642C344.498 85.5911 344.184 85.4583 343.757 85.3658L342.175 85.0337C341.286 84.8486 340.628 84.5367 340.201 84.098C339.775 83.6553 339.563 83.0959 339.567 82.4197C339.563 81.8482 339.718 81.3532 340.032 80.9347C340.35 80.5121 340.791 80.1861 341.354 79.9567C341.922 79.7232 342.576 79.6065 343.316 79.6065C344.403 79.6065 345.258 79.8379 345.882 80.3008C346.51 80.7636 346.898 81.3894 347.047 82.1783ZM348.648 89V79.7273H350.834V89H348.648ZM349.747 78.4112C349.401 78.4112 349.103 78.2965 348.854 78.0671C348.604 77.8337 348.479 77.554 348.479 77.228C348.479 76.898 348.604 76.6183 348.854 76.3888C349.103 76.1554 349.401 76.0387 349.747 76.0387C350.097 76.0387 350.395 76.1554 350.641 76.3888C350.89 76.6183 351.015 76.898 351.015 77.228C351.015 77.554 350.89 77.8337 350.641 78.0671C350.395 78.2965 350.097 78.4112 349.747 78.4112ZM356.714 92.6705C355.929 92.6705 355.255 92.5638 354.691 92.3505C354.128 92.1412 353.675 91.8595 353.333 91.5053C352.991 91.1512 352.754 90.7588 352.621 90.3281L354.589 89.8512C354.677 90.0323 354.806 90.2114 354.975 90.3885C355.144 90.5696 355.372 90.7185 355.657 90.8352C355.947 90.956 356.311 91.0163 356.75 91.0163C357.37 91.0163 357.883 90.8654 358.289 90.5636C358.696 90.2657 358.899 89.7747 358.899 89.0906V87.3338H358.79C358.678 87.5592 358.513 87.7906 358.295 88.0281C358.082 88.2655 357.798 88.4647 357.444 88.6257C357.094 88.7867 356.653 88.8672 356.122 88.8672C355.41 88.8672 354.764 88.7002 354.184 88.3661C353.609 88.0281 353.15 87.525 352.808 86.8569C352.47 86.1848 352.301 85.3436 352.301 84.3335C352.301 83.3152 352.47 82.456 352.808 81.7557C353.15 81.0514 353.611 80.5181 354.19 80.1559C354.77 79.7897 355.416 79.6065 356.128 79.6065C356.671 79.6065 357.118 79.6991 357.468 79.8842C357.823 80.0653 358.104 80.2847 358.314 80.5423C358.523 80.7958 358.682 81.0353 358.79 81.2607H358.911V79.7273H361.066V89.1509C361.066 89.9438 360.877 90.5998 360.499 91.119C360.121 91.6381 359.603 92.0265 358.947 92.2841C358.291 92.5417 357.547 92.6705 356.714 92.6705ZM356.732 87.1527C357.195 87.1527 357.589 87.04 357.915 86.8146C358.241 86.5893 358.489 86.2653 358.658 85.8427C358.827 85.4201 358.911 84.913 358.911 84.3214C358.911 83.7378 358.827 83.2267 358.658 82.788C358.493 82.3493 358.247 82.0092 357.921 81.7678C357.599 81.5223 357.203 81.3995 356.732 81.3995C356.245 81.3995 355.838 81.5263 355.512 81.7798C355.186 82.0334 354.941 82.3815 354.776 82.8242C354.611 83.2629 354.528 83.762 354.528 84.3214C354.528 84.8888 354.611 85.3859 354.776 85.8125C354.945 86.2351 355.192 86.5651 355.518 86.8026C355.848 87.036 356.253 87.1527 356.732 87.1527ZM365.091 83.5668V89H362.906V79.7273H364.995V81.3029H365.104C365.317 80.7837 365.657 80.3712 366.124 80.0653C366.595 79.7595 367.176 79.6065 367.868 79.6065C368.508 79.6065 369.066 79.7434 369.541 80.017C370.02 80.2907 370.39 80.6871 370.651 81.2063C370.917 81.7255 371.048 82.3554 371.044 83.0959V89H368.858V83.4339C368.858 82.8142 368.698 82.3292 368.376 81.979C368.058 81.6289 367.617 81.4538 367.053 81.4538C366.671 81.4538 366.331 81.5384 366.033 81.7074C365.739 81.8724 365.508 82.1119 365.339 82.4258C365.174 82.7397 365.091 83.12 365.091 83.5668Z" fill="black"/>
<path d="M318.145 68V58.5455H321.339C322.081 58.5455 322.688 58.6793 323.158 58.9471C323.632 59.2118 323.983 59.5703 324.211 60.0227C324.439 60.4751 324.553 60.9799 324.553 61.5369C324.553 62.094 324.439 62.6003 324.211 63.0558C323.986 63.5112 323.638 63.8744 323.168 64.1452C322.697 64.413 322.094 64.5469 321.358 64.5469H319.068V63.5312H321.321C321.829 63.5312 322.237 63.4435 322.544 63.2681C322.852 63.0927 323.075 62.8557 323.214 62.5572C323.355 62.2556 323.426 61.9155 323.426 61.5369C323.426 61.1584 323.355 60.8198 323.214 60.5213C323.075 60.2228 322.851 59.9889 322.54 59.8196C322.229 59.6473 321.817 59.5611 321.303 59.5611H319.29V68H318.145ZM326.939 63.7344V68H325.849V58.5455H326.939V62.017H327.031C327.197 61.6508 327.446 61.36 327.779 61.1445C328.114 60.926 328.561 60.8168 329.118 60.8168C329.601 60.8168 330.024 60.9137 330.387 61.1076C330.75 61.2984 331.032 61.5923 331.232 61.9893C331.435 62.3833 331.537 62.8849 331.537 63.4943V68H330.447V63.5682C330.447 63.005 330.301 62.5695 330.009 62.2617C329.719 61.9509 329.318 61.7955 328.804 61.7955C328.447 61.7955 328.127 61.8709 327.843 62.0217C327.563 62.1725 327.342 62.3925 327.179 62.6818C327.019 62.9711 326.939 63.322 326.939 63.7344ZM335.216 68.1662C334.767 68.1662 334.359 68.0816 333.993 67.9123C333.627 67.7399 333.336 67.4922 333.121 67.169C332.905 66.8428 332.797 66.4489 332.797 65.9872C332.797 65.581 332.877 65.2517 333.037 64.9993C333.197 64.7438 333.411 64.5438 333.679 64.3991C333.947 64.2545 334.242 64.1468 334.566 64.076C334.892 64.0021 335.22 63.9437 335.549 63.9006C335.98 63.8452 336.329 63.8036 336.597 63.7759C336.868 63.7451 337.065 63.6944 337.188 63.6236C337.314 63.5528 337.377 63.4297 337.377 63.2543V63.2173C337.377 62.7618 337.252 62.4079 337.003 62.1555C336.757 61.9032 336.383 61.777 335.881 61.777C335.361 61.777 334.953 61.8909 334.658 62.1186C334.362 62.3464 334.155 62.5895 334.035 62.848L333.001 62.4787C333.185 62.0478 333.431 61.7124 333.739 61.4723C334.05 61.2292 334.389 61.0599 334.755 60.9645C335.124 60.866 335.487 60.8168 335.844 60.8168C336.072 60.8168 336.334 60.8445 336.629 60.8999C336.928 60.9522 337.215 61.0614 337.492 61.2276C337.772 61.3938 338.005 61.6446 338.189 61.9801C338.374 62.3156 338.466 62.7649 338.466 63.3281V68H337.377V67.0398H337.322C337.248 67.1937 337.125 67.3583 336.952 67.5337C336.78 67.7092 336.551 67.8584 336.264 67.9815C335.978 68.1046 335.629 68.1662 335.216 68.1662ZM335.383 67.1875C335.813 67.1875 336.177 67.1029 336.472 66.9336C336.771 66.7643 336.995 66.5458 337.146 66.2781C337.3 66.0103 337.377 65.7287 337.377 65.4332V64.4361C337.331 64.4915 337.229 64.5423 337.072 64.5884C336.918 64.6315 336.74 64.67 336.537 64.7038C336.337 64.7346 336.141 64.7623 335.95 64.7869C335.763 64.8085 335.61 64.8269 335.493 64.8423C335.21 64.8793 334.946 64.9393 334.699 65.0224C334.456 65.1024 334.259 65.224 334.108 65.3871C333.961 65.5471 333.887 65.7656 333.887 66.0426C333.887 66.4212 334.027 66.7074 334.307 66.9013C334.59 67.0921 334.949 67.1875 335.383 67.1875ZM345.078 62.4972L344.099 62.7741C344.037 62.611 343.947 62.4525 343.827 62.2987C343.71 62.1417 343.55 62.0124 343.347 61.9109C343.143 61.8093 342.883 61.7585 342.566 61.7585C342.132 61.7585 341.771 61.8585 341.481 62.0586C341.195 62.2556 341.052 62.5064 341.052 62.8111C341.052 63.0819 341.151 63.2958 341.348 63.4528C341.545 63.6097 341.852 63.7405 342.271 63.8452L343.323 64.1037C343.957 64.2576 344.43 64.493 344.741 64.81C345.052 65.1239 345.207 65.5286 345.207 66.0241C345.207 66.4304 345.09 66.7936 344.856 67.1136C344.625 67.4337 344.302 67.6861 343.887 67.8707C343.471 68.0554 342.988 68.1477 342.437 68.1477C341.714 68.1477 341.115 67.9908 340.641 67.6768C340.167 67.3629 339.867 66.9044 339.741 66.3011L340.775 66.0426C340.874 66.4242 341.06 66.7105 341.334 66.9013C341.611 67.0921 341.972 67.1875 342.419 67.1875C342.926 67.1875 343.33 67.0798 343.628 66.8643C343.93 66.6458 344.081 66.3842 344.081 66.0795C344.081 65.8333 343.994 65.6271 343.822 65.4609C343.65 65.2917 343.385 65.1655 343.028 65.0824L341.846 64.8054C341.197 64.6515 340.72 64.413 340.415 64.0898C340.113 63.7636 339.963 63.3558 339.963 62.8665C339.963 62.4664 340.075 62.1125 340.3 61.8047C340.527 61.4969 340.837 61.2553 341.228 61.0799C341.621 60.9045 342.068 60.8168 342.566 60.8168C343.268 60.8168 343.819 60.9706 344.219 61.2784C344.622 61.5862 344.908 61.9924 345.078 62.4972ZM349.42 68.1477C348.737 68.1477 348.147 67.9969 347.652 67.6953C347.159 67.3906 346.779 66.9659 346.512 66.4212C346.247 65.8733 346.115 65.2363 346.115 64.5099C346.115 63.7836 346.247 63.1435 346.512 62.5895C346.779 62.0324 347.152 61.5985 347.629 61.2876C348.109 60.9737 348.669 60.8168 349.309 60.8168C349.678 60.8168 350.043 60.8783 350.403 61.0014C350.763 61.1245 351.091 61.3246 351.387 61.6016C351.682 61.8755 351.917 62.2386 352.093 62.6911C352.268 63.1435 352.356 63.7005 352.356 64.3622V64.8239H346.89V63.8821H351.248C351.248 63.482 351.168 63.125 351.008 62.8111C350.851 62.4972 350.626 62.2494 350.334 62.0678C350.045 61.8862 349.703 61.7955 349.309 61.7955C348.875 61.7955 348.5 61.9032 348.183 62.1186C347.869 62.331 347.627 62.608 347.458 62.9496C347.289 63.2912 347.204 63.6574 347.204 64.0483V64.6761C347.204 65.2116 347.296 65.6656 347.481 66.038C347.669 66.4073 347.929 66.6889 348.261 66.8828C348.594 67.0736 348.98 67.169 349.42 67.169C349.706 67.169 349.965 67.129 350.196 67.049C350.429 66.9659 350.631 66.8428 350.8 66.6797C350.97 66.5135 351.1 66.3073 351.193 66.0611L352.245 66.3565C352.134 66.7135 351.948 67.0275 351.687 67.2983C351.425 67.5661 351.102 67.7753 350.717 67.9261C350.332 68.0739 349.9 68.1477 349.42 68.1477ZM356.851 68V67.169L359.972 63.7528C360.338 63.3527 360.64 63.005 360.877 62.7095C361.114 62.411 361.289 62.1309 361.403 61.8693C361.52 61.6046 361.578 61.3277 361.578 61.0384C361.578 60.706 361.498 60.4182 361.338 60.1751C361.181 59.9319 360.966 59.7442 360.692 59.6119C360.418 59.4795 360.11 59.4134 359.769 59.4134C359.406 59.4134 359.089 59.4888 358.818 59.6396C358.55 59.7873 358.342 59.995 358.195 60.2628C358.05 60.5305 357.978 60.8445 357.978 61.2045H356.888C356.888 60.6506 357.016 60.1643 357.271 59.7457C357.527 59.3272 357.874 59.0009 358.315 58.767C358.758 58.5331 359.255 58.4162 359.806 58.4162C360.36 58.4162 360.851 58.5331 361.278 58.767C361.706 59.0009 362.042 59.3164 362.285 59.7134C362.528 60.1104 362.649 60.5521 362.649 61.0384C362.649 61.3861 362.586 61.7262 362.46 62.0586C362.337 62.3879 362.122 62.7557 361.814 63.1619C361.509 63.5651 361.086 64.0575 360.544 64.6392L358.421 66.9105V66.9844H362.816V68H356.851Z" fill="black"/>
<path d="M366.9 310H370V314H366.9C366 322.34 359.34 329 351 329.9V333H347V329.9C338.66 329 332 322.34 331.1 314H328V310H331.1C332 301.66 338.66 295 347 294.1V291H351V294.1C359.34 295 366 301.66 366.9 310ZM335.14 310H338V314H335.14C336 320.14 340.86 325 347 325.86V323H351V325.86C357.14 325 362 320.14 362.86 314H360V310H362.86C362 303.86 357.14 299 351 298.14V301H347V298.14C340.86 299 336 303.86 335.14 310ZM357 320H341V318C341 315.34 346.34 314 349 314C351.66 314 357 315.34 357 318V320ZM349 304C350.061 304 351.078 304.421 351.828 305.172C352.579 305.922 353 306.939 353 308C353 309.061 352.579 310.078 351.828 310.828C351.078 311.579 350.061 312 349 312C347.939 312 346.922 311.579 346.172 310.828C345.421 310.078 345 309.061 345 308C345 306.939 345.421 305.922 346.172 305.172C346.922 304.421 347.939 304 349 304Z" fill="#34495E"/>
<path d="M252.459 364.636V377H250.219V364.636H252.459ZM254.388 377V367.727H256.477V369.303H256.585C256.779 368.772 257.098 368.357 257.545 368.059C257.992 367.757 258.525 367.607 259.145 367.607C259.773 367.607 260.302 367.759 260.733 368.065C261.167 368.367 261.473 368.78 261.65 369.303H261.747C261.952 368.788 262.298 368.377 262.785 368.071C263.276 367.761 263.858 367.607 264.53 367.607C265.383 367.607 266.079 367.876 266.619 368.415C267.158 368.955 267.428 369.742 267.428 370.776V377H265.236V371.114C265.236 370.538 265.083 370.118 264.777 369.852C264.472 369.583 264.097 369.448 263.655 369.448C263.127 369.448 262.715 369.613 262.417 369.943C262.123 370.269 261.976 370.693 261.976 371.217V377H259.833V371.023C259.833 370.545 259.688 370.162 259.399 369.876C259.113 369.591 258.739 369.448 258.276 369.448C257.962 369.448 257.676 369.528 257.418 369.689C257.161 369.846 256.956 370.07 256.803 370.359C256.65 370.645 256.573 370.979 256.573 371.362V377H254.388ZM269.245 380.477V367.727H271.394V369.261H271.521C271.633 369.035 271.792 368.796 271.998 368.542C272.203 368.285 272.481 368.065 272.831 367.884C273.181 367.699 273.628 367.607 274.171 367.607C274.887 367.607 275.533 367.79 276.109 368.156C276.688 368.518 277.147 369.055 277.485 369.768C277.827 370.476 277.998 371.345 277.998 372.376C277.998 373.394 277.831 374.259 277.497 374.972C277.163 375.684 276.708 376.227 276.133 376.602C275.557 376.976 274.905 377.163 274.177 377.163C273.646 377.163 273.205 377.074 272.855 376.897C272.505 376.72 272.223 376.507 272.01 376.257C271.8 376.004 271.637 375.764 271.521 375.539H271.43V380.477H269.245ZM271.388 372.364C271.388 372.963 271.472 373.489 271.641 373.939C271.814 374.39 272.062 374.742 272.384 374.996C272.71 375.245 273.104 375.37 273.567 375.37C274.05 375.37 274.455 375.241 274.781 374.984C275.107 374.722 275.352 374.366 275.517 373.915C275.686 373.46 275.771 372.943 275.771 372.364C275.771 371.788 275.688 371.277 275.523 370.83C275.358 370.384 275.113 370.033 274.787 369.78C274.461 369.526 274.054 369.4 273.567 369.4C273.1 369.4 272.704 369.522 272.378 369.768C272.052 370.013 271.804 370.357 271.635 370.8C271.47 371.243 271.388 371.764 271.388 372.364ZM281.655 364.636V377H279.47V364.636H281.655ZM287.607 377.181C286.678 377.181 285.875 376.988 285.199 376.602C284.527 376.211 284.009 375.66 283.647 374.947C283.285 374.231 283.104 373.388 283.104 372.418C283.104 371.464 283.285 370.627 283.647 369.907C284.013 369.182 284.525 368.619 285.181 368.216C285.837 367.81 286.607 367.607 287.493 367.607C288.064 367.607 288.604 367.699 289.111 367.884C289.622 368.065 290.073 368.347 290.463 368.729C290.857 369.112 291.167 369.599 291.393 370.19C291.618 370.778 291.731 371.478 291.731 372.291V372.961H284.13V371.488H289.636C289.632 371.07 289.541 370.697 289.364 370.371C289.187 370.041 288.94 369.782 288.622 369.593C288.308 369.404 287.942 369.309 287.523 369.309C287.076 369.309 286.684 369.418 286.346 369.635C286.008 369.848 285.744 370.13 285.555 370.48C285.37 370.826 285.275 371.207 285.271 371.621V372.907C285.271 373.446 285.37 373.909 285.567 374.295C285.764 374.678 286.04 374.972 286.394 375.177C286.748 375.378 287.163 375.479 287.638 375.479C287.956 375.479 288.243 375.434 288.501 375.346C288.759 375.253 288.982 375.118 289.171 374.941C289.36 374.764 289.503 374.545 289.6 374.283L291.64 374.513C291.511 375.052 291.266 375.523 290.904 375.925C290.545 376.324 290.087 376.634 289.527 376.855C288.968 377.072 288.328 377.181 287.607 377.181ZM293.18 377V367.727H295.268V369.303H295.377C295.57 368.772 295.89 368.357 296.337 368.059C296.784 367.757 297.317 367.607 297.937 367.607C298.564 367.607 299.094 367.759 299.524 368.065C299.959 368.367 300.265 368.78 300.442 369.303H300.539C300.744 368.788 301.09 368.377 301.577 368.071C302.068 367.761 302.649 367.607 303.322 367.607C304.175 367.607 304.871 367.876 305.41 368.415C305.95 368.955 306.219 369.742 306.219 370.776V377H304.028V371.114C304.028 370.538 303.875 370.118 303.569 369.852C303.263 369.583 302.889 369.448 302.446 369.448C301.919 369.448 301.506 369.613 301.209 369.943C300.915 370.269 300.768 370.693 300.768 371.217V377H298.625V371.023C298.625 370.545 298.48 370.162 298.19 369.876C297.904 369.591 297.53 369.448 297.067 369.448C296.753 369.448 296.468 369.528 296.21 369.689C295.952 369.846 295.747 370.07 295.594 370.359C295.441 370.645 295.365 370.979 295.365 371.362V377H293.18ZM312.141 377.181C311.212 377.181 310.409 376.988 309.733 376.602C309.061 376.211 308.543 375.66 308.181 374.947C307.819 374.231 307.638 373.388 307.638 372.418C307.638 371.464 307.819 370.627 308.181 369.907C308.547 369.182 309.059 368.619 309.715 368.216C310.371 367.81 311.141 367.607 312.027 367.607C312.598 367.607 313.138 367.699 313.645 367.884C314.156 368.065 314.607 368.347 314.997 368.729C315.391 369.112 315.701 369.599 315.927 370.19C316.152 370.778 316.265 371.478 316.265 372.291V372.961H308.664V371.488H314.17C314.166 371.07 314.075 370.697 313.898 370.371C313.721 370.041 313.474 369.782 313.156 369.593C312.842 369.404 312.476 369.309 312.057 369.309C311.61 369.309 311.218 369.418 310.88 369.635C310.542 369.848 310.278 370.13 310.089 370.48C309.904 370.826 309.809 371.207 309.805 371.621V372.907C309.805 373.446 309.904 373.909 310.101 374.295C310.298 374.678 310.574 374.972 310.928 375.177C311.282 375.378 311.697 375.479 312.172 375.479C312.49 375.479 312.777 375.434 313.035 375.346C313.292 375.253 313.516 375.118 313.705 374.941C313.894 374.764 314.037 374.545 314.134 374.283L316.174 374.513C316.045 375.052 315.8 375.523 315.438 375.925C315.079 376.324 314.621 376.634 314.061 376.855C313.502 377.072 312.862 377.181 312.141 377.181ZM319.899 371.567V377H317.713V367.727H319.802V369.303H319.911C320.124 368.784 320.464 368.371 320.931 368.065C321.402 367.759 321.984 367.607 322.676 367.607C323.316 367.607 323.873 367.743 324.348 368.017C324.827 368.291 325.197 368.687 325.459 369.206C325.724 369.725 325.855 370.355 325.851 371.096V377H323.666V371.434C323.666 370.814 323.505 370.329 323.183 369.979C322.865 369.629 322.424 369.454 321.861 369.454C321.479 369.454 321.138 369.538 320.841 369.707C320.547 369.872 320.315 370.112 320.146 370.426C319.981 370.74 319.899 371.12 319.899 371.567ZM332.303 367.727V369.418H326.973V367.727H332.303ZM328.289 365.506H330.474V374.211C330.474 374.505 330.518 374.73 330.607 374.887C330.699 375.04 330.82 375.145 330.969 375.201C331.118 375.257 331.283 375.286 331.464 375.286C331.601 375.286 331.726 375.275 331.838 375.255C331.955 375.235 332.044 375.217 332.104 375.201L332.472 376.909C332.356 376.95 332.188 376.994 331.971 377.042C331.758 377.091 331.496 377.119 331.186 377.127C330.639 377.143 330.146 377.06 329.707 376.879C329.269 376.694 328.921 376.408 328.663 376.022C328.409 375.636 328.285 375.153 328.289 374.573V365.506ZM336.399 377.187C335.812 377.187 335.282 377.083 334.811 376.873C334.345 376.66 333.974 376.346 333.701 375.931C333.431 375.517 333.296 375.006 333.296 374.398C333.296 373.875 333.393 373.442 333.586 373.1C333.779 372.758 334.043 372.484 334.377 372.279C334.711 372.074 335.087 371.919 335.506 371.814C335.928 371.706 336.365 371.627 336.816 371.579C337.359 371.522 337.8 371.472 338.138 371.428C338.476 371.38 338.721 371.307 338.874 371.211C339.031 371.11 339.11 370.955 339.11 370.746V370.71C339.11 370.255 338.975 369.903 338.705 369.653C338.436 369.404 338.047 369.279 337.54 369.279C337.005 369.279 336.58 369.395 336.266 369.629C335.956 369.862 335.747 370.138 335.639 370.456L333.598 370.166C333.759 369.603 334.025 369.132 334.395 368.754C334.765 368.371 335.218 368.085 335.753 367.896C336.289 367.703 336.88 367.607 337.528 367.607C337.975 367.607 338.42 367.659 338.862 367.763C339.305 367.868 339.709 368.041 340.076 368.283C340.442 368.52 340.736 368.844 340.957 369.255C341.182 369.665 341.295 370.178 341.295 370.794V377H339.194V375.726H339.122C338.989 375.984 338.802 376.225 338.56 376.451C338.323 376.672 338.023 376.851 337.661 376.988C337.303 377.121 336.882 377.187 336.399 377.187ZM336.967 375.581C337.405 375.581 337.786 375.495 338.108 375.322C338.43 375.145 338.677 374.911 338.85 374.621C339.027 374.332 339.116 374.016 339.116 373.674V372.581C339.047 372.637 338.931 372.69 338.766 372.738C338.605 372.786 338.424 372.828 338.222 372.865C338.021 372.901 337.822 372.933 337.625 372.961C337.427 372.989 337.256 373.014 337.112 373.034C336.786 373.078 336.494 373.15 336.236 373.251C335.979 373.352 335.775 373.493 335.626 373.674C335.478 373.851 335.403 374.08 335.403 374.362C335.403 374.764 335.55 375.068 335.844 375.273C336.138 375.479 336.512 375.581 336.967 375.581ZM347.723 367.727V369.418H342.392V367.727H347.723ZM343.708 365.506H345.894V374.211C345.894 374.505 345.938 374.73 346.027 374.887C346.119 375.04 346.24 375.145 346.389 375.201C346.538 375.257 346.703 375.286 346.884 375.286C347.021 375.286 347.145 375.275 347.258 375.255C347.375 375.235 347.463 375.217 347.524 375.201L347.892 376.909C347.775 376.95 347.608 376.994 347.391 377.042C347.178 377.091 346.916 377.119 346.606 377.127C346.059 377.143 345.566 377.06 345.127 376.879C344.688 376.694 344.34 376.408 344.083 376.022C343.829 375.636 343.704 375.153 343.708 374.573V365.506ZM349.151 377V367.727H351.336V377H349.151ZM350.249 366.411C349.903 366.411 349.605 366.297 349.356 366.067C349.106 365.834 348.982 365.554 348.982 365.228C348.982 364.898 349.106 364.618 349.356 364.389C349.605 364.155 349.903 364.039 350.249 364.039C350.599 364.039 350.897 364.155 351.143 364.389C351.392 364.618 351.517 364.898 351.517 365.228C351.517 365.554 351.392 365.834 351.143 366.067C350.897 366.297 350.599 366.411 350.249 366.411ZM357.228 377.181C356.322 377.181 355.538 376.982 354.874 376.583C354.209 376.185 353.694 375.628 353.328 374.911C352.966 374.195 352.785 373.358 352.785 372.4C352.785 371.442 352.966 370.603 353.328 369.882C353.694 369.162 354.209 368.603 354.874 368.204C355.538 367.806 356.322 367.607 357.228 367.607C358.134 367.607 358.918 367.806 359.582 368.204C360.246 368.603 360.76 369.162 361.122 369.882C361.488 370.603 361.671 371.442 361.671 372.4C361.671 373.358 361.488 374.195 361.122 374.911C360.76 375.628 360.246 376.185 359.582 376.583C358.918 376.982 358.134 377.181 357.228 377.181ZM357.24 375.43C357.731 375.43 358.142 375.296 358.472 375.026C358.802 374.752 359.047 374.386 359.208 373.927C359.373 373.468 359.456 372.957 359.456 372.394C359.456 371.826 359.373 371.313 359.208 370.854C359.047 370.392 358.802 370.023 358.472 369.75C358.142 369.476 357.731 369.339 357.24 369.339C356.737 369.339 356.318 369.476 355.984 369.75C355.654 370.023 355.407 370.392 355.242 370.854C355.081 371.313 355 371.826 355 372.394C355 372.957 355.081 373.468 355.242 373.927C355.407 374.386 355.654 374.752 355.984 375.026C356.318 375.296 356.737 375.43 357.24 375.43ZM365.311 371.567V377H363.126V367.727H365.215V369.303H365.323C365.537 368.784 365.877 368.371 366.344 368.065C366.815 367.759 367.396 367.607 368.088 367.607C368.728 367.607 369.286 367.743 369.761 368.017C370.24 368.291 370.61 368.687 370.871 369.206C371.137 369.725 371.268 370.355 371.264 371.096V377H369.078V371.434C369.078 370.814 368.917 370.329 368.595 369.979C368.278 369.629 367.837 369.454 367.273 369.454C366.891 369.454 366.551 369.538 366.253 369.707C365.959 369.872 365.728 370.112 365.559 370.426C365.394 370.74 365.311 371.12 365.311 371.567Z" fill="black"/>
<path d="M250.145 356V346.545H253.339C254.081 346.545 254.688 346.679 255.158 346.947C255.632 347.212 255.983 347.57 256.211 348.023C256.439 348.475 256.553 348.98 256.553 349.537C256.553 350.094 256.439 350.6 256.211 351.056C255.986 351.511 255.638 351.874 255.168 352.145C254.697 352.413 254.094 352.547 253.358 352.547H251.068V351.531H253.321C253.829 351.531 254.237 351.444 254.544 351.268C254.852 351.093 255.075 350.856 255.214 350.557C255.355 350.256 255.426 349.915 255.426 349.537C255.426 349.158 255.355 348.82 255.214 348.521C255.075 348.223 254.851 347.989 254.54 347.82C254.229 347.647 253.817 347.561 253.303 347.561H251.29V356H250.145ZM258.939 351.734V356H257.849V346.545H258.939V350.017H259.031C259.197 349.651 259.446 349.36 259.779 349.145C260.114 348.926 260.561 348.817 261.118 348.817C261.601 348.817 262.024 348.914 262.387 349.108C262.75 349.298 263.032 349.592 263.232 349.989C263.435 350.383 263.537 350.885 263.537 351.494V356H262.447V351.568C262.447 351.005 262.301 350.569 262.009 350.262C261.719 349.951 261.318 349.795 260.804 349.795C260.447 349.795 260.127 349.871 259.843 350.022C259.563 350.172 259.342 350.393 259.179 350.682C259.019 350.971 258.939 351.322 258.939 351.734ZM267.216 356.166C266.767 356.166 266.359 356.082 265.993 355.912C265.627 355.74 265.336 355.492 265.121 355.169C264.905 354.843 264.797 354.449 264.797 353.987C264.797 353.581 264.877 353.252 265.037 352.999C265.197 352.744 265.411 352.544 265.679 352.399C265.947 352.254 266.242 352.147 266.566 352.076C266.892 352.002 267.22 351.944 267.549 351.901C267.98 351.845 268.329 351.804 268.597 351.776C268.868 351.745 269.065 351.694 269.188 351.624C269.314 351.553 269.377 351.43 269.377 351.254V351.217C269.377 350.762 269.252 350.408 269.003 350.156C268.757 349.903 268.383 349.777 267.881 349.777C267.361 349.777 266.953 349.891 266.658 350.119C266.362 350.346 266.155 350.589 266.035 350.848L265.001 350.479C265.185 350.048 265.431 349.712 265.739 349.472C266.05 349.229 266.389 349.06 266.755 348.964C267.124 348.866 267.487 348.817 267.844 348.817C268.072 348.817 268.334 348.844 268.629 348.9C268.928 348.952 269.215 349.061 269.492 349.228C269.772 349.394 270.005 349.645 270.189 349.98C270.374 350.316 270.466 350.765 270.466 351.328V356H269.377V355.04H269.322C269.248 355.194 269.125 355.358 268.952 355.534C268.78 355.709 268.551 355.858 268.264 355.982C267.978 356.105 267.629 356.166 267.216 356.166ZM267.383 355.188C267.813 355.188 268.177 355.103 268.472 354.934C268.771 354.764 268.995 354.546 269.146 354.278C269.3 354.01 269.377 353.729 269.377 353.433V352.436C269.331 352.491 269.229 352.542 269.072 352.588C268.918 352.632 268.74 352.67 268.537 352.704C268.337 352.735 268.141 352.762 267.95 352.787C267.763 352.808 267.61 352.827 267.493 352.842C267.21 352.879 266.946 352.939 266.699 353.022C266.456 353.102 266.259 353.224 266.108 353.387C265.961 353.547 265.887 353.766 265.887 354.043C265.887 354.421 266.027 354.707 266.307 354.901C266.59 355.092 266.949 355.188 267.383 355.188ZM277.078 350.497L276.099 350.774C276.037 350.611 275.947 350.453 275.827 350.299C275.71 350.142 275.55 350.012 275.347 349.911C275.143 349.809 274.883 349.759 274.566 349.759C274.132 349.759 273.771 349.859 273.481 350.059C273.195 350.256 273.052 350.506 273.052 350.811C273.052 351.082 273.151 351.296 273.348 351.453C273.545 351.61 273.852 351.741 274.271 351.845L275.323 352.104C275.957 352.258 276.43 352.493 276.741 352.81C277.052 353.124 277.207 353.529 277.207 354.024C277.207 354.43 277.09 354.794 276.856 355.114C276.625 355.434 276.302 355.686 275.887 355.871C275.471 356.055 274.988 356.148 274.437 356.148C273.714 356.148 273.115 355.991 272.641 355.677C272.167 355.363 271.867 354.904 271.741 354.301L272.775 354.043C272.874 354.424 273.06 354.71 273.334 354.901C273.611 355.092 273.972 355.188 274.419 355.188C274.926 355.188 275.33 355.08 275.628 354.864C275.93 354.646 276.081 354.384 276.081 354.08C276.081 353.833 275.994 353.627 275.822 353.461C275.65 353.292 275.385 353.165 275.028 353.082L273.846 352.805C273.197 352.652 272.72 352.413 272.415 352.09C272.113 351.764 271.963 351.356 271.963 350.866C271.963 350.466 272.075 350.112 272.3 349.805C272.527 349.497 272.837 349.255 273.228 349.08C273.621 348.904 274.068 348.817 274.566 348.817C275.268 348.817 275.819 348.971 276.219 349.278C276.622 349.586 276.908 349.992 277.078 350.497ZM281.42 356.148C280.737 356.148 280.147 355.997 279.652 355.695C279.159 355.391 278.779 354.966 278.512 354.421C278.247 353.873 278.115 353.236 278.115 352.51C278.115 351.784 278.247 351.143 278.512 350.589C278.779 350.032 279.152 349.598 279.629 349.288C280.109 348.974 280.669 348.817 281.309 348.817C281.678 348.817 282.043 348.878 282.403 349.001C282.763 349.125 283.091 349.325 283.387 349.602C283.682 349.875 283.917 350.239 284.093 350.691C284.268 351.143 284.356 351.701 284.356 352.362V352.824H278.89V351.882H283.248C283.248 351.482 283.168 351.125 283.008 350.811C282.851 350.497 282.626 350.249 282.334 350.068C282.045 349.886 281.703 349.795 281.309 349.795C280.875 349.795 280.5 349.903 280.183 350.119C279.869 350.331 279.627 350.608 279.458 350.95C279.289 351.291 279.204 351.657 279.204 352.048V352.676C279.204 353.212 279.296 353.666 279.481 354.038C279.669 354.407 279.929 354.689 280.261 354.883C280.594 355.074 280.98 355.169 281.42 355.169C281.706 355.169 281.965 355.129 282.196 355.049C282.429 354.966 282.631 354.843 282.8 354.68C282.97 354.513 283.1 354.307 283.193 354.061L284.245 354.357C284.134 354.714 283.948 355.027 283.687 355.298C283.425 355.566 283.102 355.775 282.717 355.926C282.332 356.074 281.9 356.148 281.42 356.148ZM292.046 356.129C291.436 356.129 290.893 356.025 290.416 355.815C289.942 355.606 289.565 355.315 289.285 354.943C289.008 354.567 288.857 354.132 288.833 353.636H289.996C290.021 353.941 290.125 354.204 290.31 354.426C290.495 354.644 290.736 354.814 291.035 354.934C291.333 355.054 291.664 355.114 292.027 355.114C292.434 355.114 292.794 355.043 293.108 354.901C293.421 354.76 293.668 354.563 293.846 354.31C294.025 354.058 294.114 353.766 294.114 353.433C294.114 353.085 294.028 352.779 293.855 352.515C293.683 352.247 293.431 352.038 293.098 351.887C292.766 351.736 292.36 351.661 291.88 351.661H291.122V350.645H291.88C292.255 350.645 292.584 350.577 292.867 350.442C293.154 350.306 293.377 350.116 293.537 349.869C293.7 349.623 293.782 349.334 293.782 349.001C293.782 348.681 293.711 348.403 293.569 348.166C293.428 347.929 293.228 347.744 292.969 347.612C292.714 347.48 292.412 347.413 292.064 347.413C291.738 347.413 291.43 347.473 291.141 347.593C290.855 347.71 290.621 347.881 290.439 348.106C290.258 348.327 290.159 348.595 290.144 348.909H289.036C289.054 348.414 289.204 347.98 289.484 347.607C289.764 347.232 290.13 346.939 290.582 346.73C291.038 346.521 291.538 346.416 292.083 346.416C292.667 346.416 293.169 346.535 293.588 346.772C294.006 347.006 294.328 347.315 294.553 347.7C294.777 348.084 294.89 348.5 294.89 348.946C294.89 349.478 294.749 349.932 294.469 350.308C294.192 350.683 293.815 350.943 293.338 351.088V351.162C293.935 351.26 294.402 351.514 294.737 351.924C295.073 352.33 295.24 352.833 295.24 353.433C295.24 353.947 295.1 354.409 294.82 354.818C294.543 355.224 294.165 355.545 293.685 355.778C293.204 356.012 292.658 356.129 292.046 356.129Z" fill="black"/>
<circle cx="74" cy="98" r="6" fill="#F89A00"/>
<circle cx="74" cy="285" r="6" fill="#F89A00"/>
<circle cx="311" cy="98" r="6" fill="#F89A00"/>
<circle cx="311" cy="285" r="6" fill="#F89A00"/>
<path d="M192 151.375C197.802 151.375 203.366 153.68 207.468 157.782C211.57 161.884 213.875 167.448 213.875 173.25C213.875 179.052 211.57 184.616 207.468 188.718C203.366 192.82 197.802 195.125 192 195.125C186.198 195.125 180.634 192.82 176.532 188.718C172.43 184.616 170.125 179.052 170.125 173.25C170.125 167.448 172.43 161.884 176.532 157.782C180.634 153.68 186.198 151.375 192 151.375ZM148.25 167C151.75 167 155 167.938 157.813 169.625C156.875 178.563 159.5 187.438 164.875 194.375C161.75 200.375 155.5 204.5 148.25 204.5C143.277 204.5 138.508 202.525 134.992 199.008C131.475 195.492 129.5 190.723 129.5 185.75C129.5 180.777 131.475 176.008 134.992 172.492C138.508 168.975 143.277 167 148.25 167ZM235.75 167C240.723 167 245.492 168.975 249.008 172.492C252.525 176.008 254.5 180.777 254.5 185.75C254.5 190.723 252.525 195.492 249.008 199.008C245.492 202.525 240.723 204.5 235.75 204.5C228.5 204.5 222.25 200.375 219.125 194.375C224.5 187.438 227.125 178.563 226.187 169.625C229 167.938 232.25 167 235.75 167ZM151.375 231.062C151.375 218.125 169.563 207.625 192 207.625C214.437 207.625 232.625 218.125 232.625 231.062V242H151.375V231.062ZM117 242V232.625C117 223.938 128.812 216.625 144.812 214.5C141.125 218.75 138.875 224.625 138.875 231.062V242H117ZM267 242H245.125V231.062C245.125 224.625 242.875 218.75 239.187 214.5C255.187 216.625 267 223.938 267 232.625V242Z" fill="#F89A00"/>
<defs>
<filter id="filter0_d_341_368" x="36" y="40" width="312" height="312" filterUnits="userSpaceOnUse" color-interpolation-filters="sRGB">
<feFlood flood-opacity="0" result="BackgroundImageFix"/>
<feColorMatrix in="SourceAlpha" type="matrix" values="0 0 0 0 0 0 0 0 0 0 0 0 0 0 0 0 0 0 127 0" result="hardAlpha"/>
<feOffset dy="4"/>
<feGaussianBlur stdDeviation="2"/>
<feComposite in2="hardAlpha" operator="out"/>
<feColorMatrix type="matrix" values="0 0 0 0 0 0 0 0 0 0 0 0 0 0 0 0 0 0 0.12 0"/>
<feBlend mode="normal" in2="BackgroundImageFix" result="effect1_dropShadow_341_368"/>
<feBlend mode="normal" in="SourceGraphic" in2="effect1_dropShadow_341_368" result="shape"/>
</filter>
</defs>
</svg>
